<svg id="maze" xmlns="http://www.w3.org/2000/svg" viewBox="0 0 597.6 779.4782608695652"  width="597.6px" height="779.4782608695652px" stroke-width="2" fill-opacity="0.0" stroke="black"> <path stroke-opacity="1.0" stroke-width="2" stroke="#000000" d="M 25.98 5.2 L 51.97 5.2 M 25.98 20.79 L 51.97 20.79 M 51.97 5.2 L 77.95 5.2 M 51.97 20.79 L 57.16 20.79 L 57.16 25.98 M 77.95 20.79 L 72.75 20.79 L 72.75 25.98 M 77.95 20.79 L 98.73 20.79 L 98.73 5.2 L 77.95 5.2 M 124.72 25.98 L 124.72 5.2 L 109.13 5.2 L 109.13 25.98 M 155.9 20.79 L 135.11 20.79 L 135.11 5.2 L 155.9 5.2 M 155.9 20.79 L 161.09 20.79 L 161.09 25.98 M 155.9 5.2 L 176.68 5.2 L 176.68 25.98 M 202.66 25.98 L 202.66 5.2 L 187.07 5.2 L 187.07 25.98 M 228.65 25.98 L 228.65 5.2 L 213.06 5.2 L 213.06 25.98 M 254.63 25.98 L 254.63 5.2 L 239.04 5.2 L 239.04 25.98 M 285.81 20.79 L 280.61 20.79 L 280.61 25.98 M 285.81 5.2 L 265.02 5.2 L 265.02 25.98 M 285.81 20.79 L 306.59 20.79 L 306.59 5.2 L 285.81 5.2 M 337.77 20.79 L 332.58 20.79 L 332.58 25.98 M 337.77 5.2 L 316.99 5.2 L 316.99 25.98 M 337.77 20.79 L 358.56 20.79 L 358.56 5.2 L 337.77 5.2 M 384.54 25.98 L 384.54 5.2 L 368.95 5.2 L 368.95 25.98 M 415.72 20.79 L 394.94 20.79 L 394.94 5.2 L 415.72 5.2 M 415.72 5.2 L 441.7 5.2 M 415.72 20.79 L 441.7 20.79 M 441.7 5.2 L 467.69 5.2 M 441.7 20.79 L 467.69 20.79 M 467.69 20.79 L 472.88 20.79 L 472.88 25.98 M 467.69 5.2 L 488.47 5.2 L 488.47 25.98 M 514.46 25.98 L 514.46 5.2 L 498.87 5.2 L 498.87 25.98 M 545.63 20.79 L 540.44 20.79 L 540.44 25.98 M 545.63 5.2 L 524.85 5.2 L 524.85 25.98 M 545.63 5.2 L 571.62 5.2 M 545.63 20.79 L 550.83 20.79 L 550.83 25.98 M 571.62 20.79 L 566.42 20.79 L 566.42 25.98 M 571.62 20.79 L 592.4 20.79 L 592.4 5.2 L 571.62 5.2 M 20.79 51.97 L 20.79 31.18 L 5.2 31.18 L 5.2 51.97 M 51.97 46.77 L 46.77 46.77 L 46.77 51.97 M 51.97 31.18 L 31.18 31.18 L 31.18 51.97 M 57.16 25.98 L 57.16 51.97 M 72.75 25.98 L 72.75 51.97 M 51.97 31.18 L 57.16 31.18 M 51.97 46.77 L 57.16 46.77 M 77.95 31.18 L 72.75 31.18 M 77.95 46.77 L 72.75 46.77 M 77.95 46.77 L 83.14 46.77 L 83.14 51.97 M 77.95 31.18 L 98.73 31.18 L 98.73 51.97 M 129.91 31.18 L 124.72 31.18 L 124.72 25.98 M 129.91 46.77 L 109.13 46.77 L 109.13 25.98 M 129.91 46.77 L 135.11 46.77 L 135.11 51.97 M 129.91 31.18 L 150.7 31.18 L 150.7 51.97 M 181.88 31.18 L 176.68 31.18 L 176.68 25.98 M 181.88 46.77 L 161.09 46.77 L 161.09 25.98 M 181.88 31.18 L 207.86 31.18 M 181.88 46.77 L 207.86 46.77 M 187.07 25.98 L 187.07 31.18 M 202.66 25.98 L 202.66 31.18 M 187.07 46.77 L 187.07 51.97 M 202.66 46.77 L 202.66 51.97 M 228.65 25.98 L 228.65 51.97 M 213.06 25.98 L 213.06 31.18 L 207.86 31.18 M 207.86 46.77 L 213.06 46.77 L 213.06 51.97 M 239.04 25.98 L 239.04 51.97 M 259.83 31.18 L 254.63 31.18 L 254.63 25.98 M 259.83 46.77 L 254.63 46.77 L 254.63 51.97 M 265.02 25.98 L 265.02 51.97 M 280.61 25.98 L 280.61 51.97 M 259.83 31.18 L 265.02 31.18 M 259.83 46.77 L 265.02 46.77 M 285.81 31.18 L 280.61 31.18 M 285.81 46.77 L 280.61 46.77 M 285.81 31.18 L 311.79 31.18 M 285.81 46.77 L 291.01 46.77 L 291.01 51.97 M 311.79 46.77 L 306.59 46.77 L 306.59 51.97 M 311.79 31.18 L 337.77 31.18 M 311.79 46.77 L 337.77 46.77 M 316.99 25.98 L 316.99 31.18 M 332.58 25.98 L 332.58 31.18 M 316.99 46.77 L 316.99 51.97 M 332.58 46.77 L 332.58 51.97 M 337.77 31.18 L 363.76 31.18 M 337.77 46.77 L 342.97 46.77 L 342.97 51.97 M 363.76 46.77 L 358.56 46.77 L 358.56 51.97 M 368.95 25.98 L 368.95 51.97 M 384.54 25.98 L 384.54 51.97 M 363.76 31.18 L 368.95 31.18 M 363.76 46.77 L 368.95 46.77 M 389.74 31.18 L 384.54 31.18 M 389.74 46.77 L 384.54 46.77 M 389.74 31.18 L 415.72 31.18 M 389.74 46.77 L 415.72 46.77 M 415.72 46.77 L 420.92 46.77 L 420.92 51.97 M 415.72 31.18 L 436.51 31.18 L 436.51 51.97 M 467.69 46.77 L 462.49 46.77 L 462.49 51.97 M 467.69 31.18 L 446.9 31.18 L 446.9 51.97 M 467.69 31.18 L 493.67 31.18 M 467.69 46.77 L 493.67 46.77 M 472.88 25.98 L 472.88 31.18 M 488.47 25.98 L 488.47 31.18 M 472.88 46.77 L 472.88 51.97 M 488.47 46.77 L 488.47 51.97 M 498.87 25.98 L 498.87 31.18 L 493.67 31.18 M 514.46 25.98 L 514.46 46.77 L 493.67 46.77 M 545.63 31.18 L 540.44 31.18 L 540.44 25.98 M 545.63 46.77 L 524.85 46.77 L 524.85 25.98 M 550.83 25.98 L 550.83 51.97 M 566.42 25.98 L 566.42 51.97 M 545.63 31.18 L 550.83 31.18 M 545.63 46.77 L 550.83 46.77 M 571.62 31.18 L 566.42 31.18 M 571.62 46.77 L 566.42 46.77 M 571.62 46.77 L 592.4 46.77 L 592.4 31.18 L 571.62 31.18 M 25.98 57.16 L 20.79 57.16 L 20.79 51.97 M 25.98 72.75 L 5.2 72.75 L 5.2 51.97 M 31.18 51.97 L 31.18 77.95 M 46.77 51.97 L 46.77 77.95 M 25.98 57.16 L 31.18 57.16 M 25.98 72.75 L 31.18 72.75 M 51.97 57.16 L 46.77 57.16 M 51.97 72.75 L 46.77 72.75 M 72.75 51.97 L 72.75 77.95 M 57.16 51.97 L 57.16 57.16 L 51.97 57.16 M 51.97 72.75 L 57.16 72.75 L 57.16 77.95 M 98.73 51.97 L 98.73 54.89 L 98.73 72.75 L 83.14 72.75 L 83.14 51.97 M 129.91 72.75 L 124.72 72.75 L 124.72 77.95 M 129.91 57.16 L 109.13 57.16 L 109.13 77.95 M 135.11 51.97 L 135.11 77.95 M 150.7 51.97 L 150.7 77.95 M 129.91 57.16 L 135.11 57.16 M 129.91 72.75 L 135.11 72.75 M 155.9 57.16 L 150.7 57.16 M 155.9 72.75 L 150.7 72.75 M 155.9 72.75 L 161.09 72.75 L 161.09 77.95 M 155.9 57.16 L 176.68 57.16 L 176.68 77.95 M 207.86 57.16 L 202.66 57.16 L 202.66 51.97 M 207.86 72.75 L 187.07 72.75 L 187.07 51.97 M 207.86 57.16 L 233.84 57.16 M 207.86 72.75 L 233.84 72.75 M 213.06 51.97 L 213.06 57.16 M 228.65 51.97 L 228.65 57.16 M 213.06 72.75 L 213.06 77.95 M 228.65 72.75 L 228.65 77.95 M 239.04 51.97 L 239.04 57.16 L 233.84 57.16 M 254.63 51.97 L 254.63 72.75 L 233.84 72.75 M 265.02 51.97 L 265.02 77.95 M 285.81 57.16 L 280.61 57.16 L 280.61 51.97 M 285.81 72.75 L 280.61 72.75 L 280.61 77.95 M 285.81 57.16 L 311.79 57.16 M 285.81 72.75 L 311.79 72.75 M 291.01 51.97 L 291.01 57.16 M 306.59 51.97 L 306.59 57.16 M 291.01 72.75 L 291.01 77.95 M 306.59 72.75 L 306.59 77.95 M 332.58 51.97 L 332.58 77.95 M 316.99 51.97 L 316.99 57.16 L 311.79 57.16 M 311.79 72.75 L 316.99 72.75 L 316.99 77.95 M 363.76 57.16 L 358.56 57.16 L 358.56 51.97 M 363.76 72.75 L 342.97 72.75 L 342.97 51.97 M 368.95 51.97 L 368.95 57.16 L 363.76 57.16 M 363.76 72.75 L 368.95 72.75 L 368.95 77.95 M 389.74 57.16 L 384.54 57.16 L 384.54 51.97 M 389.74 72.75 L 384.54 72.75 L 384.54 77.95 M 389.74 72.75 L 410.53 72.75 L 410.53 57.16 L 389.74 57.16 M 441.7 57.16 L 436.51 57.16 L 436.51 51.97 M 441.7 72.75 L 420.92 72.75 L 420.92 51.97 M 446.9 51.97 L 446.9 77.95 M 462.49 51.97 L 462.49 77.95 M 441.7 57.16 L 446.9 57.16 M 441.7 72.75 L 446.9 72.75 M 467.69 57.16 L 462.49 57.16 M 467.69 72.75 L 462.49 72.75 M 488.47 51.97 L 488.47 77.95 M 472.88 51.97 L 472.88 57.16 L 467.69 57.16 M 467.69 72.75 L 472.88 72.75 L 472.88 77.95 M 519.65 72.75 L 498.87 72.75 L 498.87 57.16 L 519.65 57.16 M 519.65 72.75 L 524.85 72.75 L 524.85 77.95 M 519.65 57.16 L 540.44 57.16 L 540.44 77.95 M 550.83 51.97 L 550.83 77.95 M 571.62 57.16 L 566.42 57.16 L 566.42 51.97 M 571.62 72.75 L 566.42 72.75 L 566.42 77.95 M 571.62 72.75 L 592.4 72.75 L 592.4 57.16 L 571.62 57.16 M 20.79 103.93 L 20.79 83.14 L 5.2 83.14 L 5.2 103.93 M 31.18 77.95 L 31.18 103.93 M 51.97 83.14 L 46.77 83.14 L 46.77 77.95 M 51.97 98.73 L 46.77 98.73 L 46.77 103.93 M 51.97 83.14 L 77.95 83.14 M 51.97 98.73 L 77.95 98.73 M 57.16 77.95 L 57.16 83.14 M 72.75 77.95 L 72.75 83.14 M 57.16 98.73 L 57.16 103.93 M 72.75 98.73 L 72.75 103.93 M 77.95 83.14 L 103.93 83.14 M 77.95 98.73 L 83.14 98.73 L 83.14 103.93 M 103.93 98.73 L 98.73 98.73 L 98.73 103.93 M 103.93 83.14 L 129.91 83.14 M 103.93 98.73 L 129.91 98.73 M 109.13 77.95 L 109.13 83.14 M 124.72 77.95 L 124.72 83.14 M 109.13 98.73 L 109.13 103.93 M 124.72 98.73 L 124.72 103.93 M 129.91 98.73 L 155.9 98.73 M 135.11 77.95 L 135.11 83.14 L 129.91 83.14 M 155.9 83.14 L 150.7 83.14 L 150.7 77.95 M 155.9 83.14 L 181.88 83.14 M 155.9 98.73 L 181.88 98.73 M 161.09 77.95 L 161.09 83.14 M 176.68 77.95 L 176.68 83.14 M 161.09 98.73 L 161.09 103.93 M 176.68 98.73 L 176.68 103.93 M 181.88 98.73 L 187.07 98.73 L 187.07 103.93 M 181.88 83.14 L 202.66 83.14 L 202.66 103.93 M 213.06 77.95 L 213.06 103.93 M 228.65 77.95 L 228.65 103.93 M 259.83 98.73 L 254.63 98.73 L 254.63 103.93 M 259.83 83.14 L 239.04 83.14 L 239.04 103.93 M 259.83 83.14 L 285.81 83.14 M 259.83 98.73 L 285.81 98.73 M 265.02 77.95 L 265.02 83.14 M 280.61 77.95 L 280.61 83.14 M 265.02 98.73 L 265.02 103.93 M 280.61 98.73 L 280.61 103.93 M 285.81 98.73 L 311.79 98.73 M 291.01 77.95 L 291.01 83.14 L 285.81 83.14 M 311.79 83.14 L 306.59 83.14 L 306.59 77.95 M 311.79 83.14 L 337.77 83.14 M 311.79 98.73 L 337.77 98.73 M 316.99 77.95 L 316.99 83.14 M 332.58 77.95 L 332.58 83.14 M 316.99 98.73 L 316.99 103.93 M 332.58 98.73 L 332.58 103.93 M 337.77 83.14 L 363.76 83.14 M 337.77 98.73 L 342.97 98.73 L 342.97 103.93 M 363.76 98.73 L 358.56 98.73 L 358.56 103.93 M 363.76 83.14 L 389.74 83.14 M 363.76 98.73 L 389.74 98.73 M 368.95 77.95 L 368.95 83.14 M 384.54 77.95 L 384.54 83.14 M 368.95 98.73 L 368.95 103.93 M 384.54 98.73 L 384.54 103.93 M 389.74 98.73 L 410.53 98.73 L 410.53 83.14 L 389.74 83.14 M 436.51 103.93 L 436.51 83.14 L 420.92 83.14 L 420.92 103.93 M 467.69 83.14 L 462.49 83.14 L 462.49 77.95 M 467.69 98.73 L 446.9 98.73 L 446.9 77.95 M 472.88 77.95 L 472.88 103.93 M 488.47 77.95 L 488.47 103.93 M 467.69 83.14 L 472.88 83.14 M 467.69 98.73 L 472.88 98.73 M 493.67 83.14 L 488.47 83.14 M 493.67 98.73 L 488.47 98.73 M 493.67 83.14 L 519.65 83.14 M 493.67 98.73 L 498.87 98.73 L 498.87 103.93 M 519.65 98.73 L 514.46 98.73 L 514.46 103.93 M 524.85 77.95 L 524.85 103.93 M 540.44 77.95 L 540.44 103.93 M 519.65 83.14 L 524.85 83.14 M 519.65 98.73 L 524.85 98.73 M 545.63 83.14 L 540.44 83.14 M 545.63 98.73 L 540.44 98.73 M 550.83 77.95 L 550.83 83.14 L 545.63 83.14 M 545.63 98.73 L 550.83 98.73 L 550.83 103.93 M 571.62 83.14 L 566.42 83.14 L 566.42 77.95 M 571.62 98.73 L 566.42 98.73 L 566.42 103.93 M 571.62 98.73 L 592.4 98.73 L 592.4 83.14 L 571.62 83.14 M 25.98 109.13 L 20.79 109.13 L 20.79 103.93 M 25.98 124.72 L 5.2 124.72 L 5.2 103.93 M 31.18 103.93 L 31.18 129.91 M 46.77 103.93 L 46.77 129.91 M 25.98 109.13 L 31.18 109.13 M 25.98 124.72 L 31.18 124.72 M 51.97 109.13 L 46.77 109.13 M 51.97 124.72 L 46.77 124.72 M 57.16 103.93 L 57.16 109.13 L 51.97 109.13 M 51.97 124.72 L 57.16 124.72 L 57.16 129.91 M 77.95 109.13 L 72.75 109.13 L 72.75 103.93 M 77.95 124.72 L 72.75 124.72 L 72.75 129.91 M 83.14 103.93 L 83.14 109.13 L 77.95 109.13 M 98.73 103.93 L 98.73 124.72 L 77.95 124.72 M 109.13 103.93 L 109.13 129.91 M 129.91 109.13 L 124.72 109.13 L 124.72 103.93 M 129.91 124.72 L 124.72 124.72 L 124.72 129.91 M 129.91 124.72 L 150.7 124.72 L 150.7 109.13 L 129.91 109.13 M 161.09 103.93 L 161.09 129.91 M 181.88 109.13 L 176.68 109.13 L 176.68 103.93 M 181.88 124.72 L 176.68 124.72 L 176.68 129.91 M 187.07 103.93 L 187.07 129.91 M 202.66 103.93 L 202.66 129.91 M 181.88 109.13 L 187.07 109.13 M 181.88 124.72 L 187.07 124.72 M 207.86 109.13 L 202.66 109.13 M 207.86 124.72 L 202.66 124.72 M 213.06 103.93 L 213.06 109.13 L 207.86 109.13 M 207.86 124.72 L 213.06 124.72 L 213.06 129.91 M 233.84 109.13 L 228.65 109.13 L 228.65 103.93 M 233.84 124.72 L 228.65 124.72 L 228.65 129.91 M 233.84 109.13 L 259.83 109.13 M 233.84 124.72 L 259.83 124.72 M 239.04 103.93 L 239.04 109.13 M 254.63 103.93 L 254.63 109.13 M 239.04 124.72 L 239.04 129.91 M 254.63 124.72 L 254.63 129.91 M 265.02 103.93 L 265.02 109.13 L 259.83 109.13 M 259.83 124.72 L 265.02 124.72 L 265.02 129.91 M 285.81 109.13 L 280.61 109.13 L 280.61 103.93 M 285.81 124.72 L 280.61 124.72 L 280.61 129.91 M 285.81 124.72 L 306.59 124.72 L 306.59 109.13 L 285.81 109.13 M 332.58 103.93 L 332.58 106.86 L 332.58 124.72 L 316.99 124.72 L 316.99 103.93 M 342.97 103.93 L 342.97 129.91 M 358.56 103.93 L 358.56 129.91 M 368.95 103.93 L 368.95 129.91 M 384.54 103.93 L 384.54 129.91 M 415.72 124.72 L 394.94 124.72 L 394.94 109.13 L 415.72 109.13 M 420.92 103.93 L 420.92 129.91 M 436.51 103.93 L 436.51 129.91 M 415.72 109.13 L 420.92 109.13 M 415.72 124.72 L 420.92 124.72 M 441.7 109.13 L 436.51 109.13 M 441.7 124.72 L 436.51 124.72 M 441.7 109.13 L 467.69 109.13 M 441.7 124.72 L 467.69 124.72 M 467.69 124.72 L 493.67 124.72 M 472.88 103.93 L 472.88 109.13 L 467.69 109.13 M 493.67 109.13 L 488.47 109.13 L 488.47 103.93 M 498.87 103.93 L 498.87 129.91 M 514.46 103.93 L 514.46 129.91 M 493.67 109.13 L 498.87 109.13 M 493.67 124.72 L 498.87 124.72 M 519.65 109.13 L 514.46 109.13 M 519.65 124.72 L 514.46 124.72 M 540.44 103.93 L 540.44 129.91 M 524.85 103.93 L 524.85 109.13 L 519.65 109.13 M 519.65 124.72 L 524.85 124.72 L 524.85 129.91 M 571.62 109.13 L 566.42 109.13 L 566.42 103.93 M 571.62 124.72 L 550.83 124.72 L 550.83 103.93 M 571.62 124.72 L 592.4 124.72 L 592.4 109.13 L 571.62 109.13 M 25.98 150.7 L 5.2 150.7 L 5.2 135.11 L 25.98 135.11 M 25.98 150.7 L 51.97 150.7 M 31.18 129.91 L 31.18 135.11 L 25.98 135.11 M 51.97 135.11 L 46.77 135.11 L 46.77 129.91 M 57.16 129.91 L 57.16 155.9 M 72.75 129.91 L 72.75 155.9 M 51.97 135.11 L 57.16 135.11 M 51.97 150.7 L 57.16 150.7 M 77.95 135.11 L 72.75 135.11 M 77.95 150.7 L 72.75 150.7 M 77.95 135.11 L 103.93 135.11 M 77.95 150.7 L 103.93 150.7 M 109.13 129.91 L 109.13 155.9 M 124.72 129.91 L 124.72 155.9 M 103.93 135.11 L 109.13 135.11 M 103.93 150.7 L 109.13 150.7 M 129.91 135.11 L 124.72 135.11 M 129.91 150.7 L 124.72 150.7 M 129.91 150.7 L 135.11 150.7 L 135.11 155.9 M 129.91 135.11 L 150.7 135.11 L 150.7 155.9 M 176.68 129.91 L 176.68 132.84 L 176.68 150.7 L 161.09 150.7 L 161.09 129.91 M 207.86 135.11 L 202.66 135.11 L 202.66 129.91 M 207.86 150.7 L 187.07 150.7 L 187.07 129.91 M 207.86 135.11 L 233.84 135.11 M 207.86 150.7 L 233.84 150.7 M 213.06 129.91 L 213.06 135.11 M 228.65 129.91 L 228.65 135.11 M 213.06 150.7 L 213.06 155.9 M 228.65 150.7 L 228.65 155.9 M 239.04 129.91 L 239.04 135.11 L 233.84 135.11 M 233.84 150.7 L 239.04 150.7 L 239.04 155.9 M 259.83 135.11 L 254.63 135.11 L 254.63 129.91 M 259.83 150.7 L 254.63 150.7 L 254.63 155.9 M 259.83 135.11 L 285.81 135.11 M 259.83 150.7 L 285.81 150.7 M 265.02 129.91 L 265.02 135.11 M 280.61 129.91 L 280.61 135.11 M 265.02 150.7 L 265.02 155.9 M 280.61 150.7 L 280.61 155.9 M 285.81 150.7 L 306.59 150.7 L 306.59 135.11 L 285.81 135.11 M 332.58 155.9 L 332.58 135.11 L 316.99 135.11 L 316.99 155.9 M 358.56 129.91 L 358.56 132.84 L 358.56 150.7 L 342.97 150.7 L 342.97 129.91 M 384.54 129.91 L 384.54 132.84 L 384.54 150.7 L 368.95 150.7 L 368.95 129.91 M 415.72 150.7 L 394.94 150.7 L 394.94 135.11 L 415.72 135.11 M 436.51 129.91 L 436.51 155.9 M 420.92 129.91 L 420.92 135.11 L 415.72 135.11 M 415.72 150.7 L 420.92 150.7 L 420.92 155.9 M 462.49 155.9 L 462.49 135.11 L 446.9 135.11 L 446.9 155.9 M 493.67 150.7 L 488.47 150.7 L 488.47 155.9 M 493.67 135.11 L 472.88 135.11 L 472.88 155.9 M 493.67 150.7 L 519.65 150.7 M 498.87 129.91 L 498.87 135.11 L 493.67 135.11 M 519.65 135.11 L 514.46 135.11 L 514.46 129.91 M 519.65 135.11 L 545.63 135.11 M 519.65 150.7 L 545.63 150.7 M 524.85 129.91 L 524.85 135.11 M 540.44 129.91 L 540.44 135.11 M 524.85 150.7 L 524.85 155.9 M 540.44 150.7 L 540.44 155.9 M 545.63 150.7 L 550.83 150.7 L 550.83 155.9 M 545.63 135.11 L 566.42 135.11 L 566.42 155.9 M 592.4 155.9 L 592.4 135.11 L 576.81 135.11 L 576.81 155.9 M 25.98 176.68 L 20.79 176.68 L 20.79 181.88 M 25.98 161.09 L 5.2 161.09 L 5.2 181.88 M 25.98 161.09 L 51.97 161.09 M 25.98 176.68 L 51.97 176.68 M 72.75 155.9 L 72.75 181.88 M 57.16 155.9 L 57.16 161.09 L 51.97 161.09 M 51.97 176.68 L 57.16 176.68 L 57.16 181.88 M 103.93 176.68 L 83.14 176.68 L 83.14 161.09 L 103.93 161.09 M 103.93 176.68 L 129.91 176.68 M 109.13 155.9 L 109.13 161.09 L 103.93 161.09 M 129.91 161.09 L 124.72 161.09 L 124.72 155.9 M 135.11 155.9 L 135.11 181.88 M 150.7 155.9 L 150.7 181.88 M 129.91 161.09 L 135.11 161.09 M 129.91 176.68 L 135.11 176.68 M 155.9 161.09 L 150.7 161.09 M 155.9 176.68 L 150.7 176.68 M 155.9 176.68 L 161.09 176.68 L 161.09 181.88 M 155.9 161.09 L 176.68 161.09 L 176.68 181.88 M 202.66 181.88 L 202.66 161.09 L 187.07 161.09 L 187.07 181.88 M 233.84 161.09 L 228.65 161.09 L 228.65 155.9 M 233.84 176.68 L 213.06 176.68 L 213.06 155.9 M 254.63 155.9 L 254.63 181.88 M 239.04 155.9 L 239.04 161.09 L 233.84 161.09 M 233.84 176.68 L 239.04 176.68 L 239.04 181.88 M 280.61 155.9 L 280.61 158.82 L 280.61 176.68 L 265.02 176.68 L 265.02 155.9 M 311.79 176.68 L 306.59 176.68 L 306.59 181.88 M 311.79 161.09 L 291.01 161.09 L 291.01 181.88 M 316.99 155.9 L 316.99 181.88 M 332.58 155.9 L 332.58 181.88 M 311.79 161.09 L 316.99 161.09 M 311.79 176.68 L 316.99 176.68 M 337.77 161.09 L 332.58 161.09 M 337.77 176.68 L 332.58 176.68 M 337.77 176.68 L 358.56 176.68 L 358.56 161.09 L 337.77 161.09 M 384.54 181.88 L 384.54 161.09 L 368.95 161.09 L 368.95 181.88 M 415.72 176.68 L 410.53 176.68 L 410.53 181.88 M 415.72 161.09 L 394.94 161.09 L 394.94 181.88 M 420.92 155.9 L 420.92 181.88 M 436.51 155.9 L 436.51 181.88 M 415.72 161.09 L 420.92 161.09 M 415.72 176.68 L 420.92 176.68 M 441.7 161.09 L 436.51 161.09 M 441.7 176.68 L 436.51 176.68 M 446.9 155.9 L 446.9 161.09 L 441.7 161.09 M 441.7 176.68 L 446.9 176.68 L 446.9 181.88 M 467.69 161.09 L 462.49 161.09 L 462.49 155.9 M 467.69 176.68 L 462.49 176.68 L 462.49 181.88 M 472.88 155.9 L 472.88 181.88 M 488.47 155.9 L 488.47 181.88 M 467.69 161.09 L 472.88 161.09 M 467.69 176.68 L 472.88 176.68 M 493.67 161.09 L 488.47 161.09 M 493.67 176.68 L 488.47 176.68 M 493.67 176.68 L 514.46 176.68 L 514.46 161.09 L 493.67 161.09 M 524.85 155.9 L 524.85 181.88 M 545.63 161.09 L 540.44 161.09 L 540.44 155.9 M 545.63 176.68 L 540.44 176.68 L 540.44 181.88 M 545.63 161.09 L 571.62 161.09 M 545.63 176.68 L 571.62 176.68 M 550.83 155.9 L 550.83 161.09 M 566.42 155.9 L 566.42 161.09 M 550.83 176.68 L 550.83 181.88 M 566.42 176.68 L 566.42 181.88 M 576.81 155.9 L 576.81 161.09 L 571.62 161.09 M 592.4 155.9 L 592.4 176.68 L 571.62 176.68 M 25.98 187.07 L 20.79 187.07 L 20.79 181.88 M 25.98 202.66 L 5.2 202.66 L 5.2 181.88 M 25.98 187.07 L 51.97 187.07 M 25.98 202.66 L 51.97 202.66 M 51.97 187.07 L 77.95 187.07 M 51.97 202.66 L 77.95 202.66 M 57.16 181.88 L 57.16 187.07 M 72.75 181.88 L 72.75 187.07 M 57.16 202.66 L 57.16 207.86 M 72.75 202.66 L 72.75 207.86 M 77.95 202.66 L 98.73 202.66 L 98.73 187.07 L 77.95 187.07 M 129.91 202.66 L 109.13 202.66 L 109.13 187.07 L 129.91 187.07 M 135.11 181.88 L 135.11 187.07 L 129.91 187.07 M 129.91 202.66 L 135.11 202.66 L 135.11 207.86 M 155.9 187.07 L 150.7 187.07 L 150.7 181.88 M 155.9 202.66 L 150.7 202.66 L 150.7 207.86 M 161.09 181.88 L 161.09 207.86 M 176.68 181.88 L 176.68 207.86 M 155.9 187.07 L 161.09 187.07 M 155.9 202.66 L 161.09 202.66 M 181.88 187.07 L 176.68 187.07 M 181.88 202.66 L 176.68 202.66 M 181.88 202.66 L 207.86 202.66 M 187.07 181.88 L 187.07 187.07 L 181.88 187.07 M 207.86 187.07 L 202.66 187.07 L 202.66 181.88 M 207.86 187.07 L 233.84 187.07 M 207.86 202.66 L 233.84 202.66 M 233.84 187.07 L 259.83 187.07 M 233.84 202.66 L 259.83 202.66 M 239.04 181.88 L 239.04 187.07 M 254.63 181.88 L 254.63 187.07 M 239.04 202.66 L 239.04 207.86 M 254.63 202.66 L 254.63 207.86 M 259.83 202.66 L 265.02 202.66 L 265.02 207.86 M 259.83 187.07 L 280.61 187.07 L 280.61 207.86 M 311.79 187.07 L 306.59 187.07 L 306.59 181.88 M 311.79 202.66 L 291.01 202.66 L 291.01 181.88 M 316.99 181.88 L 316.99 187.07 L 311.79 187.07 M 311.79 202.66 L 316.99 202.66 L 316.99 207.86 M 337.77 187.07 L 332.58 187.07 L 332.58 181.88 M 337.77 202.66 L 332.58 202.66 L 332.58 207.86 M 337.77 202.66 L 358.56 202.66 L 358.56 187.07 L 337.77 187.07 M 368.95 181.88 L 368.95 207.86 M 389.74 187.07 L 384.54 187.07 L 384.54 181.88 M 389.74 202.66 L 384.54 202.66 L 384.54 207.86 M 389.74 187.07 L 415.72 187.07 M 389.74 202.66 L 415.72 202.66 M 394.94 181.88 L 394.94 187.07 M 410.53 181.88 L 410.53 187.07 M 394.94 202.66 L 394.94 207.86 M 410.53 202.66 L 410.53 207.86 M 415.72 202.66 L 441.7 202.66 M 420.92 181.88 L 420.92 187.07 L 415.72 187.07 M 441.7 187.07 L 436.51 187.07 L 436.51 181.88 M 446.9 181.88 L 446.9 207.86 M 462.49 181.88 L 462.49 207.86 M 441.7 187.07 L 446.9 187.07 M 441.7 202.66 L 446.9 202.66 M 467.69 187.07 L 462.49 187.07 M 467.69 202.66 L 462.49 202.66 M 488.47 181.88 L 488.47 207.86 M 472.88 181.88 L 472.88 187.07 L 467.69 187.07 M 467.69 202.66 L 472.88 202.66 L 472.88 207.86 M 519.65 202.66 L 498.87 202.66 L 498.87 187.07 L 519.65 187.07 M 519.65 187.07 L 545.63 187.07 M 519.65 202.66 L 545.63 202.66 M 524.85 181.88 L 524.85 187.07 M 540.44 181.88 L 540.44 187.07 M 524.85 202.66 L 524.85 207.86 M 540.44 202.66 L 540.44 207.86 M 550.83 181.88 L 550.83 187.07 L 545.63 187.07 M 545.63 202.66 L 550.83 202.66 L 550.83 207.86 M 571.62 187.07 L 566.42 187.07 L 566.42 181.88 M 571.62 202.66 L 566.42 202.66 L 566.42 207.86 M 571.62 202.66 L 592.4 202.66 L 592.4 187.07 L 571.62 187.07 M 20.79 233.84 L 20.79 213.06 L 5.2 213.06 L 5.2 233.84 M 51.97 228.65 L 46.77 228.65 L 46.77 233.84 M 51.97 213.06 L 31.18 213.06 L 31.18 233.84 M 57.16 207.86 L 57.16 213.06 L 51.97 213.06 M 51.97 228.65 L 57.16 228.65 L 57.16 233.84 M 77.95 213.06 L 72.75 213.06 L 72.75 207.86 M 77.95 228.65 L 72.75 228.65 L 72.75 233.84 M 77.95 228.65 L 83.14 228.65 L 83.14 233.84 M 77.95 213.06 L 98.73 213.06 L 98.73 233.84 M 129.91 228.65 L 109.13 228.65 L 109.13 213.06 L 129.91 213.06 M 135.11 207.86 L 135.11 213.06 L 129.91 213.06 M 150.7 207.86 L 150.7 228.65 L 129.91 228.65 M 176.68 207.86 L 176.68 210.79 L 176.68 228.65 L 161.09 228.65 L 161.09 207.86 M 202.66 233.84 L 202.66 213.06 L 187.07 213.06 L 187.07 233.84 M 233.84 228.65 L 213.06 228.65 L 213.06 213.06 L 233.84 213.06 M 239.04 207.86 L 239.04 213.06 L 233.84 213.06 M 254.63 207.86 L 254.63 228.65 L 233.84 228.65 M 265.02 207.86 L 265.02 233.84 M 280.61 207.86 L 280.61 233.84 M 311.79 228.65 L 291.01 228.65 L 291.01 213.06 L 311.79 213.06 M 311.79 213.06 L 337.77 213.06 M 311.79 228.65 L 337.77 228.65 M 316.99 207.86 L 316.99 213.06 M 332.58 207.86 L 332.58 213.06 M 316.99 228.65 L 316.99 233.84 M 332.58 228.65 L 332.58 233.84 M 337.77 213.06 L 363.76 213.06 M 337.77 228.65 L 342.97 228.65 L 342.97 233.84 M 363.76 228.65 L 358.56 228.65 L 358.56 233.84 M 368.95 207.86 L 368.95 233.84 M 384.54 207.86 L 384.54 233.84 M 363.76 213.06 L 368.95 213.06 M 363.76 228.65 L 368.95 228.65 M 389.74 213.06 L 384.54 213.06 M 389.74 228.65 L 384.54 228.65 M 410.53 207.86 L 410.53 233.84 M 394.94 207.86 L 394.94 213.06 L 389.74 213.06 M 389.74 228.65 L 394.94 228.65 L 394.94 233.84 M 436.51 233.84 L 436.51 213.06 L 420.92 213.06 L 420.92 233.84 M 467.69 213.06 L 462.49 213.06 L 462.49 207.86 M 467.69 228.65 L 446.9 228.65 L 446.9 207.86 M 472.88 207.86 L 472.88 233.84 M 488.47 207.86 L 488.47 233.84 M 467.69 213.06 L 472.88 213.06 M 467.69 228.65 L 472.88 228.65 M 493.67 213.06 L 488.47 213.06 M 493.67 228.65 L 488.47 228.65 M 493.67 228.65 L 498.87 228.65 L 498.87 233.84 M 493.67 213.06 L 514.46 213.06 L 514.46 233.84 M 524.85 207.86 L 524.85 233.84 M 545.63 213.06 L 540.44 213.06 L 540.44 207.86 M 545.63 228.65 L 540.44 228.65 L 540.44 233.84 M 550.83 207.86 L 550.83 233.84 M 566.42 207.86 L 566.42 233.84 M 545.63 213.06 L 550.83 213.06 M 545.63 228.65 L 550.83 228.65 M 571.62 213.06 L 566.42 213.06 M 571.62 228.65 L 566.42 228.65 M 571.62 228.65 L 592.4 228.65 L 592.4 213.06 L 571.62 213.06 M 25.98 239.04 L 20.79 239.04 L 20.79 233.84 M 25.98 254.63 L 5.2 254.63 L 5.2 233.84 M 25.98 239.04 L 51.97 239.04 M 25.98 254.63 L 51.97 254.63 M 31.18 233.84 L 31.18 239.04 M 46.77 233.84 L 46.77 239.04 M 31.18 254.63 L 31.18 259.83 M 46.77 254.63 L 46.77 259.83 M 57.16 233.84 L 57.16 239.04 L 51.97 239.04 M 51.97 254.63 L 57.16 254.63 L 57.16 259.83 M 77.95 239.04 L 72.75 239.04 L 72.75 233.84 M 77.95 254.63 L 72.75 254.63 L 72.75 259.83 M 83.14 233.84 L 83.14 259.83 M 98.73 233.84 L 98.73 259.83 M 77.95 239.04 L 83.14 239.04 M 77.95 254.63 L 83.14 254.63 M 103.93 239.04 L 98.73 239.04 M 103.93 254.63 L 98.73 254.63 M 103.93 239.04 L 129.91 239.04 M 103.93 254.63 L 129.91 254.63 M 129.91 254.63 L 150.7 254.63 L 150.7 239.04 L 129.91 239.04 M 181.88 254.63 L 176.68 254.63 L 176.68 259.83 M 181.88 239.04 L 161.09 239.04 L 161.09 259.83 M 181.88 239.04 L 207.86 239.04 M 181.88 254.63 L 207.86 254.63 M 187.07 233.84 L 187.07 239.04 M 202.66 233.84 L 202.66 239.04 M 187.07 254.63 L 187.07 259.83 M 202.66 254.63 L 202.66 259.83 M 207.86 254.63 L 213.06 254.63 L 213.06 259.83 M 207.86 239.04 L 228.65 239.04 L 228.65 259.83 M 259.83 254.63 L 254.63 254.63 L 254.63 259.83 M 259.83 239.04 L 239.04 239.04 L 239.04 259.83 M 259.83 239.04 L 285.81 239.04 M 259.83 254.63 L 285.81 254.63 M 265.02 233.84 L 265.02 239.04 M 280.61 233.84 L 280.61 239.04 M 265.02 254.63 L 265.02 259.83 M 280.61 254.63 L 280.61 259.83 M 285.81 254.63 L 291.01 254.63 L 291.01 259.83 M 285.81 239.04 L 306.59 239.04 L 306.59 259.83 M 316.99 233.84 L 316.99 259.83 M 337.77 239.04 L 332.58 239.04 L 332.58 233.84 M 337.77 254.63 L 332.58 254.63 L 332.58 259.83 M 337.77 239.04 L 363.76 239.04 M 337.77 254.63 L 363.76 254.63 M 342.97 233.84 L 342.97 239.04 M 358.56 233.84 L 358.56 239.04 M 342.97 254.63 L 342.97 259.83 M 358.56 254.63 L 358.56 259.83 M 384.54 233.84 L 384.54 259.83 M 368.95 233.84 L 368.95 239.04 L 363.76 239.04 M 363.76 254.63 L 368.95 254.63 L 368.95 259.83 M 415.72 239.04 L 410.53 239.04 L 410.53 233.84 M 415.72 254.63 L 394.94 254.63 L 394.94 233.84 M 415.72 239.04 L 441.7 239.04 M 415.72 254.63 L 441.7 254.63 M 420.92 233.84 L 420.92 239.04 M 436.51 233.84 L 436.51 239.04 M 420.92 254.63 L 420.92 259.83 M 436.51 254.63 L 436.51 259.83 M 441.7 254.63 L 462.49 254.63 L 462.49 239.04 L 441.7 239.04 M 472.88 233.84 L 472.88 259.83 M 488.47 233.84 L 488.47 259.83 M 519.65 239.04 L 514.46 239.04 L 514.46 233.84 M 519.65 254.63 L 498.87 254.63 L 498.87 233.84 M 519.65 239.04 L 545.63 239.04 M 519.65 254.63 L 545.63 254.63 M 524.85 233.84 L 524.85 239.04 M 540.44 233.84 L 540.44 239.04 M 524.85 254.63 L 524.85 259.83 M 540.44 254.63 L 540.44 259.83 M 550.83 233.84 L 550.83 239.04 L 545.63 239.04 M 545.63 254.63 L 550.83 254.63 L 550.83 259.83 M 571.62 239.04 L 566.42 239.04 L 566.42 233.84 M 571.62 254.63 L 566.42 254.63 L 566.42 259.83 M 571.62 254.63 L 592.4 254.63 L 592.4 239.04 L 571.62 239.04 M 20.79 285.81 L 20.79 265.02 L 5.2 265.02 L 5.2 285.81 M 31.18 259.83 L 31.18 285.81 M 46.77 259.83 L 46.77 285.81 M 57.16 259.83 L 57.16 285.81 M 72.75 259.83 L 72.75 285.81 M 98.73 259.83 L 98.73 262.75 L 98.73 280.61 L 83.14 280.61 L 83.14 259.83 M 129.91 280.61 L 124.72 280.61 L 124.72 285.81 M 129.91 265.02 L 109.13 265.02 L 109.13 285.81 M 129.91 280.61 L 150.7 280.61 L 150.7 265.02 L 129.91 265.02 M 181.88 265.02 L 176.68 265.02 L 176.68 259.83 M 181.88 280.61 L 161.09 280.61 L 161.09 259.83 M 187.07 259.83 L 187.07 265.02 L 181.88 265.02 M 202.66 259.83 L 202.66 280.61 L 181.88 280.61 M 233.84 265.02 L 228.65 265.02 L 228.65 259.83 M 233.84 280.61 L 213.06 280.61 L 213.06 259.83 M 239.04 259.83 L 239.04 285.81 M 254.63 259.83 L 254.63 285.81 M 233.84 265.02 L 239.04 265.02 M 233.84 280.61 L 239.04 280.61 M 259.83 265.02 L 254.63 265.02 M 259.83 280.61 L 254.63 280.61 M 265.02 259.83 L 265.02 265.02 L 259.83 265.02 M 280.61 259.83 L 280.61 280.61 L 259.83 280.61 M 291.01 259.83 L 291.01 285.81 M 311.79 265.02 L 306.59 265.02 L 306.59 259.83 M 311.79 280.61 L 306.59 280.61 L 306.59 285.81 M 316.99 259.83 L 316.99 285.81 M 332.58 259.83 L 332.58 285.81 M 311.79 265.02 L 316.99 265.02 M 311.79 280.61 L 316.99 280.61 M 337.77 265.02 L 332.58 265.02 M 337.77 280.61 L 332.58 280.61 M 337.77 280.61 L 363.76 280.61 M 342.97 259.83 L 342.97 265.02 L 337.77 265.02 M 363.76 265.02 L 358.56 265.02 L 358.56 259.83 M 363.76 265.02 L 389.74 265.02 M 363.76 280.61 L 389.74 280.61 M 368.95 259.83 L 368.95 265.02 M 384.54 259.83 L 384.54 265.02 M 368.95 280.61 L 368.95 285.81 M 384.54 280.61 L 384.54 285.81 M 389.74 280.61 L 394.94 280.61 L 394.94 285.81 M 389.74 265.02 L 410.53 265.02 L 410.53 285.81 M 420.92 259.83 L 420.92 285.81 M 436.51 259.83 L 436.51 285.81 M 467.69 280.61 L 446.9 280.61 L 446.9 265.02 L 467.69 265.02 M 467.69 265.02 L 493.67 265.02 M 467.69 280.61 L 493.67 280.61 M 472.88 259.83 L 472.88 265.02 M 488.47 259.83 L 488.47 265.02 M 472.88 280.61 L 472.88 285.81 M 488.47 280.61 L 488.47 285.81 M 493.67 280.61 L 498.87 280.61 L 498.87 285.81 M 493.67 265.02 L 514.46 265.02 L 514.46 285.81 M 524.85 259.83 L 524.85 285.81 M 545.63 265.02 L 540.44 265.02 L 540.44 259.83 M 545.63 280.61 L 540.44 280.61 L 540.44 285.81 M 545.63 265.02 L 571.62 265.02 M 545.63 280.61 L 571.62 280.61 M 550.83 259.83 L 550.83 265.02 M 566.42 259.83 L 566.42 265.02 M 550.83 280.61 L 550.83 285.81 M 566.42 280.61 L 566.42 285.81 M 571.62 280.61 L 592.4 280.61 L 592.4 265.02 L 571.62 265.02 M 25.98 291.01 L 20.79 291.01 L 20.79 285.81 M 25.98 306.59 L 5.2 306.59 L 5.2 285.81 M 25.98 291.01 L 51.97 291.01 M 25.98 306.59 L 51.97 306.59 M 31.18 285.81 L 31.18 291.01 M 46.77 285.81 L 46.77 291.01 M 31.18 306.59 L 31.18 311.79 M 46.77 306.59 L 46.77 311.79 M 57.16 285.81 L 57.16 291.01 L 51.97 291.01 M 72.75 285.81 L 72.75 306.59 L 51.97 306.59 M 103.93 306.59 L 83.14 306.59 L 83.14 291.01 L 103.93 291.01 M 103.93 291.01 L 129.91 291.01 M 103.93 306.59 L 129.91 306.59 M 109.13 285.81 L 109.13 291.01 M 124.72 285.81 L 124.72 291.01 M 109.13 306.59 L 109.13 311.79 M 124.72 306.59 L 124.72 311.79 M 129.91 306.59 L 135.11 306.59 L 135.11 311.79 M 129.91 291.01 L 150.7 291.01 L 150.7 311.79 M 176.68 311.79 L 176.68 291.01 L 161.09 291.01 L 161.09 311.79 M 207.86 306.59 L 202.66 306.59 L 202.66 311.79 M 207.86 291.01 L 187.07 291.01 L 187.07 311.79 M 207.86 306.59 L 228.65 306.59 L 228.65 291.01 L 207.86 291.01 M 254.63 285.81 L 254.63 288.74 L 254.63 306.59 L 239.04 306.59 L 239.04 285.81 M 285.81 306.59 L 280.61 306.59 L 280.61 311.79 M 285.81 291.01 L 265.02 291.01 L 265.02 311.79 M 285.81 291.01 L 311.79 291.01 M 285.81 306.59 L 311.79 306.59 M 291.01 285.81 L 291.01 291.01 M 306.59 285.81 L 306.59 291.01 M 291.01 306.59 L 291.01 311.79 M 306.59 306.59 L 306.59 311.79 M 332.58 285.81 L 332.58 311.79 M 316.99 285.81 L 316.99 291.01 L 311.79 291.01 M 311.79 306.59 L 316.99 306.59 L 316.99 311.79 M 363.76 306.59 L 342.97 306.59 L 342.97 291.01 L 363.76 291.01 M 368.95 285.81 L 368.95 291.01 L 363.76 291.01 M 363.76 306.59 L 368.95 306.59 L 368.95 311.79 M 389.74 291.01 L 384.54 291.01 L 384.54 285.81 M 389.74 306.59 L 384.54 306.59 L 384.54 311.79 M 394.94 285.81 L 394.94 311.79 M 410.53 285.81 L 410.53 311.79 M 389.74 291.01 L 394.94 291.01 M 389.74 306.59 L 394.94 306.59 M 415.72 291.01 L 410.53 291.01 M 415.72 306.59 L 410.53 306.59 M 420.92 285.81 L 420.92 291.01 L 415.72 291.01 M 436.51 285.81 L 436.51 306.59 L 415.72 306.59 M 462.49 311.79 L 462.49 291.01 L 446.9 291.01 L 446.9 311.79 M 472.88 285.81 L 472.88 311.79 M 488.47 285.81 L 488.47 311.79 M 498.87 285.81 L 498.87 311.79 M 519.65 291.01 L 514.46 291.01 L 514.46 285.81 M 519.65 306.59 L 514.46 306.59 L 514.46 311.79 M 524.85 285.81 L 524.85 311.79 M 540.44 285.81 L 540.44 311.79 M 519.65 291.01 L 524.85 291.01 M 519.65 306.59 L 524.85 306.59 M 545.63 291.01 L 540.44 291.01 M 545.63 306.59 L 540.44 306.59 M 550.83 285.81 L 550.83 291.01 L 545.63 291.01 M 545.63 306.59 L 550.83 306.59 L 550.83 311.79 M 571.62 291.01 L 566.42 291.01 L 566.42 285.81 M 571.62 306.59 L 566.42 306.59 L 566.42 311.79 M 571.62 306.59 L 592.4 306.59 L 592.4 291.01 L 571.62 291.01 M 20.79 337.77 L 20.79 316.99 L 5.2 316.99 L 5.2 337.77 M 46.77 311.79 L 46.77 314.72 L 46.77 332.58 L 31.18 332.58 L 31.18 311.79 M 77.95 332.58 L 57.16 332.58 L 57.16 316.99 L 77.95 316.99 M 77.95 332.58 L 83.14 332.58 L 83.14 337.77 M 77.95 316.99 L 98.73 316.99 L 98.73 337.77 M 129.91 316.99 L 124.72 316.99 L 124.72 311.79 M 129.91 332.58 L 109.13 332.58 L 109.13 311.79 M 129.91 316.99 L 155.9 316.99 M 129.91 332.58 L 155.9 332.58 M 135.11 311.79 L 135.11 316.99 M 150.7 311.79 L 150.7 316.99 M 135.11 332.58 L 135.11 337.77 M 150.7 332.58 L 150.7 337.77 M 161.09 311.79 L 161.09 316.99 L 155.9 316.99 M 155.9 332.58 L 161.09 332.58 L 161.09 337.77 M 181.88 316.99 L 176.68 316.99 L 176.68 311.79 M 181.88 332.58 L 176.68 332.58 L 176.68 337.77 M 181.88 316.99 L 207.86 316.99 M 181.88 332.58 L 207.86 332.58 M 187.07 311.79 L 187.07 316.99 M 202.66 311.79 L 202.66 316.99 M 187.07 332.58 L 187.07 337.77 M 202.66 332.58 L 202.66 337.77 M 207.86 332.58 L 213.06 332.58 L 213.06 337.77 M 207.86 316.99 L 228.65 316.99 L 228.65 337.77 M 259.83 332.58 L 239.04 332.58 L 239.04 316.99 L 259.83 316.99 M 265.02 311.79 L 265.02 337.77 M 280.61 311.79 L 280.61 337.77 M 259.83 316.99 L 265.02 316.99 M 259.83 332.58 L 265.02 332.58 M 285.81 316.99 L 280.61 316.99 M 285.81 332.58 L 280.61 332.58 M 285.81 332.58 L 311.79 332.58 M 291.01 311.79 L 291.01 316.99 L 285.81 316.99 M 311.79 316.99 L 306.59 316.99 L 306.59 311.79 M 311.79 316.99 L 337.77 316.99 M 311.79 332.58 L 337.77 332.58 M 316.99 311.79 L 316.99 316.99 M 332.58 311.79 L 332.58 316.99 M 316.99 332.58 L 316.99 337.77 M 332.58 332.58 L 332.58 337.77 M 337.77 332.58 L 358.56 332.58 L 358.56 316.99 L 337.77 316.99 M 384.54 311.79 L 384.54 314.72 L 384.54 332.58 L 368.95 332.58 L 368.95 311.79 M 394.94 311.79 L 394.94 337.77 M 410.53 311.79 L 410.53 337.77 M 441.7 332.58 L 436.51 332.58 L 436.51 337.77 M 441.7 316.99 L 420.92 316.99 L 420.92 337.77 M 441.7 316.99 L 467.69 316.99 M 441.7 332.58 L 467.69 332.58 M 446.9 311.79 L 446.9 316.99 M 462.49 311.79 L 462.49 316.99 M 446.9 332.58 L 446.9 337.77 M 462.49 332.58 L 462.49 337.77 M 472.88 311.79 L 472.88 316.99 L 467.69 316.99 M 488.47 311.79 L 488.47 332.58 L 467.69 332.58 M 498.87 311.79 L 498.87 337.77 M 514.46 311.79 L 514.46 337.77 M 524.85 311.79 L 524.85 337.77 M 545.63 316.99 L 540.44 316.99 L 540.44 311.79 M 545.63 332.58 L 540.44 332.58 L 540.44 337.77 M 545.63 316.99 L 571.62 316.99 M 545.63 332.58 L 571.62 332.58 M 550.83 311.79 L 550.83 316.99 M 566.42 311.79 L 566.42 316.99 M 550.83 332.58 L 550.83 337.77 M 566.42 332.58 L 566.42 337.77 M 571.62 332.58 L 592.4 332.58 L 592.4 316.99 L 571.62 316.99 M 25.98 342.97 L 20.79 342.97 L 20.79 337.77 M 25.98 358.56 L 5.2 358.56 L 5.2 337.77 M 25.98 358.56 L 31.18 358.56 L 31.18 363.76 M 25.98 342.97 L 46.77 342.97 L 46.77 363.76 M 77.95 358.56 L 57.16 358.56 L 57.16 342.97 L 77.95 342.97 M 77.95 342.97 L 103.93 342.97 M 77.95 358.56 L 103.93 358.56 M 83.14 337.77 L 83.14 342.97 M 98.73 337.77 L 98.73 342.97 M 83.14 358.56 L 83.14 363.76 M 98.73 358.56 L 98.73 363.76 M 103.93 342.97 L 129.91 342.97 M 103.93 358.56 L 129.91 358.56 M 150.7 337.77 L 150.7 363.76 M 135.11 337.77 L 135.11 342.97 L 129.91 342.97 M 129.91 358.56 L 135.11 358.56 L 135.11 363.76 M 176.68 337.77 L 176.68 340.7 L 176.68 358.56 L 161.09 358.56 L 161.09 337.77 M 187.07 337.77 L 187.07 363.76 M 207.86 342.97 L 202.66 342.97 L 202.66 337.77 M 207.86 358.56 L 202.66 358.56 L 202.66 363.76 M 207.86 342.97 L 233.84 342.97 M 207.86 358.56 L 233.84 358.56 M 213.06 337.77 L 213.06 342.97 M 228.65 337.77 L 228.65 342.97 M 213.06 358.56 L 213.06 363.76 M 228.65 358.56 L 228.65 363.76 M 233.84 358.56 L 239.04 358.56 L 239.04 363.76 M 233.84 342.97 L 254.63 342.97 L 254.63 363.76 M 280.61 337.77 L 280.61 340.7 L 280.61 358.56 L 265.02 358.56 L 265.02 337.77 M 306.59 363.76 L 306.59 342.97 L 291.01 342.97 L 291.01 363.76 M 332.58 337.77 L 332.58 340.7 L 332.58 358.56 L 316.99 358.56 L 316.99 337.77 M 358.56 363.76 L 358.56 342.97 L 342.97 342.97 L 342.97 363.76 M 389.74 358.56 L 368.95 358.56 L 368.95 342.97 L 389.74 342.97 M 394.94 337.77 L 394.94 363.76 M 410.53 337.77 L 410.53 363.76 M 389.74 342.97 L 394.94 342.97 M 389.74 358.56 L 394.94 358.56 M 415.72 342.97 L 410.53 342.97 M 415.72 358.56 L 410.53 358.56 M 420.92 337.77 L 420.92 342.97 L 415.72 342.97 M 436.51 337.77 L 436.51 358.56 L 415.72 358.56 M 446.9 337.77 L 446.9 363.76 M 462.49 337.77 L 462.49 363.76 M 493.67 358.56 L 488.47 358.56 L 488.47 363.76 M 493.67 342.97 L 472.88 342.97 L 472.88 363.76 M 498.87 337.77 L 498.87 363.76 M 514.46 337.77 L 514.46 363.76 M 493.67 342.97 L 498.87 342.97 M 493.67 358.56 L 498.87 358.56 M 519.65 342.97 L 514.46 342.97 M 519.65 358.56 L 514.46 358.56 M 524.85 337.77 L 524.85 342.97 L 519.65 342.97 M 540.44 337.77 L 540.44 358.56 L 519.65 358.56 M 550.83 337.77 L 550.83 363.76 M 566.42 337.77 L 566.42 363.76 M 592.4 363.76 L 592.4 342.97 L 576.81 342.97 L 576.81 363.76 M 25.98 384.54 L 5.2 384.54 L 5.2 368.95 L 25.98 368.95 M 31.18 363.76 L 31.18 389.74 M 46.77 363.76 L 46.77 389.74 M 25.98 368.95 L 31.18 368.95 M 25.98 384.54 L 31.18 384.54 M 51.97 368.95 L 46.77 368.95 M 51.97 384.54 L 46.77 384.54 M 51.97 368.95 L 77.95 368.95 M 51.97 384.54 L 57.16 384.54 L 57.16 389.74 M 77.95 384.54 L 72.75 384.54 L 72.75 389.74 M 83.14 363.76 L 83.14 368.95 L 77.95 368.95 M 98.73 363.76 L 98.73 384.54 L 77.95 384.54 M 129.91 384.54 L 124.72 384.54 L 124.72 389.74 M 129.91 368.95 L 109.13 368.95 L 109.13 389.74 M 129.91 368.95 L 155.9 368.95 M 129.91 384.54 L 155.9 384.54 M 135.11 363.76 L 135.11 368.95 M 150.7 363.76 L 150.7 368.95 M 135.11 384.54 L 135.11 389.74 M 150.7 384.54 L 150.7 389.74 M 155.9 368.95 L 181.88 368.95 M 155.9 384.54 L 161.09 384.54 L 161.09 389.74 M 181.88 384.54 L 176.68 384.54 L 176.68 389.74 M 187.07 363.76 L 187.07 389.74 M 202.66 363.76 L 202.66 389.74 M 181.88 368.95 L 187.07 368.95 M 181.88 384.54 L 187.07 384.54 M 207.86 368.95 L 202.66 368.95 M 207.86 384.54 L 202.66 384.54 M 207.86 384.54 L 233.84 384.54 M 213.06 363.76 L 213.06 368.95 L 207.86 368.95 M 233.84 368.95 L 228.65 368.95 L 228.65 363.76 M 233.84 368.95 L 259.83 368.95 M 233.84 384.54 L 259.83 384.54 M 239.04 363.76 L 239.04 368.95 M 254.63 363.76 L 254.63 368.95 M 239.04 384.54 L 239.04 389.74 M 254.63 384.54 L 254.63 389.74 M 259.83 368.95 L 285.81 368.95 M 259.83 384.54 L 265.02 384.54 L 265.02 389.74 M 285.81 384.54 L 280.61 384.54 L 280.61 389.74 M 291.01 363.76 L 291.01 389.74 M 306.59 363.76 L 306.59 389.74 M 285.81 368.95 L 291.01 368.95 M 285.81 384.54 L 291.01 384.54 M 311.79 368.95 L 306.59 368.95 M 311.79 384.54 L 306.59 384.54 M 311.79 368.95 L 337.77 368.95 M 311.79 384.54 L 337.77 384.54 M 342.97 363.76 L 342.97 389.74 M 358.56 363.76 L 358.56 389.74 M 337.77 368.95 L 342.97 368.95 M 337.77 384.54 L 342.97 384.54 M 363.76 368.95 L 358.56 368.95 M 363.76 384.54 L 358.56 384.54 M 363.76 384.54 L 368.95 384.54 L 368.95 389.74 M 363.76 368.95 L 384.54 368.95 L 384.54 389.74 M 394.94 363.76 L 394.94 389.74 M 410.53 363.76 L 410.53 389.74 M 436.51 389.74 L 436.51 368.95 L 420.92 368.95 L 420.92 389.74 M 446.9 363.76 L 446.9 389.74 M 462.49 363.76 L 462.49 389.74 M 472.88 363.76 L 472.88 389.74 M 488.47 363.76 L 488.47 389.74 M 519.65 368.95 L 514.46 368.95 L 514.46 363.76 M 519.65 384.54 L 498.87 384.54 L 498.87 363.76 M 519.65 368.95 L 545.63 368.95 M 519.65 384.54 L 545.63 384.54 M 545.63 368.95 L 571.62 368.95 M 545.63 384.54 L 571.62 384.54 M 550.83 363.76 L 550.83 368.95 M 566.42 363.76 L 566.42 368.95 M 550.83 384.54 L 550.83 389.74 M 566.42 384.54 L 566.42 389.74 M 576.81 363.76 L 576.81 368.95 L 571.62 368.95 M 592.4 363.76 L 592.4 384.54 L 571.62 384.54 M 25.98 410.53 L 20.79 410.53 L 20.79 415.72 M 25.98 394.94 L 5.2 394.94 L 5.2 415.72 M 31.18 389.74 L 31.18 394.94 L 25.98 394.94 M 25.98 410.53 L 31.18 410.53 L 31.18 415.72 M 51.97 394.94 L 46.77 394.94 L 46.77 389.74 M 51.97 410.53 L 46.77 410.53 L 46.77 415.72 M 51.97 394.94 L 77.95 394.94 M 51.97 410.53 L 77.95 410.53 M 57.16 389.74 L 57.16 394.94 M 72.75 389.74 L 72.75 394.94 M 57.16 410.53 L 57.16 415.72 M 72.75 410.53 L 72.75 415.72 M 77.95 394.94 L 103.93 394.94 M 77.95 410.53 L 83.14 410.53 L 83.14 415.72 M 103.93 410.53 L 98.73 410.53 L 98.73 415.72 M 109.13 389.74 L 109.13 415.72 M 124.72 389.74 L 124.72 415.72 M 103.93 394.94 L 109.13 394.94 M 103.93 410.53 L 109.13 410.53 M 129.91 394.94 L 124.72 394.94 M 129.91 410.53 L 124.72 410.53 M 135.11 389.74 L 135.11 394.94 L 129.91 394.94 M 150.7 389.74 L 150.7 410.53 L 129.91 410.53 M 176.68 389.74 L 176.68 392.67 L 176.68 410.53 L 161.09 410.53 L 161.09 389.74 M 202.66 389.74 L 202.66 392.67 L 202.66 410.53 L 187.07 410.53 L 187.07 389.74 M 228.65 415.72 L 228.65 394.94 L 213.06 394.94 L 213.06 415.72 M 239.04 389.74 L 239.04 415.72 M 259.83 394.94 L 254.63 394.94 L 254.63 389.74 M 259.83 410.53 L 254.63 410.53 L 254.63 415.72 M 259.83 394.94 L 285.81 394.94 M 259.83 410.53 L 285.81 410.53 M 265.02 389.74 L 265.02 394.94 M 280.61 389.74 L 280.61 394.94 M 265.02 410.53 L 265.02 415.72 M 280.61 410.53 L 280.61 415.72 M 306.59 389.74 L 306.59 415.72 M 291.01 389.74 L 291.01 394.94 L 285.81 394.94 M 285.81 410.53 L 291.01 410.53 L 291.01 415.72 M 332.58 415.72 L 332.58 394.94 L 316.99 394.94 L 316.99 415.72 M 363.76 394.94 L 358.56 394.94 L 358.56 389.74 M 363.76 410.53 L 342.97 410.53 L 342.97 389.74 M 363.76 394.94 L 389.74 394.94 M 363.76 410.53 L 389.74 410.53 M 368.95 389.74 L 368.95 394.94 M 384.54 389.74 L 384.54 394.94 M 368.95 410.53 L 368.95 415.72 M 384.54 410.53 L 384.54 415.72 M 394.94 389.74 L 394.94 394.94 L 389.74 394.94 M 389.74 410.53 L 394.94 410.53 L 394.94 415.72 M 415.72 394.94 L 410.53 394.94 L 410.53 389.74 M 415.72 410.53 L 410.53 410.53 L 410.53 415.72 M 415.72 394.94 L 441.7 394.94 M 415.72 410.53 L 441.7 410.53 M 420.92 389.74 L 420.92 394.94 M 436.51 389.74 L 436.51 394.94 M 420.92 410.53 L 420.92 415.72 M 436.51 410.53 L 436.51 415.72 M 446.9 389.74 L 446.9 394.94 L 441.7 394.94 M 441.7 410.53 L 446.9 410.53 L 446.9 415.72 M 467.69 394.94 L 462.49 394.94 L 462.49 389.74 M 467.69 410.53 L 462.49 410.53 L 462.49 415.72 M 467.69 394.94 L 493.67 394.94 M 467.69 410.53 L 493.67 410.53 M 472.88 389.74 L 472.88 394.94 M 488.47 389.74 L 488.47 394.94 M 472.88 410.53 L 472.88 415.72 M 488.47 410.53 L 488.47 415.72 M 493.67 410.53 L 498.87 410.53 L 498.87 415.72 M 493.67 394.94 L 514.46 394.94 L 514.46 415.72 M 545.63 410.53 L 524.85 410.53 L 524.85 394.94 L 545.63 394.94 M 566.42 389.74 L 566.42 415.72 M 550.83 389.74 L 550.83 394.94 L 545.63 394.94 M 545.63 410.53 L 550.83 410.53 L 550.83 415.72 M 592.4 415.72 L 592.4 394.94 L 576.81 394.94 L 576.81 415.72 M 25.98 420.92 L 20.79 420.92 L 20.79 415.72 M 25.98 436.51 L 5.2 436.51 L 5.2 415.72 M 31.18 415.72 L 31.18 441.7 M 46.77 415.72 L 46.77 441.7 M 25.98 420.92 L 31.18 420.92 M 25.98 436.51 L 31.18 436.51 M 51.97 420.92 L 46.77 420.92 M 51.97 436.51 L 46.77 436.51 M 57.16 415.72 L 57.16 420.92 L 51.97 420.92 M 72.75 415.72 L 72.75 436.51 L 51.97 436.51 M 83.14 415.72 L 83.14 441.7 M 98.73 415.72 L 98.73 441.7 M 129.91 420.92 L 124.72 420.92 L 124.72 415.72 M 129.91 436.51 L 109.13 436.51 L 109.13 415.72 M 129.91 436.51 L 150.7 436.51 L 150.7 420.92 L 129.91 420.92 M 176.68 441.7 L 176.68 420.92 L 161.09 420.92 L 161.09 441.7 M 202.66 441.7 L 202.66 420.92 L 187.07 420.92 L 187.07 441.7 M 213.06 415.72 L 213.06 441.7 M 233.84 420.92 L 228.65 420.92 L 228.65 415.72 M 233.84 436.51 L 228.65 436.51 L 228.65 441.7 M 233.84 420.92 L 259.83 420.92 M 233.84 436.51 L 259.83 436.51 M 239.04 415.72 L 239.04 420.92 M 254.63 415.72 L 254.63 420.92 M 239.04 436.51 L 239.04 441.7 M 254.63 436.51 L 254.63 441.7 M 259.83 436.51 L 285.81 436.51 M 265.02 415.72 L 265.02 420.92 L 259.83 420.92 M 285.81 420.92 L 280.61 420.92 L 280.61 415.72 M 291.01 415.72 L 291.01 441.7 M 306.59 415.72 L 306.59 441.7 M 285.81 420.92 L 291.01 420.92 M 285.81 436.51 L 291.01 436.51 M 311.79 420.92 L 306.59 420.92 M 311.79 436.51 L 306.59 436.51 M 332.58 415.72 L 332.58 441.7 M 316.99 415.72 L 316.99 420.92 L 311.79 420.92 M 311.79 436.51 L 316.99 436.51 L 316.99 441.7 M 358.56 441.7 L 358.56 420.92 L 342.97 420.92 L 342.97 441.7 M 389.74 420.92 L 384.54 420.92 L 384.54 415.72 M 389.74 436.51 L 368.95 436.51 L 368.95 415.72 M 394.94 415.72 L 394.94 441.7 M 410.53 415.72 L 410.53 441.7 M 389.74 420.92 L 394.94 420.92 M 389.74 436.51 L 394.94 436.51 M 415.72 420.92 L 410.53 420.92 M 415.72 436.51 L 410.53 436.51 M 415.72 436.51 L 441.7 436.51 M 420.92 415.72 L 420.92 420.92 L 415.72 420.92 M 441.7 420.92 L 436.51 420.92 L 436.51 415.72 M 441.7 420.92 L 467.69 420.92 M 441.7 436.51 L 467.69 436.51 M 446.9 415.72 L 446.9 420.92 M 462.49 415.72 L 462.49 420.92 M 446.9 436.51 L 446.9 441.7 M 462.49 436.51 L 462.49 441.7 M 467.69 436.51 L 493.67 436.51 M 472.88 415.72 L 472.88 420.92 L 467.69 420.92 M 493.67 420.92 L 488.47 420.92 L 488.47 415.72 M 493.67 420.92 L 519.65 420.92 M 493.67 436.51 L 519.65 436.51 M 498.87 415.72 L 498.87 420.92 M 514.46 415.72 L 514.46 420.92 M 498.87 436.51 L 498.87 441.7 M 514.46 436.51 L 514.46 441.7 M 519.65 420.92 L 545.63 420.92 M 519.65 436.51 L 524.85 436.51 L 524.85 441.7 M 545.63 436.51 L 540.44 436.51 L 540.44 441.7 M 550.83 415.72 L 550.83 441.7 M 566.42 415.72 L 566.42 441.7 M 545.63 420.92 L 550.83 420.92 M 545.63 436.51 L 550.83 436.51 M 571.62 420.92 L 566.42 420.92 M 571.62 436.51 L 566.42 436.51 M 576.81 415.72 L 576.81 420.92 L 571.62 420.92 M 592.4 415.72 L 592.4 436.51 L 571.62 436.51 M 25.98 462.49 L 5.2 462.49 L 5.2 446.9 L 25.98 446.9 M 46.77 441.7 L 46.77 467.69 M 31.18 441.7 L 31.18 446.9 L 25.98 446.9 M 25.98 462.49 L 31.18 462.49 L 31.18 467.69 M 77.95 462.49 L 57.16 462.49 L 57.16 446.9 L 77.95 446.9 M 77.95 446.9 L 103.93 446.9 M 77.95 462.49 L 103.93 462.49 M 83.14 441.7 L 83.14 446.9 M 98.73 441.7 L 98.73 446.9 M 83.14 462.49 L 83.14 467.69 M 98.73 462.49 L 98.73 467.69 M 103.93 446.9 L 129.91 446.9 M 103.93 462.49 L 109.13 462.49 L 109.13 467.69 M 129.91 462.49 L 124.72 462.49 L 124.72 467.69 M 129.91 462.49 L 150.7 462.49 L 150.7 446.9 L 129.91 446.9 M 161.09 441.7 L 161.09 467.69 M 181.88 446.9 L 176.68 446.9 L 176.68 441.7 M 181.88 462.49 L 176.68 462.49 L 176.68 467.69 M 187.07 441.7 L 187.07 446.9 L 181.88 446.9 M 202.66 441.7 L 202.66 462.49 L 181.88 462.49 M 213.06 441.7 L 213.06 467.69 M 228.65 441.7 L 228.65 467.69 M 239.04 441.7 L 239.04 467.69 M 254.63 441.7 L 254.63 467.69 M 285.81 462.49 L 265.02 462.49 L 265.02 446.9 L 285.81 446.9 M 306.59 441.7 L 306.59 467.69 M 291.01 441.7 L 291.01 446.9 L 285.81 446.9 M 285.81 462.49 L 291.01 462.49 L 291.01 467.69 M 337.77 446.9 L 332.58 446.9 L 332.58 441.7 M 337.77 462.49 L 316.99 462.49 L 316.99 441.7 M 342.97 441.7 L 342.97 467.69 M 358.56 441.7 L 358.56 467.69 M 337.77 446.9 L 342.97 446.9 M 337.77 462.49 L 342.97 462.49 M 363.76 446.9 L 358.56 446.9 M 363.76 462.49 L 358.56 462.49 M 363.76 462.49 L 384.54 462.49 L 384.54 446.9 L 363.76 446.9 M 394.94 441.7 L 394.94 467.69 M 410.53 441.7 L 410.53 467.69 M 436.51 467.69 L 436.51 446.9 L 420.92 446.9 L 420.92 467.69 M 446.9 441.7 L 446.9 467.69 M 462.49 441.7 L 462.49 467.69 M 488.47 467.69 L 488.47 446.9 L 472.88 446.9 L 472.88 467.69 M 498.87 441.7 L 498.87 467.69 M 514.46 441.7 L 514.46 467.69 M 545.63 446.9 L 540.44 446.9 L 540.44 441.7 M 545.63 462.49 L 524.85 462.49 L 524.85 441.7 M 550.83 441.7 L 550.83 446.9 L 545.63 446.9 M 545.63 462.49 L 550.83 462.49 L 550.83 467.69 M 571.62 446.9 L 566.42 446.9 L 566.42 441.7 M 571.62 462.49 L 566.42 462.49 L 566.42 467.69 M 571.62 462.49 L 576.81 462.49 L 576.81 467.69 M 571.62 446.9 L 592.4 446.9 L 592.4 467.69 M 25.98 488.47 L 5.2 488.47 L 5.2 472.88 L 25.98 472.88 M 25.98 472.88 L 51.97 472.88 M 25.98 488.47 L 51.97 488.47 M 31.18 467.69 L 31.18 472.88 M 46.77 467.69 L 46.77 472.88 M 31.18 488.47 L 31.18 493.67 M 46.77 488.47 L 46.77 493.67 M 51.97 472.88 L 77.95 472.88 M 51.97 488.47 L 77.95 488.47 M 77.95 488.47 L 103.93 488.47 M 83.14 467.69 L 83.14 472.88 L 77.95 472.88 M 103.93 472.88 L 98.73 472.88 L 98.73 467.69 M 103.93 472.88 L 129.91 472.88 M 103.93 488.47 L 129.91 488.47 M 109.13 467.69 L 109.13 472.88 M 124.72 467.69 L 124.72 472.88 M 109.13 488.47 L 109.13 493.67 M 124.72 488.47 L 124.72 493.67 M 129.91 488.47 L 135.11 488.47 L 135.11 493.67 M 129.91 472.88 L 150.7 472.88 L 150.7 493.67 M 181.88 472.88 L 176.68 472.88 L 176.68 467.69 M 181.88 488.47 L 161.09 488.47 L 161.09 467.69 M 181.88 472.88 L 207.86 472.88 M 181.88 488.47 L 187.07 488.47 L 187.07 493.67 M 207.86 488.47 L 202.66 488.47 L 202.66 493.67 M 207.86 472.88 L 233.84 472.88 M 207.86 488.47 L 233.84 488.47 M 213.06 467.69 L 213.06 472.88 M 228.65 467.69 L 228.65 472.88 M 213.06 488.47 L 213.06 493.67 M 228.65 488.47 L 228.65 493.67 M 239.04 467.69 L 239.04 472.88 L 233.84 472.88 M 233.84 488.47 L 239.04 488.47 L 239.04 493.67 M 259.83 472.88 L 254.63 472.88 L 254.63 467.69 M 259.83 488.47 L 254.63 488.47 L 254.63 493.67 M 259.83 472.88 L 285.81 472.88 M 259.83 488.47 L 285.81 488.47 M 285.81 472.88 L 311.79 472.88 M 285.81 488.47 L 311.79 488.47 M 291.01 467.69 L 291.01 472.88 M 306.59 467.69 L 306.59 472.88 M 291.01 488.47 L 291.01 493.67 M 306.59 488.47 L 306.59 493.67 M 311.79 488.47 L 332.58 488.47 L 332.58 472.88 L 311.79 472.88 M 342.97 467.69 L 342.97 493.67 M 358.56 467.69 L 358.56 493.67 M 389.74 488.47 L 368.95 488.47 L 368.95 472.88 L 389.74 472.88 M 389.74 472.88 L 415.72 472.88 M 389.74 488.47 L 415.72 488.47 M 394.94 467.69 L 394.94 472.88 M 410.53 467.69 L 410.53 472.88 M 394.94 488.47 L 394.94 493.67 M 410.53 488.47 L 410.53 493.67 M 415.72 488.47 L 441.7 488.47 M 420.92 467.69 L 420.92 472.88 L 415.72 472.88 M 441.7 472.88 L 436.51 472.88 L 436.51 467.69 M 446.9 467.69 L 446.9 493.67 M 462.49 467.69 L 462.49 493.67 M 441.7 472.88 L 446.9 472.88 M 441.7 488.47 L 446.9 488.47 M 467.69 472.88 L 462.49 472.88 M 467.69 488.47 L 462.49 488.47 M 467.69 488.47 L 493.67 488.47 M 472.88 467.69 L 472.88 472.88 L 467.69 472.88 M 493.67 472.88 L 488.47 472.88 L 488.47 467.69 M 498.87 467.69 L 498.87 493.67 M 514.46 467.69 L 514.46 493.67 M 493.67 472.88 L 498.87 472.88 M 493.67 488.47 L 498.87 488.47 M 519.65 472.88 L 514.46 472.88 M 519.65 488.47 L 514.46 488.47 M 519.65 488.47 L 524.85 488.47 L 524.85 493.67 M 519.65 472.88 L 540.44 472.88 L 540.44 493.67 M 550.83 467.69 L 550.83 493.67 M 566.42 467.69 L 566.42 493.67 M 592.4 467.69 L 592.4 470.62 L 592.4 488.47 L 576.81 488.47 L 576.81 467.69 M 20.79 519.65 L 20.79 498.87 L 5.2 498.87 L 5.2 519.65 M 31.18 493.67 L 31.18 519.65 M 46.77 493.67 L 46.77 519.65 M 77.95 514.46 L 57.16 514.46 L 57.16 498.87 L 77.95 498.87 M 77.95 514.46 L 83.14 514.46 L 83.14 519.65 M 77.95 498.87 L 98.73 498.87 L 98.73 519.65 M 129.91 498.87 L 124.72 498.87 L 124.72 493.67 M 129.91 514.46 L 109.13 514.46 L 109.13 493.67 M 135.11 493.67 L 135.11 519.65 M 150.7 493.67 L 150.7 519.65 M 129.91 498.87 L 135.11 498.87 M 129.91 514.46 L 135.11 514.46 M 155.9 498.87 L 150.7 498.87 M 155.9 514.46 L 150.7 514.46 M 155.9 498.87 L 181.88 498.87 M 155.9 514.46 L 161.09 514.46 L 161.09 519.65 M 181.88 514.46 L 176.68 514.46 L 176.68 519.65 M 181.88 498.87 L 207.86 498.87 M 181.88 514.46 L 207.86 514.46 M 187.07 493.67 L 187.07 498.87 M 202.66 493.67 L 202.66 498.87 M 187.07 514.46 L 187.07 519.65 M 202.66 514.46 L 202.66 519.65 M 207.86 514.46 L 233.84 514.46 M 213.06 493.67 L 213.06 498.87 L 207.86 498.87 M 233.84 498.87 L 228.65 498.87 L 228.65 493.67 M 239.04 493.67 L 239.04 519.65 M 254.63 493.67 L 254.63 519.65 M 233.84 498.87 L 239.04 498.87 M 233.84 514.46 L 239.04 514.46 M 259.83 498.87 L 254.63 498.87 M 259.83 514.46 L 254.63 514.46 M 259.83 514.46 L 280.61 514.46 L 280.61 498.87 L 259.83 498.87 M 306.59 493.67 L 306.59 496.6 L 306.59 514.46 L 291.01 514.46 L 291.01 493.67 M 337.77 514.46 L 332.58 514.46 L 332.58 519.65 M 337.77 498.87 L 316.99 498.87 L 316.99 519.65 M 337.77 498.87 L 363.76 498.87 M 337.77 514.46 L 363.76 514.46 M 342.97 493.67 L 342.97 498.87 M 358.56 493.67 L 358.56 498.87 M 342.97 514.46 L 342.97 519.65 M 358.56 514.46 L 358.56 519.65 M 363.76 498.87 L 389.74 498.87 M 363.76 514.46 L 389.74 514.46 M 410.53 493.67 L 410.53 519.65 M 394.94 493.67 L 394.94 498.87 L 389.74 498.87 M 389.74 514.46 L 394.94 514.46 L 394.94 519.65 M 441.7 514.46 L 420.92 514.46 L 420.92 498.87 L 441.7 498.87 M 446.9 493.67 L 446.9 498.87 L 441.7 498.87 M 441.7 514.46 L 446.9 514.46 L 446.9 519.65 M 467.69 498.87 L 462.49 498.87 L 462.49 493.67 M 467.69 514.46 L 462.49 514.46 L 462.49 519.65 M 467.69 514.46 L 488.47 514.46 L 488.47 498.87 L 467.69 498.87 M 498.87 493.67 L 498.87 519.65 M 519.65 498.87 L 514.46 498.87 L 514.46 493.67 M 519.65 514.46 L 514.46 514.46 L 514.46 519.65 M 519.65 514.46 L 545.63 514.46 M 524.85 493.67 L 524.85 498.87 L 519.65 498.87 M 545.63 498.87 L 540.44 498.87 L 540.44 493.67 M 550.83 493.67 L 550.83 519.65 M 566.42 493.67 L 566.42 519.65 M 545.63 498.87 L 550.83 498.87 M 545.63 514.46 L 550.83 514.46 M 571.62 498.87 L 566.42 498.87 M 571.62 514.46 L 566.42 514.46 M 571.62 514.46 L 576.81 514.46 L 576.81 519.65 M 571.62 498.87 L 592.4 498.87 L 592.4 519.65 M 25.98 524.85 L 20.79 524.85 L 20.79 519.65 M 25.98 540.44 L 5.2 540.44 L 5.2 519.65 M 31.18 519.65 L 31.18 545.63 M 46.77 519.65 L 46.77 545.63 M 25.98 524.85 L 31.18 524.85 M 25.98 540.44 L 31.18 540.44 M 51.97 524.85 L 46.77 524.85 M 51.97 540.44 L 46.77 540.44 M 51.97 524.85 L 77.95 524.85 M 51.97 540.44 L 77.95 540.44 M 83.14 519.65 L 83.14 545.63 M 98.73 519.65 L 98.73 545.63 M 77.95 524.85 L 83.14 524.85 M 77.95 540.44 L 83.14 540.44 M 103.93 524.85 L 98.73 524.85 M 103.93 540.44 L 98.73 540.44 M 103.93 540.44 L 109.13 540.44 L 109.13 545.63 M 103.93 524.85 L 124.72 524.85 L 124.72 545.63 M 155.9 524.85 L 150.7 524.85 L 150.7 519.65 M 155.9 540.44 L 135.11 540.44 L 135.11 519.65 M 161.09 519.65 L 161.09 545.63 M 176.68 519.65 L 176.68 545.63 M 155.9 524.85 L 161.09 524.85 M 155.9 540.44 L 161.09 540.44 M 181.88 524.85 L 176.68 524.85 M 181.88 540.44 L 176.68 540.44 M 202.66 519.65 L 202.66 545.63 M 187.07 519.65 L 187.07 524.85 L 181.88 524.85 M 181.88 540.44 L 187.07 540.44 L 187.07 545.63 M 233.84 540.44 L 213.06 540.44 L 213.06 524.85 L 233.84 524.85 M 239.04 519.65 L 239.04 524.85 L 233.84 524.85 M 233.84 540.44 L 239.04 540.44 L 239.04 545.63 M 259.83 524.85 L 254.63 524.85 L 254.63 519.65 M 259.83 540.44 L 254.63 540.44 L 254.63 545.63 M 259.83 540.44 L 280.61 540.44 L 280.61 524.85 L 259.83 524.85 M 311.79 540.44 L 306.59 540.44 L 306.59 545.63 M 311.79 524.85 L 291.01 524.85 L 291.01 545.63 M 311.79 524.85 L 337.77 524.85 M 311.79 540.44 L 337.77 540.44 M 316.99 519.65 L 316.99 524.85 M 332.58 519.65 L 332.58 524.85 M 316.99 540.44 L 316.99 545.63 M 332.58 540.44 L 332.58 545.63 M 342.97 519.65 L 342.97 524.85 L 337.77 524.85 M 337.77 540.44 L 342.97 540.44 L 342.97 545.63 M 363.76 524.85 L 358.56 524.85 L 358.56 519.65 M 363.76 540.44 L 358.56 540.44 L 358.56 545.63 M 363.76 524.85 L 389.74 524.85 M 363.76 540.44 L 389.74 540.44 M 394.94 519.65 L 394.94 545.63 M 410.53 519.65 L 410.53 545.63 M 389.74 524.85 L 394.94 524.85 M 389.74 540.44 L 394.94 540.44 M 415.72 524.85 L 410.53 524.85 M 415.72 540.44 L 410.53 540.44 M 415.72 524.85 L 441.7 524.85 M 415.72 540.44 L 441.7 540.44 M 441.7 524.85 L 467.69 524.85 M 441.7 540.44 L 467.69 540.44 M 446.9 519.65 L 446.9 524.85 M 462.49 519.65 L 462.49 524.85 M 446.9 540.44 L 446.9 545.63 M 462.49 540.44 L 462.49 545.63 M 467.69 524.85 L 493.67 524.85 M 467.69 540.44 L 472.88 540.44 L 472.88 545.63 M 493.67 540.44 L 488.47 540.44 L 488.47 545.63 M 498.87 519.65 L 498.87 545.63 M 514.46 519.65 L 514.46 545.63 M 493.67 524.85 L 498.87 524.85 M 493.67 540.44 L 498.87 540.44 M 519.65 524.85 L 514.46 524.85 M 519.65 540.44 L 514.46 540.44 M 519.65 540.44 L 540.44 540.44 L 540.44 524.85 L 519.65 524.85 M 566.42 519.65 L 566.42 522.58 L 566.42 540.44 L 550.83 540.44 L 550.83 519.65 M 592.4 519.65 L 592.4 522.58 L 592.4 540.44 L 576.81 540.44 L 576.81 519.65 M 20.79 571.62 L 20.79 550.83 L 5.2 550.83 L 5.2 571.62 M 46.77 545.63 L 46.77 548.56 L 46.77 566.42 L 31.18 566.42 L 31.18 545.63 M 72.75 571.62 L 72.75 550.83 L 57.16 550.83 L 57.16 571.62 M 83.14 545.63 L 83.14 571.62 M 103.93 550.83 L 98.73 550.83 L 98.73 545.63 M 103.93 566.42 L 98.73 566.42 L 98.73 571.62 M 103.93 550.83 L 129.91 550.83 M 103.93 566.42 L 129.91 566.42 M 109.13 545.63 L 109.13 550.83 M 124.72 545.63 L 124.72 550.83 M 109.13 566.42 L 109.13 571.62 M 124.72 566.42 L 124.72 571.62 M 129.91 550.83 L 155.9 550.83 M 129.91 566.42 L 135.11 566.42 L 135.11 571.62 M 155.9 566.42 L 150.7 566.42 L 150.7 571.62 M 155.9 566.42 L 181.88 566.42 M 161.09 545.63 L 161.09 550.83 L 155.9 550.83 M 181.88 550.83 L 176.68 550.83 L 176.68 545.63 M 187.07 545.63 L 187.07 571.62 M 202.66 545.63 L 202.66 571.62 M 181.88 550.83 L 187.07 550.83 M 181.88 566.42 L 187.07 566.42 M 207.86 550.83 L 202.66 550.83 M 207.86 566.42 L 202.66 566.42 M 207.86 550.83 L 233.84 550.83 M 207.86 566.42 L 213.06 566.42 L 213.06 571.62 M 233.84 566.42 L 228.65 566.42 L 228.65 571.62 M 239.04 545.63 L 239.04 571.62 M 254.63 545.63 L 254.63 571.62 M 233.84 550.83 L 239.04 550.83 M 233.84 566.42 L 239.04 566.42 M 259.83 550.83 L 254.63 550.83 M 259.83 566.42 L 254.63 566.42 M 259.83 566.42 L 265.02 566.42 L 265.02 571.62 M 259.83 550.83 L 280.61 550.83 L 280.61 571.62 M 306.59 545.63 L 306.59 548.56 L 306.59 566.42 L 291.01 566.42 L 291.01 545.63 M 337.77 550.83 L 332.58 550.83 L 332.58 545.63 M 337.77 566.42 L 316.99 566.42 L 316.99 545.63 M 337.77 550.83 L 363.76 550.83 M 337.77 566.42 L 363.76 566.42 M 342.97 545.63 L 342.97 550.83 M 358.56 545.63 L 358.56 550.83 M 342.97 566.42 L 342.97 571.62 M 358.56 566.42 L 358.56 571.62 M 363.76 566.42 L 384.54 566.42 L 384.54 550.83 L 363.76 550.83 M 394.94 545.63 L 394.94 571.62 M 410.53 545.63 L 410.53 571.62 M 436.51 571.62 L 436.51 550.83 L 420.92 550.83 L 420.92 571.62 M 462.49 545.63 L 462.49 548.56 L 462.49 566.42 L 446.9 566.42 L 446.9 545.63 M 472.88 545.63 L 472.88 571.62 M 488.47 545.63 L 488.47 571.62 M 519.65 550.83 L 514.46 550.83 L 514.46 545.63 M 519.65 566.42 L 498.87 566.42 L 498.87 545.63 M 519.65 566.42 L 524.85 566.42 L 524.85 571.62 M 519.65 550.83 L 540.44 550.83 L 540.44 571.62 M 571.62 566.42 L 566.42 566.42 L 566.42 571.62 M 571.62 550.83 L 550.83 550.83 L 550.83 571.62 M 571.62 566.42 L 592.4 566.42 L 592.4 550.83 L 571.62 550.83 M 5.2 571.62 L 5.2 597.6 M 20.79 571.62 L 20.79 597.6 M 51.97 592.4 L 31.18 592.4 L 31.18 576.81 L 51.97 576.81 M 51.97 592.4 L 77.95 592.4 M 57.16 571.62 L 57.16 576.81 L 51.97 576.81 M 77.95 576.81 L 72.75 576.81 L 72.75 571.62 M 83.14 571.62 L 83.14 597.6 M 98.73 571.62 L 98.73 597.6 M 77.95 576.81 L 83.14 576.81 M 77.95 592.4 L 83.14 592.4 M 103.93 576.81 L 98.73 576.81 M 103.93 592.4 L 98.73 592.4 M 103.93 592.4 L 129.91 592.4 M 109.13 571.62 L 109.13 576.81 L 103.93 576.81 M 129.91 576.81 L 124.72 576.81 L 124.72 571.62 M 135.11 571.62 L 135.11 597.6 M 150.7 571.62 L 150.7 597.6 M 129.91 576.81 L 135.11 576.81 M 129.91 592.4 L 135.11 592.4 M 155.9 576.81 L 150.7 576.81 M 155.9 592.4 L 150.7 592.4 M 155.9 592.4 L 161.09 592.4 L 161.09 597.6 M 155.9 576.81 L 176.68 576.81 L 176.68 597.6 M 202.66 571.62 L 202.66 574.55 L 202.66 592.4 L 187.07 592.4 L 187.07 571.62 M 233.84 576.81 L 228.65 576.81 L 228.65 571.62 M 233.84 592.4 L 213.06 592.4 L 213.06 571.62 M 239.04 571.62 L 239.04 576.81 L 233.84 576.81 M 233.84 592.4 L 239.04 592.4 L 239.04 597.6 M 259.83 576.81 L 254.63 576.81 L 254.63 571.62 M 259.83 592.4 L 254.63 592.4 L 254.63 597.6 M 259.83 576.81 L 285.81 576.81 M 259.83 592.4 L 285.81 592.4 M 265.02 571.62 L 265.02 576.81 M 280.61 571.62 L 280.61 576.81 M 265.02 592.4 L 265.02 597.6 M 280.61 592.4 L 280.61 597.6 M 285.81 592.4 L 291.01 592.4 L 291.01 597.6 M 285.81 576.81 L 306.59 576.81 L 306.59 597.6 M 337.77 592.4 L 316.99 592.4 L 316.99 576.81 L 337.77 576.81 M 358.56 571.62 L 358.56 597.6 M 342.97 571.62 L 342.97 576.81 L 337.77 576.81 M 337.77 592.4 L 342.97 592.4 L 342.97 597.6 M 389.74 592.4 L 368.95 592.4 L 368.95 576.81 L 389.74 576.81 M 389.74 576.81 L 415.72 576.81 M 389.74 592.4 L 415.72 592.4 M 394.94 571.62 L 394.94 576.81 M 410.53 571.62 L 410.53 576.81 M 394.94 592.4 L 394.94 597.6 M 410.53 592.4 L 410.53 597.6 M 420.92 571.62 L 420.92 576.81 L 415.72 576.81 M 415.72 592.4 L 420.92 592.4 L 420.92 597.6 M 441.7 576.81 L 436.51 576.81 L 436.51 571.62 M 441.7 592.4 L 436.51 592.4 L 436.51 597.6 M 441.7 576.81 L 467.69 576.81 M 441.7 592.4 L 446.9 592.4 L 446.9 597.6 M 467.69 592.4 L 462.49 592.4 L 462.49 597.6 M 467.69 576.81 L 493.67 576.81 M 467.69 592.4 L 493.67 592.4 M 472.88 571.62 L 472.88 576.81 M 488.47 571.62 L 488.47 576.81 M 472.88 592.4 L 472.88 597.6 M 488.47 592.4 L 488.47 597.6 M 493.67 576.81 L 519.65 576.81 M 493.67 592.4 L 498.87 592.4 L 498.87 597.6 M 519.65 592.4 L 514.46 592.4 L 514.46 597.6 M 519.65 576.81 L 545.63 576.81 M 519.65 592.4 L 545.63 592.4 M 524.85 571.62 L 524.85 576.81 M 540.44 571.62 L 540.44 576.81 M 524.85 592.4 L 524.85 597.6 M 540.44 592.4 L 540.44 597.6 M 550.83 571.62 L 550.83 576.81 L 545.63 576.81 M 545.63 592.4 L 550.83 592.4 L 550.83 597.6 M 571.62 576.81 L 566.42 576.81 L 566.42 571.62 M 571.62 592.4 L 566.42 592.4 L 566.42 597.6 M 571.62 592.4 L 592.4 592.4 L 592.4 576.81 L 571.62 576.81 M 5.2 597.6 L 5.2 623.58 M 20.79 597.6 L 20.79 623.58 M 46.77 623.58 L 46.77 602.8 L 31.18 602.8 L 31.18 623.58 M 77.95 618.39 L 72.75 618.39 L 72.75 623.58 M 77.95 602.8 L 57.16 602.8 L 57.16 623.58 M 83.14 597.6 L 83.14 602.8 L 77.95 602.8 M 98.73 597.6 L 98.73 618.39 L 77.95 618.39 M 124.72 623.58 L 124.72 602.8 L 109.13 602.8 L 109.13 623.58 M 155.9 602.8 L 150.7 602.8 L 150.7 597.6 M 155.9 618.39 L 135.11 618.39 L 135.11 597.6 M 161.09 597.6 L 161.09 623.58 M 176.68 597.6 L 176.68 623.58 M 155.9 602.8 L 161.09 602.8 M 155.9 618.39 L 161.09 618.39 M 181.88 602.8 L 176.68 602.8 M 181.88 618.39 L 176.68 618.39 M 181.88 618.39 L 202.66 618.39 L 202.66 602.8 L 181.88 602.8 M 233.84 618.39 L 213.06 618.39 L 213.06 602.8 L 233.84 602.8 M 233.84 602.8 L 259.83 602.8 M 233.84 618.39 L 259.83 618.39 M 239.04 597.6 L 239.04 602.8 M 254.63 597.6 L 254.63 602.8 M 239.04 618.39 L 239.04 623.58 M 254.63 618.39 L 254.63 623.58 M 259.83 618.39 L 285.81 618.39 M 265.02 597.6 L 265.02 602.8 L 259.83 602.8 M 285.81 602.8 L 280.61 602.8 L 280.61 597.6 M 291.01 597.6 L 291.01 623.58 M 306.59 597.6 L 306.59 623.58 M 285.81 602.8 L 291.01 602.8 M 285.81 618.39 L 291.01 618.39 M 311.79 602.8 L 306.59 602.8 M 311.79 618.39 L 306.59 618.39 M 311.79 618.39 L 316.99 618.39 L 316.99 623.58 M 311.79 602.8 L 332.58 602.8 L 332.58 623.58 M 358.56 597.6 L 358.56 600.53 L 358.56 618.39 L 342.97 618.39 L 342.97 597.6 M 389.74 618.39 L 384.54 618.39 L 384.54 623.58 M 389.74 602.8 L 368.95 602.8 L 368.95 623.58 M 389.74 618.39 L 415.72 618.39 M 394.94 597.6 L 394.94 602.8 L 389.74 602.8 M 415.72 602.8 L 410.53 602.8 L 410.53 597.6 M 415.72 602.8 L 441.7 602.8 M 415.72 618.39 L 441.7 618.39 M 420.92 597.6 L 420.92 602.8 M 436.51 597.6 L 436.51 602.8 M 420.92 618.39 L 420.92 623.58 M 436.51 618.39 L 436.51 623.58 M 462.49 597.6 L 462.49 623.58 M 446.9 597.6 L 446.9 602.8 L 441.7 602.8 M 441.7 618.39 L 446.9 618.39 L 446.9 623.58 M 493.67 602.8 L 488.47 602.8 L 488.47 597.6 M 493.67 618.39 L 472.88 618.39 L 472.88 597.6 M 498.87 597.6 L 498.87 623.58 M 514.46 597.6 L 514.46 623.58 M 493.67 602.8 L 498.87 602.8 M 493.67 618.39 L 498.87 618.39 M 519.65 602.8 L 514.46 602.8 M 519.65 618.39 L 514.46 618.39 M 519.65 618.39 L 545.63 618.39 M 524.85 597.6 L 524.85 602.8 L 519.65 602.8 M 545.63 602.8 L 540.44 602.8 L 540.44 597.6 M 545.63 602.8 L 571.62 602.8 M 545.63 618.39 L 571.62 618.39 M 550.83 597.6 L 550.83 602.8 M 566.42 597.6 L 566.42 602.8 M 550.83 618.39 L 550.83 623.58 M 566.42 618.39 L 566.42 623.58 M 571.62 618.39 L 592.4 618.39 L 592.4 602.8 L 571.62 602.8 M 25.98 628.78 L 20.79 628.78 L 20.79 623.58 M 25.98 644.37 L 5.2 644.37 L 5.2 623.58 M 31.18 623.58 L 31.18 628.78 L 25.98 628.78 M 25.98 644.37 L 31.18 644.37 L 31.18 649.57 M 51.97 628.78 L 46.77 628.78 L 46.77 623.58 M 51.97 644.37 L 46.77 644.37 L 46.77 649.57 M 51.97 628.78 L 77.95 628.78 M 51.97 644.37 L 77.95 644.37 M 57.16 623.58 L 57.16 628.78 M 72.75 623.58 L 72.75 628.78 M 57.16 644.37 L 57.16 649.57 M 72.75 644.37 L 72.75 649.57 M 77.95 628.78 L 103.93 628.78 M 77.95 644.37 L 103.93 644.37 M 109.13 623.58 L 109.13 649.57 M 124.72 623.58 L 124.72 649.57 M 103.93 628.78 L 109.13 628.78 M 103.93 644.37 L 109.13 644.37 M 129.91 628.78 L 124.72 628.78 M 129.91 644.37 L 124.72 644.37 M 129.91 628.78 L 155.9 628.78 M 129.91 644.37 L 135.11 644.37 L 135.11 649.57 M 155.9 644.37 L 150.7 644.37 L 150.7 649.57 M 161.09 623.58 L 161.09 628.78 L 155.9 628.78 M 176.68 623.58 L 176.68 644.37 L 155.9 644.37 M 202.66 649.57 L 202.66 628.78 L 187.07 628.78 L 187.07 649.57 M 233.84 644.37 L 213.06 644.37 L 213.06 628.78 L 233.84 628.78 M 254.63 623.58 L 254.63 649.57 M 239.04 623.58 L 239.04 628.78 L 233.84 628.78 M 233.84 644.37 L 239.04 644.37 L 239.04 649.57 M 285.81 644.37 L 265.02 644.37 L 265.02 628.78 L 285.81 628.78 M 285.81 644.37 L 311.79 644.37 M 291.01 623.58 L 291.01 628.78 L 285.81 628.78 M 311.79 628.78 L 306.59 628.78 L 306.59 623.58 M 311.79 628.78 L 337.77 628.78 M 311.79 644.37 L 337.77 644.37 M 316.99 623.58 L 316.99 628.78 M 332.58 623.58 L 332.58 628.78 M 316.99 644.37 L 316.99 649.57 M 332.58 644.37 L 332.58 649.57 M 337.77 628.78 L 363.76 628.78 M 337.77 644.37 L 363.76 644.37 M 368.95 623.58 L 368.95 649.57 M 384.54 623.58 L 384.54 649.57 M 363.76 628.78 L 368.95 628.78 M 363.76 644.37 L 368.95 644.37 M 389.74 628.78 L 384.54 628.78 M 389.74 644.37 L 384.54 644.37 M 389.74 644.37 L 394.94 644.37 L 394.94 649.57 M 389.74 628.78 L 410.53 628.78 L 410.53 649.57 M 441.7 628.78 L 436.51 628.78 L 436.51 623.58 M 441.7 644.37 L 420.92 644.37 L 420.92 623.58 M 446.9 623.58 L 446.9 649.57 M 462.49 623.58 L 462.49 649.57 M 441.7 628.78 L 446.9 628.78 M 441.7 644.37 L 446.9 644.37 M 467.69 628.78 L 462.49 628.78 M 467.69 644.37 L 462.49 644.37 M 467.69 644.37 L 472.88 644.37 L 472.88 649.57 M 467.69 628.78 L 488.47 628.78 L 488.47 649.57 M 514.46 623.58 L 514.46 626.51 L 514.46 644.37 L 498.87 644.37 L 498.87 623.58 M 545.63 644.37 L 540.44 644.37 L 540.44 649.57 M 545.63 628.78 L 524.85 628.78 L 524.85 649.57 M 545.63 644.37 L 571.62 644.37 M 550.83 623.58 L 550.83 628.78 L 545.63 628.78 M 571.62 628.78 L 566.42 628.78 L 566.42 623.58 M 571.62 644.37 L 592.4 644.37 L 592.4 628.78 L 571.62 628.78 M 25.98 670.35 L 20.79 670.35 L 20.79 675.55 M 25.98 654.76 L 5.2 654.76 L 5.2 675.55 M 25.98 654.76 L 51.97 654.76 M 25.98 670.35 L 51.97 670.35 M 31.18 649.57 L 31.18 654.76 M 46.77 649.57 L 46.77 654.76 M 31.18 670.35 L 31.18 675.55 M 46.77 670.35 L 46.77 675.55 M 72.75 649.57 L 72.75 675.55 M 57.16 649.57 L 57.16 654.76 L 51.97 654.76 M 51.97 670.35 L 57.16 670.35 L 57.16 675.55 M 98.73 675.55 L 98.73 654.76 L 83.14 654.76 L 83.14 675.55 M 129.91 654.76 L 124.72 654.76 L 124.72 649.57 M 129.91 670.35 L 109.13 670.35 L 109.13 649.57 M 135.11 649.57 L 135.11 675.55 M 150.7 649.57 L 150.7 675.55 M 129.91 654.76 L 135.11 654.76 M 129.91 670.35 L 135.11 670.35 M 155.9 654.76 L 150.7 654.76 M 155.9 670.35 L 150.7 670.35 M 155.9 654.76 L 181.88 654.76 M 155.9 670.35 L 161.09 670.35 L 161.09 675.55 M 181.88 670.35 L 176.68 670.35 L 176.68 675.55 M 187.07 649.57 L 187.07 675.55 M 202.66 649.57 L 202.66 675.55 M 181.88 654.76 L 187.07 654.76 M 181.88 670.35 L 187.07 670.35 M 207.86 654.76 L 202.66 654.76 M 207.86 670.35 L 202.66 670.35 M 207.86 654.76 L 233.84 654.76 M 207.86 670.35 L 233.84 670.35 M 239.04 649.57 L 239.04 675.55 M 254.63 649.57 L 254.63 675.55 M 233.84 654.76 L 239.04 654.76 M 233.84 670.35 L 239.04 670.35 M 259.83 654.76 L 254.63 654.76 M 259.83 670.35 L 254.63 670.35 M 259.83 654.76 L 285.81 654.76 M 259.83 670.35 L 285.81 670.35 M 285.81 670.35 L 306.59 670.35 L 306.59 654.76 L 285.81 654.76 M 316.99 649.57 L 316.99 675.55 M 337.77 654.76 L 332.58 654.76 L 332.58 649.57 M 337.77 670.35 L 332.58 670.35 L 332.58 675.55 M 337.77 670.35 L 358.56 670.35 L 358.56 654.76 L 337.77 654.76 M 368.95 649.57 L 368.95 675.55 M 389.74 654.76 L 384.54 654.76 L 384.54 649.57 M 389.74 670.35 L 384.54 670.35 L 384.54 675.55 M 389.74 654.76 L 415.72 654.76 M 389.74 670.35 L 415.72 670.35 M 394.94 649.57 L 394.94 654.76 M 410.53 649.57 L 410.53 654.76 M 394.94 670.35 L 394.94 675.55 M 410.53 670.35 L 410.53 675.55 M 415.72 670.35 L 420.92 670.35 L 420.92 675.55 M 415.72 654.76 L 436.51 654.76 L 436.51 675.55 M 467.69 654.76 L 462.49 654.76 L 462.49 649.57 M 467.69 670.35 L 446.9 670.35 L 446.9 649.57 M 467.69 654.76 L 493.67 654.76 M 467.69 670.35 L 493.67 670.35 M 472.88 649.57 L 472.88 654.76 M 488.47 649.57 L 488.47 654.76 M 472.88 670.35 L 472.88 675.55 M 488.47 670.35 L 488.47 675.55 M 493.67 654.76 L 519.65 654.76 M 493.67 670.35 L 519.65 670.35 M 524.85 649.57 L 524.85 675.55 M 540.44 649.57 L 540.44 675.55 M 519.65 654.76 L 524.85 654.76 M 519.65 670.35 L 524.85 670.35 M 545.63 654.76 L 540.44 654.76 M 545.63 670.35 L 540.44 670.35 M 545.63 654.76 L 571.62 654.76 M 545.63 670.35 L 571.62 670.35 M 571.62 670.35 L 592.4 670.35 L 592.4 654.76 L 571.62 654.76 M 20.79 675.55 L 20.79 678.48 L 20.79 696.33 L 5.2 696.33 L 5.2 675.55 M 31.18 675.55 L 31.18 701.53 M 51.97 680.74 L 46.77 680.74 L 46.77 675.55 M 51.97 696.33 L 46.77 696.33 L 46.77 701.53 M 57.16 675.55 L 57.16 701.53 M 72.75 675.55 L 72.75 701.53 M 51.97 680.74 L 57.16 680.74 M 51.97 696.33 L 57.16 696.33 M 77.95 680.74 L 72.75 680.74 M 77.95 696.33 L 72.75 696.33 M 83.14 675.55 L 83.14 680.74 L 77.95 680.74 M 98.73 675.55 L 98.73 696.33 L 77.95 696.33 M 124.72 701.53 L 124.72 680.74 L 109.13 680.74 L 109.13 701.53 M 155.9 680.74 L 150.7 680.74 L 150.7 675.55 M 155.9 696.33 L 135.11 696.33 L 135.11 675.55 M 161.09 675.55 L 161.09 701.53 M 176.68 675.55 L 176.68 701.53 M 155.9 680.74 L 161.09 680.74 M 155.9 696.33 L 161.09 696.33 M 181.88 680.74 L 176.68 680.74 M 181.88 696.33 L 176.68 696.33 M 202.66 675.55 L 202.66 701.53 M 187.07 675.55 L 187.07 680.74 L 181.88 680.74 M 181.88 696.33 L 187.07 696.33 L 187.07 701.53 M 228.65 701.53 L 228.65 680.74 L 213.06 680.74 L 213.06 701.53 M 239.04 675.55 L 239.04 701.53 M 254.63 675.55 L 254.63 701.53 M 285.81 696.33 L 265.02 696.33 L 265.02 680.74 L 285.81 680.74 M 285.81 680.74 L 311.79 680.74 M 285.81 696.33 L 291.01 696.33 L 291.01 701.53 M 311.79 696.33 L 306.59 696.33 L 306.59 701.53 M 311.79 680.74 L 337.77 680.74 M 311.79 696.33 L 337.77 696.33 M 316.99 675.55 L 316.99 680.74 M 332.58 675.55 L 332.58 680.74 M 316.99 696.33 L 316.99 701.53 M 332.58 696.33 L 332.58 701.53 M 337.77 680.74 L 363.76 680.74 M 337.77 696.33 L 363.76 696.33 M 363.76 680.74 L 389.74 680.74 M 363.76 696.33 L 389.74 696.33 M 368.95 675.55 L 368.95 680.74 M 384.54 675.55 L 384.54 680.74 M 368.95 696.33 L 368.95 701.53 M 384.54 696.33 L 384.54 701.53 M 389.74 696.33 L 415.72 696.33 M 394.94 675.55 L 394.94 680.74 L 389.74 680.74 M 415.72 680.74 L 410.53 680.74 L 410.53 675.55 M 420.92 675.55 L 420.92 701.53 M 436.51 675.55 L 436.51 701.53 M 415.72 680.74 L 420.92 680.74 M 415.72 696.33 L 420.92 696.33 M 441.7 680.74 L 436.51 680.74 M 441.7 696.33 L 436.51 696.33 M 441.7 696.33 L 462.49 696.33 L 462.49 680.74 L 441.7 680.74 M 472.88 675.55 L 472.88 701.53 M 488.47 675.55 L 488.47 701.53 M 519.65 696.33 L 498.87 696.33 L 498.87 680.74 L 519.65 680.74 M 524.85 675.55 L 524.85 680.74 L 519.65 680.74 M 540.44 675.55 L 540.44 696.33 L 519.65 696.33 M 571.62 696.33 L 566.42 696.33 L 566.42 701.53 M 571.62 680.74 L 550.83 680.74 L 550.83 701.53 M 571.62 696.33 L 592.4 696.33 L 592.4 680.74 L 571.62 680.74 M 25.98 722.32 L 5.2 722.32 L 5.2 706.73 L 25.98 706.73 M 25.98 706.73 L 51.97 706.73 M 25.98 722.32 L 51.97 722.32 M 31.18 701.53 L 31.18 706.73 M 46.77 701.53 L 46.77 706.73 M 31.18 722.32 L 31.18 727.51 M 46.77 722.32 L 46.77 727.51 M 57.16 701.53 L 57.16 706.73 L 51.97 706.73 M 72.75 701.53 L 72.75 722.32 L 51.97 722.32 M 103.93 722.32 L 98.73 722.32 L 98.73 727.51 M 103.93 706.73 L 83.14 706.73 L 83.14 727.51 M 109.13 701.53 L 109.13 727.51 M 124.72 701.53 L 124.72 727.51 M 103.93 706.73 L 109.13 706.73 M 103.93 722.32 L 109.13 722.32 M 129.91 706.73 L 124.72 706.73 M 129.91 722.32 L 124.72 722.32 M 129.91 722.32 L 135.11 722.32 L 135.11 727.51 M 129.91 706.73 L 150.7 706.73 L 150.7 727.51 M 181.88 706.73 L 176.68 706.73 L 176.68 701.53 M 181.88 722.32 L 161.09 722.32 L 161.09 701.53 M 187.07 701.53 L 187.07 727.51 M 202.66 701.53 L 202.66 727.51 M 181.88 706.73 L 187.07 706.73 M 181.88 722.32 L 187.07 722.32 M 207.86 706.73 L 202.66 706.73 M 207.86 722.32 L 202.66 722.32 M 213.06 701.53 L 213.06 706.73 L 207.86 706.73 M 207.86 722.32 L 213.06 722.32 L 213.06 727.51 M 233.84 706.73 L 228.65 706.73 L 228.65 701.53 M 233.84 722.32 L 228.65 722.32 L 228.65 727.51 M 233.84 706.73 L 259.83 706.73 M 233.84 722.32 L 259.83 722.32 M 239.04 701.53 L 239.04 706.73 M 254.63 701.53 L 254.63 706.73 M 239.04 722.32 L 239.04 727.51 M 254.63 722.32 L 254.63 727.51 M 259.83 706.73 L 285.81 706.73 M 259.83 722.32 L 285.81 722.32 M 285.81 706.73 L 311.79 706.73 M 285.81 722.32 L 311.79 722.32 M 291.01 701.53 L 291.01 706.73 M 306.59 701.53 L 306.59 706.73 M 291.01 722.32 L 291.01 727.51 M 306.59 722.32 L 306.59 727.51 M 316.99 701.53 L 316.99 706.73 L 311.79 706.73 M 332.58 701.53 L 332.58 722.32 L 311.79 722.32 M 363.76 722.32 L 358.56 722.32 L 358.56 727.51 M 363.76 706.73 L 342.97 706.73 L 342.97 727.51 M 368.95 701.53 L 368.95 706.73 L 363.76 706.73 M 384.54 701.53 L 384.54 722.32 L 363.76 722.32 M 415.72 722.32 L 410.53 722.32 L 410.53 727.51 M 415.72 706.73 L 394.94 706.73 L 394.94 727.51 M 420.92 701.53 L 420.92 706.73 L 415.72 706.73 M 436.51 701.53 L 436.51 722.32 L 415.72 722.32 M 467.69 722.32 L 462.49 722.32 L 462.49 727.51 M 467.69 706.73 L 446.9 706.73 L 446.9 727.51 M 467.69 706.73 L 493.67 706.73 M 467.69 722.32 L 493.67 722.32 M 472.88 701.53 L 472.88 706.73 M 488.47 701.53 L 488.47 706.73 M 472.88 722.32 L 472.88 727.51 M 488.47 722.32 L 488.47 727.51 M 493.67 706.73 L 519.65 706.73 M 493.67 722.32 L 498.87 722.32 L 498.87 727.51 M 519.65 722.32 L 514.46 722.32 L 514.46 727.51 M 519.65 706.73 L 545.63 706.73 M 519.65 722.32 L 545.63 722.32 M 550.83 701.53 L 550.83 727.51 M 566.42 701.53 L 566.42 727.51 M 545.63 706.73 L 550.83 706.73 M 545.63 722.32 L 550.83 722.32 M 571.62 706.73 L 566.42 706.73 M 571.62 722.32 L 566.42 722.32 M 571.62 722.32 L 592.4 722.32 L 592.4 706.73 L 571.62 706.73 M 25.98 748.3 L 5.2 748.3 L 5.2 732.71 L 25.98 732.71 M 31.18 727.51 L 31.18 732.71 L 25.98 732.71 M 25.98 748.3 L 31.18 748.3 L 31.18 753.5 M 51.97 732.71 L 46.77 732.71 L 46.77 727.51 M 51.97 748.3 L 46.77 748.3 L 46.77 753.5 M 51.97 732.71 L 77.95 732.71 M 51.97 748.3 L 77.95 748.3 M 83.14 727.51 L 83.14 753.5 M 98.73 727.51 L 98.73 753.5 M 77.95 732.71 L 83.14 732.71 M 77.95 748.3 L 83.14 748.3 M 103.93 732.71 L 98.73 732.71 M 103.93 748.3 L 98.73 748.3 M 109.13 727.51 L 109.13 732.71 L 103.93 732.71 M 124.72 727.51 L 124.72 748.3 L 103.93 748.3 M 135.11 727.51 L 135.11 753.5 M 155.9 732.71 L 150.7 732.71 L 150.7 727.51 M 155.9 748.3 L 150.7 748.3 L 150.7 753.5 M 155.9 748.3 L 176.68 748.3 L 176.68 732.71 L 155.9 732.71 M 187.07 727.51 L 187.07 753.5 M 207.86 732.71 L 202.66 732.71 L 202.66 727.51 M 207.86 748.3 L 202.66 748.3 L 202.66 753.5 M 207.86 732.71 L 233.84 732.71 M 207.86 748.3 L 233.84 748.3 M 213.06 727.51 L 213.06 732.71 M 228.65 727.51 L 228.65 732.71 M 213.06 748.3 L 213.06 753.5 M 228.65 748.3 L 228.65 753.5 M 233.84 748.3 L 259.83 748.3 M 239.04 727.51 L 239.04 732.71 L 233.84 732.71 M 259.83 732.71 L 254.63 732.71 L 254.63 727.51 M 259.83 748.3 L 280.61 748.3 L 280.61 732.71 L 259.83 732.71 M 291.01 727.51 L 291.01 753.5 M 306.59 727.51 L 306.59 753.5 M 337.77 748.3 L 316.99 748.3 L 316.99 732.71 L 337.77 732.71 M 342.97 727.51 L 342.97 753.5 M 358.56 727.51 L 358.56 753.5 M 337.77 732.71 L 342.97 732.71 M 337.77 748.3 L 342.97 748.3 M 363.76 732.71 L 358.56 732.71 M 363.76 748.3 L 358.56 748.3 M 363.76 732.71 L 389.74 732.71 M 363.76 748.3 L 389.74 748.3 M 394.94 727.51 L 394.94 753.5 M 410.53 727.51 L 410.53 753.5 M 389.74 732.71 L 394.94 732.71 M 389.74 748.3 L 394.94 748.3 M 415.72 732.71 L 410.53 732.71 M 415.72 748.3 L 410.53 748.3 M 415.72 732.71 L 441.7 732.71 M 415.72 748.3 L 441.7 748.3 M 446.9 727.51 L 446.9 753.5 M 462.49 727.51 L 462.49 753.5 M 441.7 732.71 L 446.9 732.71 M 441.7 748.3 L 446.9 748.3 M 467.69 732.71 L 462.49 732.71 M 467.69 748.3 L 462.49 748.3 M 472.88 727.51 L 472.88 732.71 L 467.69 732.71 M 467.69 748.3 L 472.88 748.3 L 472.88 753.5 M 493.67 732.71 L 488.47 732.71 L 488.47 727.51 M 493.67 748.3 L 488.47 748.3 L 488.47 753.5 M 498.87 727.51 L 498.87 753.5 M 514.46 727.51 L 514.46 753.5 M 493.67 732.71 L 498.87 732.71 M 493.67 748.3 L 498.87 748.3 M 519.65 732.71 L 514.46 732.71 M 519.65 748.3 L 514.46 748.3 M 519.65 732.71 L 545.63 732.71 M 519.65 748.3 L 524.85 748.3 L 524.85 753.5 M 545.63 748.3 L 540.44 748.3 L 540.44 753.5 M 545.63 748.3 L 571.62 748.3 M 550.83 727.51 L 550.83 732.71 L 545.63 732.71 M 571.62 732.71 L 566.42 732.71 L 566.42 727.51 M 571.62 748.3 L 592.4 748.3 L 592.4 732.71 L 571.62 732.71 M 25.98 774.28 L 5.2 774.28 L 5.2 758.69 L 25.98 758.69 M 31.18 753.5 L 31.18 758.69 L 25.98 758.69 M 46.77 753.5 L 46.77 774.28 L 25.98 774.28 M 77.95 774.28 L 57.16 774.28 L 57.16 758.69 L 77.95 758.69 M 83.14 753.5 L 83.14 758.69 L 77.95 758.69 M 98.73 753.5 L 98.73 774.28 L 77.95 774.28 M 129.91 774.28 L 109.13 774.28 L 109.13 758.69 L 129.91 758.69 M 129.91 774.28 L 155.9 774.28 M 135.11 753.5 L 135.11 758.69 L 129.91 758.69 M 155.9 758.69 L 150.7 758.69 L 150.7 753.5 M 155.9 758.69 L 181.88 758.69 M 155.9 774.28 L 181.88 774.28 M 187.07 753.5 L 187.07 758.69 L 181.88 758.69 M 202.66 753.5 L 202.66 774.28 L 181.88 774.28 M 233.84 758.69 L 228.65 758.69 L 228.65 753.5 M 233.84 774.28 L 213.06 774.28 L 213.06 753.5 M 233.84 774.28 L 254.63 774.28 L 254.63 758.69 L 233.84 758.69 M 285.81 774.28 L 265.02 774.28 L 265.02 758.69 L 285.81 758.69 M 285.81 774.28 L 311.79 774.28 M 291.01 753.5 L 291.01 758.69 L 285.81 758.69 M 311.79 758.69 L 306.59 758.69 L 306.59 753.5 M 311.79 774.28 L 332.58 774.28 L 332.58 758.69 L 311.79 758.69 M 358.56 753.5 L 358.56 756.42 L 358.56 774.28 L 342.97 774.28 L 342.97 753.5 M 389.74 774.28 L 368.95 774.28 L 368.95 758.69 L 389.74 758.69 M 394.94 753.5 L 394.94 758.69 L 389.74 758.69 M 410.53 753.5 L 410.53 774.28 L 389.74 774.28 M 441.7 774.28 L 420.92 774.28 L 420.92 758.69 L 441.7 758.69 M 441.7 774.28 L 467.69 774.28 M 446.9 753.5 L 446.9 758.69 L 441.7 758.69 M 467.69 758.69 L 462.49 758.69 L 462.49 753.5 M 472.88 753.5 L 472.88 758.69 L 467.69 758.69 M 488.47 753.5 L 488.47 774.28 L 467.69 774.28 M 514.46 753.5 L 514.46 756.42 L 514.46 774.28 L 498.87 774.28 L 498.87 753.5 M 545.63 758.69 L 540.44 758.69 L 540.44 753.5 M 545.63 774.28 L 524.85 774.28 L 524.85 753.5 M 545.63 758.69 L 571.62 758.69 M 545.63 774.28 L 571.62 774.28 " /> <circle cx="12.99" cy="12.99" r="8.66" fill-opacity="1.0" stroke-opacity="0" fill="#E51919" /><circle cx="584.61" cy="766.49" r="8.66" fill-opacity="1.0" stroke-opacity="0" fill="#E51919" />  </svg>