<svg id="maze" xmlns="http://www.w3.org/2000/svg" viewBox="0 0 597.6 814.9090909090909"  width="597.6px" height="814.9090909090909px" stroke-width="2" fill-opacity="0.0" stroke="black"> <path stroke-opacity="1.0" stroke-width="2" stroke="#000000" d="M 27.16 21.73 L 32.6 21.73 L 32.6 27.16 M 27.16 5.43 L 48.89 5.43 L 48.89 27.16 M 81.49 21.73 L 59.76 21.73 L 59.76 5.43 L 81.49 5.43 M 81.49 5.43 L 108.65 5.43 M 81.49 21.73 L 108.65 21.73 M 108.65 5.43 L 135.82 5.43 M 108.65 21.73 L 135.82 21.73 M 135.82 5.43 L 162.98 5.43 M 135.82 21.73 L 141.25 21.73 L 141.25 27.16 M 162.98 21.73 L 157.55 21.73 L 157.55 27.16 M 162.98 21.73 L 184.71 21.73 L 184.71 5.43 L 162.98 5.43 M 217.31 21.73 L 211.88 21.73 L 211.88 27.16 M 217.31 5.43 L 195.58 5.43 L 195.58 27.16 M 217.31 21.73 L 239.04 21.73 L 239.04 5.43 L 217.31 5.43 M 271.64 21.73 L 249.91 21.73 L 249.91 5.43 L 271.64 5.43 M 271.64 5.43 L 298.8 5.43 M 271.64 21.73 L 277.07 21.73 L 277.07 27.16 M 298.8 21.73 L 293.37 21.73 L 293.37 27.16 M 298.8 21.73 L 304.23 21.73 L 304.23 27.16 M 298.8 5.43 L 320.53 5.43 L 320.53 27.16 M 353.13 21.73 L 331.4 21.73 L 331.4 5.43 L 353.13 5.43 M 353.13 5.43 L 380.29 5.43 M 353.13 21.73 L 358.56 21.73 L 358.56 27.16 M 380.29 21.73 L 374.86 21.73 L 374.86 27.16 M 380.29 21.73 L 402.02 21.73 L 402.02 5.43 L 380.29 5.43 M 434.62 21.73 L 429.19 21.73 L 429.19 27.16 M 434.62 5.43 L 412.89 5.43 L 412.89 27.16 M 434.62 5.43 L 461.78 5.43 M 434.62 21.73 L 440.05 21.73 L 440.05 27.16 M 461.78 21.73 L 456.35 21.73 L 456.35 27.16 M 461.78 21.73 L 467.21 21.73 L 467.21 27.16 M 461.78 5.43 L 483.51 5.43 L 483.51 27.16 M 516.11 21.73 L 510.68 21.73 L 510.68 27.16 M 516.11 5.43 L 494.38 5.43 L 494.38 27.16 M 516.11 21.73 L 537.84 21.73 L 537.84 5.43 L 516.11 5.43 M 27.16 48.89 L 5.43 48.89 L 5.43 32.6 L 27.16 32.6 M 27.16 32.6 L 54.33 32.6 M 27.16 48.89 L 54.33 48.89 M 32.6 27.16 L 32.6 32.6 M 48.89 27.16 L 48.89 32.6 M 32.6 48.89 L 32.6 54.33 M 48.89 48.89 L 48.89 54.33 M 54.33 32.6 L 81.49 32.6 M 54.33 48.89 L 81.49 48.89 M 81.49 48.89 L 86.92 48.89 L 86.92 54.33 M 81.49 32.6 L 103.22 32.6 L 103.22 54.33 M 135.82 48.89 L 114.09 48.89 L 114.09 32.6 L 135.82 32.6 M 141.25 27.16 L 141.25 54.33 M 157.55 27.16 L 157.55 54.33 M 135.82 32.6 L 141.25 32.6 M 135.82 48.89 L 141.25 48.89 M 162.98 32.6 L 157.55 32.6 M 162.98 48.89 L 157.55 48.89 M 162.98 32.6 L 190.15 32.6 M 162.98 48.89 L 168.41 48.89 L 168.41 54.33 M 190.15 48.89 L 184.71 48.89 L 184.71 54.33 M 195.58 27.16 L 195.58 54.33 M 211.88 27.16 L 211.88 54.33 M 190.15 32.6 L 195.58 32.6 M 190.15 48.89 L 195.58 48.89 M 217.31 32.6 L 211.88 32.6 M 217.31 48.89 L 211.88 48.89 M 217.31 48.89 L 222.74 48.89 L 222.74 54.33 M 217.31 32.6 L 239.04 32.6 L 239.04 54.33 M 266.2 54.33 L 266.2 32.6 L 249.91 32.6 L 249.91 54.33 M 277.07 27.16 L 277.07 54.33 M 293.37 27.16 L 293.37 54.33 M 320.53 27.16 L 320.53 30.23 L 320.53 48.89 L 304.23 48.89 L 304.23 27.16 M 353.13 48.89 L 347.69 48.89 L 347.69 54.33 M 353.13 32.6 L 331.4 32.6 L 331.4 54.33 M 353.13 32.6 L 380.29 32.6 M 353.13 48.89 L 380.29 48.89 M 358.56 27.16 L 358.56 32.6 M 374.86 27.16 L 374.86 32.6 M 358.56 48.89 L 358.56 54.33 M 374.86 48.89 L 374.86 54.33 M 380.29 48.89 L 385.72 48.89 L 385.72 54.33 M 380.29 32.6 L 402.02 32.6 L 402.02 54.33 M 429.19 27.16 L 429.19 30.23 L 429.19 48.89 L 412.89 48.89 L 412.89 27.16 M 461.78 32.6 L 456.35 32.6 L 456.35 27.16 M 461.78 48.89 L 440.05 48.89 L 440.05 27.16 M 461.78 32.6 L 488.95 32.6 M 461.78 48.89 L 488.95 48.89 M 467.21 27.16 L 467.21 32.6 M 483.51 27.16 L 483.51 32.6 M 467.21 48.89 L 467.21 54.33 M 483.51 48.89 L 483.51 54.33 M 494.38 27.16 L 494.38 32.6 L 488.95 32.6 M 488.95 48.89 L 494.38 48.89 L 494.38 54.33 M 516.11 32.6 L 510.68 32.6 L 510.68 27.16 M 516.11 48.89 L 510.68 48.89 L 510.68 54.33 M 516.11 48.89 L 537.84 48.89 L 537.84 32.6 L 516.11 32.6 M 27.16 76.06 L 5.43 76.06 L 5.43 59.76 L 27.16 59.76 M 48.89 54.33 L 48.89 81.49 M 32.6 54.33 L 32.6 59.76 L 27.16 59.76 M 27.16 76.06 L 32.6 76.06 L 32.6 81.49 M 81.49 76.06 L 76.06 76.06 L 76.06 81.49 M 81.49 59.76 L 59.76 59.76 L 59.76 81.49 M 86.92 54.33 L 86.92 81.49 M 103.22 54.33 L 103.22 81.49 M 81.49 59.76 L 86.92 59.76 M 81.49 76.06 L 86.92 76.06 M 108.65 59.76 L 103.22 59.76 M 108.65 76.06 L 103.22 76.06 M 108.65 59.76 L 135.82 59.76 M 108.65 76.06 L 135.82 76.06 M 141.25 54.33 L 141.25 59.76 L 135.82 59.76 M 135.82 76.06 L 141.25 76.06 L 141.25 81.49 M 162.98 59.76 L 157.55 59.76 L 157.55 54.33 M 162.98 76.06 L 157.55 76.06 L 157.55 81.49 M 162.98 59.76 L 190.15 59.76 M 162.98 76.06 L 190.15 76.06 M 168.41 54.33 L 168.41 59.76 M 184.71 54.33 L 184.71 59.76 M 168.41 76.06 L 168.41 81.49 M 184.71 76.06 L 184.71 81.49 M 195.58 54.33 L 195.58 59.76 L 190.15 59.76 M 190.15 76.06 L 195.58 76.06 L 195.58 81.49 M 217.31 59.76 L 211.88 59.76 L 211.88 54.33 M 217.31 76.06 L 211.88 76.06 L 211.88 81.49 M 217.31 59.76 L 244.47 59.76 M 217.31 76.06 L 244.47 76.06 M 222.74 54.33 L 222.74 59.76 M 239.04 54.33 L 239.04 59.76 M 222.74 76.06 L 222.74 81.49 M 239.04 76.06 L 239.04 81.49 M 249.91 54.33 L 249.91 59.76 L 244.47 59.76 M 244.47 76.06 L 249.91 76.06 L 249.91 81.49 M 271.64 59.76 L 266.2 59.76 L 266.2 54.33 M 271.64 76.06 L 266.2 76.06 L 266.2 81.49 M 277.07 54.33 L 277.07 81.49 M 293.37 54.33 L 293.37 81.49 M 271.64 59.76 L 277.07 59.76 M 271.64 76.06 L 277.07 76.06 M 298.8 59.76 L 293.37 59.76 M 298.8 76.06 L 293.37 76.06 M 298.8 59.76 L 325.96 59.76 M 298.8 76.06 L 325.96 76.06 M 331.4 54.33 L 331.4 81.49 M 347.69 54.33 L 347.69 81.49 M 325.96 59.76 L 331.4 59.76 M 325.96 76.06 L 331.4 76.06 M 353.13 59.76 L 347.69 59.76 M 353.13 76.06 L 347.69 76.06 M 358.56 54.33 L 358.56 59.76 L 353.13 59.76 M 374.86 54.33 L 374.86 76.06 L 353.13 76.06 M 402.02 54.33 L 402.02 57.39 L 402.02 76.06 L 385.72 76.06 L 385.72 54.33 M 429.19 81.49 L 429.19 59.76 L 412.89 59.76 L 412.89 81.49 M 456.35 81.49 L 456.35 59.76 L 440.05 59.76 L 440.05 81.49 M 488.95 59.76 L 483.51 59.76 L 483.51 54.33 M 488.95 76.06 L 467.21 76.06 L 467.21 54.33 M 488.95 59.76 L 516.11 59.76 M 488.95 76.06 L 516.11 76.06 M 494.38 54.33 L 494.38 59.76 M 510.68 54.33 L 510.68 59.76 M 494.38 76.06 L 494.38 81.49 M 510.68 76.06 L 510.68 81.49 M 516.11 76.06 L 537.84 76.06 L 537.84 59.76 L 516.11 59.76 M 27.16 103.22 L 5.43 103.22 L 5.43 86.92 L 27.16 86.92 M 32.6 81.49 L 32.6 108.65 M 48.89 81.49 L 48.89 108.65 M 27.16 86.92 L 32.6 86.92 M 27.16 103.22 L 32.6 103.22 M 54.33 86.92 L 48.89 86.92 M 54.33 103.22 L 48.89 103.22 M 59.76 81.49 L 59.76 86.92 L 54.33 86.92 M 76.06 81.49 L 76.06 103.22 L 54.33 103.22 M 86.92 81.49 L 86.92 108.65 M 103.22 81.49 L 103.22 108.65 M 135.82 103.22 L 114.09 103.22 L 114.09 86.92 L 135.82 86.92 M 141.25 81.49 L 141.25 108.65 M 157.55 81.49 L 157.55 108.65 M 135.82 86.92 L 141.25 86.92 M 135.82 103.22 L 141.25 103.22 M 162.98 86.92 L 157.55 86.92 M 162.98 103.22 L 157.55 103.22 M 184.71 81.49 L 184.71 108.65 M 168.41 81.49 L 168.41 86.92 L 162.98 86.92 M 162.98 103.22 L 168.41 103.22 L 168.41 108.65 M 211.88 81.49 L 211.88 84.55 L 211.88 103.22 L 195.58 103.22 L 195.58 81.49 M 222.74 81.49 L 222.74 108.65 M 239.04 81.49 L 239.04 108.65 M 271.64 86.92 L 266.2 86.92 L 266.2 81.49 M 271.64 103.22 L 249.91 103.22 L 249.91 81.49 M 271.64 103.22 L 298.8 103.22 M 277.07 81.49 L 277.07 86.92 L 271.64 86.92 M 298.8 86.92 L 293.37 86.92 L 293.37 81.49 M 298.8 103.22 L 320.53 103.22 L 320.53 86.92 L 298.8 86.92 M 331.4 81.49 L 331.4 108.65 M 353.13 86.92 L 347.69 86.92 L 347.69 81.49 M 353.13 103.22 L 347.69 103.22 L 347.69 108.65 M 353.13 103.22 L 374.86 103.22 L 374.86 86.92 L 353.13 86.92 M 407.45 103.22 L 402.02 103.22 L 402.02 108.65 M 407.45 86.92 L 385.72 86.92 L 385.72 108.65 M 412.89 81.49 L 412.89 86.92 L 407.45 86.92 M 407.45 103.22 L 412.89 103.22 L 412.89 108.65 M 434.62 86.92 L 429.19 86.92 L 429.19 81.49 M 434.62 103.22 L 429.19 103.22 L 429.19 108.65 M 434.62 86.92 L 461.78 86.92 M 434.62 103.22 L 461.78 103.22 M 440.05 81.49 L 440.05 86.92 M 456.35 81.49 L 456.35 86.92 M 440.05 103.22 L 440.05 108.65 M 456.35 103.22 L 456.35 108.65 M 461.78 103.22 L 467.21 103.22 L 467.21 108.65 M 461.78 86.92 L 483.51 86.92 L 483.51 108.65 M 516.11 86.92 L 510.68 86.92 L 510.68 81.49 M 516.11 103.22 L 494.38 103.22 L 494.38 81.49 M 516.11 103.22 L 521.54 103.22 L 521.54 108.65 M 516.11 86.92 L 537.84 86.92 L 537.84 108.65 M 27.16 130.39 L 21.73 130.39 L 21.73 135.82 M 27.16 114.09 L 5.43 114.09 L 5.43 135.82 M 48.89 108.65 L 48.89 135.82 M 32.6 108.65 L 32.6 114.09 L 27.16 114.09 M 27.16 130.39 L 32.6 130.39 L 32.6 135.82 M 81.49 130.39 L 59.76 130.39 L 59.76 114.09 L 81.49 114.09 M 86.92 108.65 L 86.92 135.82 M 103.22 108.65 L 103.22 135.82 M 81.49 114.09 L 86.92 114.09 M 81.49 130.39 L 86.92 130.39 M 108.65 114.09 L 103.22 114.09 M 108.65 130.39 L 103.22 130.39 M 108.65 130.39 L 114.09 130.39 L 114.09 135.82 M 108.65 114.09 L 130.39 114.09 L 130.39 135.82 M 141.25 108.65 L 141.25 135.82 M 162.98 114.09 L 157.55 114.09 L 157.55 108.65 M 162.98 130.39 L 157.55 130.39 L 157.55 135.82 M 162.98 114.09 L 190.15 114.09 M 162.98 130.39 L 190.15 130.39 M 168.41 108.65 L 168.41 114.09 M 184.71 108.65 L 184.71 114.09 M 168.41 130.39 L 168.41 135.82 M 184.71 130.39 L 184.71 135.82 M 190.15 114.09 L 217.31 114.09 M 190.15 130.39 L 217.31 130.39 M 217.31 114.09 L 244.47 114.09 M 217.31 130.39 L 244.47 130.39 M 222.74 108.65 L 222.74 114.09 M 239.04 108.65 L 239.04 114.09 M 222.74 130.39 L 222.74 135.82 M 239.04 130.39 L 239.04 135.82 M 244.47 130.39 L 266.2 130.39 L 266.2 114.09 L 244.47 114.09 M 293.37 135.82 L 293.37 114.09 L 277.07 114.09 L 277.07 135.82 M 325.96 130.39 L 304.23 130.39 L 304.23 114.09 L 325.96 114.09 M 325.96 114.09 L 353.13 114.09 M 325.96 130.39 L 353.13 130.39 M 331.4 108.65 L 331.4 114.09 M 347.69 108.65 L 347.69 114.09 M 331.4 130.39 L 331.4 135.82 M 347.69 130.39 L 347.69 135.82 M 353.13 114.09 L 380.29 114.09 M 353.13 130.39 L 358.56 130.39 L 358.56 135.82 M 380.29 130.39 L 374.86 130.39 L 374.86 135.82 M 380.29 114.09 L 407.45 114.09 M 380.29 130.39 L 407.45 130.39 M 385.72 108.65 L 385.72 114.09 M 402.02 108.65 L 402.02 114.09 M 385.72 130.39 L 385.72 135.82 M 402.02 130.39 L 402.02 135.82 M 429.19 108.65 L 429.19 135.82 M 412.89 108.65 L 412.89 114.09 L 407.45 114.09 M 407.45 130.39 L 412.89 130.39 L 412.89 135.82 M 440.05 108.65 L 440.05 135.82 M 461.78 114.09 L 456.35 114.09 L 456.35 108.65 M 461.78 130.39 L 456.35 130.39 L 456.35 135.82 M 461.78 114.09 L 488.95 114.09 M 461.78 130.39 L 488.95 130.39 M 467.21 108.65 L 467.21 114.09 M 483.51 108.65 L 483.51 114.09 M 467.21 130.39 L 467.21 135.82 M 483.51 130.39 L 483.51 135.82 M 488.95 130.39 L 510.68 130.39 L 510.68 114.09 L 488.95 114.09 M 521.54 108.65 L 521.54 135.82 M 537.84 108.65 L 537.84 135.82 M 27.16 141.25 L 21.73 141.25 L 21.73 135.82 M 27.16 157.55 L 5.43 157.55 L 5.43 135.82 M 27.16 141.25 L 54.33 141.25 M 27.16 157.55 L 54.33 157.55 M 32.6 135.82 L 32.6 141.25 M 48.89 135.82 L 48.89 141.25 M 32.6 157.55 L 32.6 162.98 M 48.89 157.55 L 48.89 162.98 M 54.33 157.55 L 59.76 157.55 L 59.76 162.98 M 54.33 141.25 L 76.06 141.25 L 76.06 162.98 M 86.92 135.82 L 86.92 162.98 M 103.22 135.82 L 103.22 162.98 M 114.09 135.82 L 114.09 162.98 M 135.82 141.25 L 130.39 141.25 L 130.39 135.82 M 135.82 157.55 L 130.39 157.55 L 130.39 162.98 M 135.82 141.25 L 162.98 141.25 M 135.82 157.55 L 162.98 157.55 M 141.25 135.82 L 141.25 141.25 M 157.55 135.82 L 157.55 141.25 M 141.25 157.55 L 141.25 162.98 M 157.55 157.55 L 157.55 162.98 M 168.41 135.82 L 168.41 141.25 L 162.98 141.25 M 184.71 135.82 L 184.71 157.55 L 162.98 157.55 M 211.88 162.98 L 211.88 141.25 L 195.58 141.25 L 195.58 162.98 M 239.04 135.82 L 239.04 138.88 L 239.04 157.55 L 222.74 157.55 L 222.74 135.82 M 271.64 157.55 L 249.91 157.55 L 249.91 141.25 L 271.64 141.25 M 277.07 135.82 L 277.07 162.98 M 293.37 135.82 L 293.37 162.98 M 271.64 141.25 L 277.07 141.25 M 271.64 157.55 L 277.07 157.55 M 298.8 141.25 L 293.37 141.25 M 298.8 157.55 L 293.37 157.55 M 298.8 157.55 L 304.23 157.55 L 304.23 162.98 M 298.8 141.25 L 320.53 141.25 L 320.53 162.98 M 331.4 135.82 L 331.4 162.98 M 347.69 135.82 L 347.69 162.98 M 374.86 135.82 L 374.86 138.88 L 374.86 157.55 L 358.56 157.55 L 358.56 135.82 M 385.72 135.82 L 385.72 162.98 M 407.45 141.25 L 402.02 141.25 L 402.02 135.82 M 407.45 157.55 L 402.02 157.55 L 402.02 162.98 M 407.45 141.25 L 434.62 141.25 M 407.45 157.55 L 434.62 157.55 M 412.89 135.82 L 412.89 141.25 M 429.19 135.82 L 429.19 141.25 M 412.89 157.55 L 412.89 162.98 M 429.19 157.55 L 429.19 162.98 M 456.35 135.82 L 456.35 162.98 M 440.05 135.82 L 440.05 141.25 L 434.62 141.25 M 434.62 157.55 L 440.05 157.55 L 440.05 162.98 M 467.21 135.82 L 467.21 162.98 M 483.51 135.82 L 483.51 162.98 M 510.68 162.98 L 510.68 141.25 L 494.38 141.25 L 494.38 162.98 M 521.54 135.82 L 521.54 162.98 M 537.84 135.82 L 537.84 162.98 M 27.16 184.71 L 5.43 184.71 L 5.43 168.41 L 27.16 168.41 M 48.89 162.98 L 48.89 190.15 M 32.6 162.98 L 32.6 168.41 L 27.16 168.41 M 27.16 184.71 L 32.6 184.71 L 32.6 190.15 M 76.06 162.98 L 76.06 166.04 L 76.06 184.71 L 59.76 184.71 L 59.76 162.98 M 86.92 162.98 L 86.92 190.15 M 108.65 168.41 L 103.22 168.41 L 103.22 162.98 M 108.65 184.71 L 103.22 184.71 L 103.22 190.15 M 108.65 168.41 L 135.82 168.41 M 108.65 184.71 L 135.82 184.71 M 114.09 162.98 L 114.09 168.41 M 130.39 162.98 L 130.39 168.41 M 114.09 184.71 L 114.09 190.15 M 130.39 184.71 L 130.39 190.15 M 157.55 162.98 L 157.55 190.15 M 141.25 162.98 L 141.25 168.41 L 135.82 168.41 M 135.82 184.71 L 141.25 184.71 L 141.25 190.15 M 190.15 184.71 L 168.41 184.71 L 168.41 168.41 L 190.15 168.41 M 190.15 168.41 L 217.31 168.41 M 190.15 184.71 L 217.31 184.71 M 195.58 162.98 L 195.58 168.41 M 211.88 162.98 L 211.88 168.41 M 195.58 184.71 L 195.58 190.15 M 211.88 184.71 L 211.88 190.15 M 217.31 184.71 L 222.74 184.71 L 222.74 190.15 M 217.31 168.41 L 239.04 168.41 L 239.04 190.15 M 271.64 184.71 L 249.91 184.71 L 249.91 168.41 L 271.64 168.41 M 293.37 162.98 L 293.37 190.15 M 277.07 162.98 L 277.07 168.41 L 271.64 168.41 M 271.64 184.71 L 277.07 184.71 L 277.07 190.15 M 325.96 168.41 L 320.53 168.41 L 320.53 162.98 M 325.96 184.71 L 304.23 184.71 L 304.23 162.98 M 325.96 168.41 L 353.13 168.41 M 325.96 184.71 L 353.13 184.71 M 331.4 162.98 L 331.4 168.41 M 347.69 162.98 L 347.69 168.41 M 331.4 184.71 L 331.4 190.15 M 347.69 184.71 L 347.69 190.15 M 353.13 168.41 L 380.29 168.41 M 353.13 184.71 L 380.29 184.71 M 385.72 162.98 L 385.72 190.15 M 402.02 162.98 L 402.02 190.15 M 380.29 168.41 L 385.72 168.41 M 380.29 184.71 L 385.72 184.71 M 407.45 168.41 L 402.02 168.41 M 407.45 184.71 L 402.02 184.71 M 412.89 162.98 L 412.89 168.41 L 407.45 168.41 M 429.19 162.98 L 429.19 184.71 L 407.45 184.71 M 440.05 162.98 L 440.05 190.15 M 456.35 162.98 L 456.35 190.15 M 488.95 168.41 L 483.51 168.41 L 483.51 162.98 M 488.95 184.71 L 467.21 184.71 L 467.21 162.98 M 488.95 168.41 L 516.11 168.41 M 488.95 184.71 L 516.11 184.71 M 494.38 162.98 L 494.38 168.41 M 510.68 162.98 L 510.68 168.41 M 494.38 184.71 L 494.38 190.15 M 510.68 184.71 L 510.68 190.15 M 537.84 162.98 L 537.84 190.15 M 521.54 162.98 L 521.54 168.41 L 516.11 168.41 M 516.11 184.71 L 521.54 184.71 L 521.54 190.15 M 27.16 211.88 L 5.43 211.88 L 5.43 195.58 L 27.16 195.58 M 27.16 195.58 L 54.33 195.58 M 27.16 211.88 L 54.33 211.88 M 32.6 190.15 L 32.6 195.58 M 48.89 190.15 L 48.89 195.58 M 32.6 211.88 L 32.6 217.31 M 48.89 211.88 L 48.89 217.31 M 54.33 195.58 L 81.49 195.58 M 54.33 211.88 L 59.76 211.88 L 59.76 217.31 M 81.49 211.88 L 76.06 211.88 L 76.06 217.31 M 81.49 195.58 L 108.65 195.58 M 81.49 211.88 L 108.65 211.88 M 86.92 190.15 L 86.92 195.58 M 103.22 190.15 L 103.22 195.58 M 86.92 211.88 L 86.92 217.31 M 103.22 211.88 L 103.22 217.31 M 108.65 211.88 L 135.82 211.88 M 114.09 190.15 L 114.09 195.58 L 108.65 195.58 M 135.82 195.58 L 130.39 195.58 L 130.39 190.15 M 135.82 195.58 L 162.98 195.58 M 135.82 211.88 L 162.98 211.88 M 141.25 190.15 L 141.25 195.58 M 157.55 190.15 L 157.55 195.58 M 141.25 211.88 L 141.25 217.31 M 157.55 211.88 L 157.55 217.31 M 162.98 211.88 L 184.71 211.88 L 184.71 195.58 L 162.98 195.58 M 217.31 195.58 L 211.88 195.58 L 211.88 190.15 M 217.31 211.88 L 195.58 211.88 L 195.58 190.15 M 217.31 211.88 L 244.47 211.88 M 222.74 190.15 L 222.74 195.58 L 217.31 195.58 M 244.47 195.58 L 239.04 195.58 L 239.04 190.15 M 244.47 195.58 L 271.64 195.58 M 244.47 211.88 L 271.64 211.88 M 277.07 190.15 L 277.07 217.31 M 293.37 190.15 L 293.37 217.31 M 271.64 195.58 L 277.07 195.58 M 271.64 211.88 L 277.07 211.88 M 298.8 195.58 L 293.37 195.58 M 298.8 211.88 L 293.37 211.88 M 298.8 211.88 L 304.23 211.88 L 304.23 217.31 M 298.8 195.58 L 320.53 195.58 L 320.53 217.31 M 353.13 195.58 L 347.69 195.58 L 347.69 190.15 M 353.13 211.88 L 331.4 211.88 L 331.4 190.15 M 353.13 211.88 L 358.56 211.88 L 358.56 217.31 M 353.13 195.58 L 374.86 195.58 L 374.86 217.31 M 402.02 190.15 L 402.02 193.21 L 402.02 211.88 L 385.72 211.88 L 385.72 190.15 M 434.62 211.88 L 412.89 211.88 L 412.89 195.58 L 434.62 195.58 M 434.62 195.58 L 461.78 195.58 M 434.62 211.88 L 461.78 211.88 M 440.05 190.15 L 440.05 195.58 M 456.35 190.15 L 456.35 195.58 M 440.05 211.88 L 440.05 217.31 M 456.35 211.88 L 456.35 217.31 M 461.78 211.88 L 467.21 211.88 L 467.21 217.31 M 461.78 195.58 L 483.51 195.58 L 483.51 217.31 M 516.11 195.58 L 510.68 195.58 L 510.68 190.15 M 516.11 211.88 L 494.38 211.88 L 494.38 190.15 M 521.54 190.15 L 521.54 195.58 L 516.11 195.58 M 537.84 190.15 L 537.84 211.88 L 516.11 211.88 M 27.16 239.04 L 21.73 239.04 L 21.73 244.47 M 27.16 222.74 L 5.43 222.74 L 5.43 244.47 M 32.6 217.31 L 32.6 222.74 L 27.16 222.74 M 27.16 239.04 L 32.6 239.04 L 32.6 244.47 M 54.33 222.74 L 48.89 222.74 L 48.89 217.31 M 54.33 239.04 L 48.89 239.04 L 48.89 244.47 M 59.76 217.31 L 59.76 244.47 M 76.06 217.31 L 76.06 244.47 M 54.33 222.74 L 59.76 222.74 M 54.33 239.04 L 59.76 239.04 M 81.49 222.74 L 76.06 222.74 M 81.49 239.04 L 76.06 239.04 M 103.22 217.31 L 103.22 244.47 M 86.92 217.31 L 86.92 222.74 L 81.49 222.74 M 81.49 239.04 L 86.92 239.04 L 86.92 244.47 M 135.82 239.04 L 114.09 239.04 L 114.09 222.74 L 135.82 222.74 M 141.25 217.31 L 141.25 222.74 L 135.82 222.74 M 135.82 239.04 L 141.25 239.04 L 141.25 244.47 M 162.98 222.74 L 157.55 222.74 L 157.55 217.31 M 162.98 239.04 L 157.55 239.04 L 157.55 244.47 M 162.98 222.74 L 190.15 222.74 M 162.98 239.04 L 168.41 239.04 L 168.41 244.47 M 190.15 239.04 L 184.71 239.04 L 184.71 244.47 M 190.15 239.04 L 195.58 239.04 L 195.58 244.47 M 190.15 222.74 L 211.88 222.74 L 211.88 244.47 M 244.47 239.04 L 239.04 239.04 L 239.04 244.47 M 244.47 222.74 L 222.74 222.74 L 222.74 244.47 M 244.47 239.04 L 266.2 239.04 L 266.2 222.74 L 244.47 222.74 M 277.07 217.31 L 277.07 244.47 M 298.8 222.74 L 293.37 222.74 L 293.37 217.31 M 298.8 239.04 L 293.37 239.04 L 293.37 244.47 M 304.23 217.31 L 304.23 244.47 M 320.53 217.31 L 320.53 244.47 M 298.8 222.74 L 304.23 222.74 M 298.8 239.04 L 304.23 239.04 M 325.96 222.74 L 320.53 222.74 M 325.96 239.04 L 320.53 239.04 M 325.96 222.74 L 353.13 222.74 M 325.96 239.04 L 331.4 239.04 L 331.4 244.47 M 353.13 239.04 L 347.69 239.04 L 347.69 244.47 M 358.56 217.31 L 358.56 244.47 M 374.86 217.31 L 374.86 244.47 M 353.13 222.74 L 358.56 222.74 M 353.13 239.04 L 358.56 239.04 M 380.29 222.74 L 374.86 222.74 M 380.29 239.04 L 374.86 239.04 M 380.29 222.74 L 407.45 222.74 M 380.29 239.04 L 385.72 239.04 L 385.72 244.47 M 407.45 239.04 L 402.02 239.04 L 402.02 244.47 M 407.45 239.04 L 429.19 239.04 L 429.19 222.74 L 407.45 222.74 M 440.05 217.31 L 440.05 244.47 M 461.78 222.74 L 456.35 222.74 L 456.35 217.31 M 461.78 239.04 L 456.35 239.04 L 456.35 244.47 M 467.21 217.31 L 467.21 244.47 M 483.51 217.31 L 483.51 244.47 M 461.78 222.74 L 467.21 222.74 M 461.78 239.04 L 467.21 239.04 M 488.95 222.74 L 483.51 222.74 M 488.95 239.04 L 483.51 239.04 M 488.95 222.74 L 516.11 222.74 M 488.95 239.04 L 516.11 239.04 M 516.11 239.04 L 521.54 239.04 L 521.54 244.47 M 516.11 222.74 L 537.84 222.74 L 537.84 244.47 M 21.73 244.47 L 21.73 247.53 L 21.73 266.2 L 5.43 266.2 L 5.43 244.47 M 48.89 244.47 L 48.89 247.53 L 48.89 266.2 L 32.6 266.2 L 32.6 244.47 M 59.76 244.47 L 59.76 271.64 M 81.49 249.91 L 76.06 249.91 L 76.06 244.47 M 81.49 266.2 L 76.06 266.2 L 76.06 271.64 M 81.49 249.91 L 108.65 249.91 M 81.49 266.2 L 108.65 266.2 M 86.92 244.47 L 86.92 249.91 M 103.22 244.47 L 103.22 249.91 M 86.92 266.2 L 86.92 271.64 M 103.22 266.2 L 103.22 271.64 M 108.65 249.91 L 135.82 249.91 M 108.65 266.2 L 114.09 266.2 L 114.09 271.64 M 135.82 266.2 L 130.39 266.2 L 130.39 271.64 M 135.82 249.91 L 162.98 249.91 M 135.82 266.2 L 162.98 266.2 M 141.25 244.47 L 141.25 249.91 M 157.55 244.47 L 157.55 249.91 M 141.25 266.2 L 141.25 271.64 M 157.55 266.2 L 157.55 271.64 M 162.98 266.2 L 190.15 266.2 M 168.41 244.47 L 168.41 249.91 L 162.98 249.91 M 190.15 249.91 L 184.71 249.91 L 184.71 244.47 M 190.15 249.91 L 217.31 249.91 M 190.15 266.2 L 217.31 266.2 M 195.58 244.47 L 195.58 249.91 M 211.88 244.47 L 211.88 249.91 M 195.58 266.2 L 195.58 271.64 M 211.88 266.2 L 211.88 271.64 M 222.74 244.47 L 222.74 249.91 L 217.31 249.91 M 217.31 266.2 L 222.74 266.2 L 222.74 271.64 M 244.47 249.91 L 239.04 249.91 L 239.04 244.47 M 244.47 266.2 L 239.04 266.2 L 239.04 271.64 M 244.47 249.91 L 271.64 249.91 M 244.47 266.2 L 271.64 266.2 M 271.64 249.91 L 298.8 249.91 M 271.64 266.2 L 298.8 266.2 M 277.07 244.47 L 277.07 249.91 M 293.37 244.47 L 293.37 249.91 M 277.07 266.2 L 277.07 271.64 M 293.37 266.2 L 293.37 271.64 M 320.53 244.47 L 320.53 271.64 M 304.23 244.47 L 304.23 249.91 L 298.8 249.91 M 298.8 266.2 L 304.23 266.2 L 304.23 271.64 M 347.69 244.47 L 347.69 247.53 L 347.69 266.2 L 331.4 266.2 L 331.4 244.47 M 380.29 249.91 L 374.86 249.91 L 374.86 244.47 M 380.29 266.2 L 358.56 266.2 L 358.56 244.47 M 380.29 249.91 L 407.45 249.91 M 380.29 266.2 L 407.45 266.2 M 385.72 244.47 L 385.72 249.91 M 402.02 244.47 L 402.02 249.91 M 385.72 266.2 L 385.72 271.64 M 402.02 266.2 L 402.02 271.64 M 407.45 249.91 L 434.62 249.91 M 407.45 266.2 L 412.89 266.2 L 412.89 271.64 M 434.62 266.2 L 429.19 266.2 L 429.19 271.64 M 434.62 249.91 L 461.78 249.91 M 434.62 266.2 L 461.78 266.2 M 440.05 244.47 L 440.05 249.91 M 456.35 244.47 L 456.35 249.91 M 440.05 266.2 L 440.05 271.64 M 456.35 266.2 L 456.35 271.64 M 483.51 244.47 L 483.51 271.64 M 467.21 244.47 L 467.21 249.91 L 461.78 249.91 M 461.78 266.2 L 467.21 266.2 L 467.21 271.64 M 516.11 266.2 L 510.68 266.2 L 510.68 271.64 M 516.11 249.91 L 494.38 249.91 L 494.38 271.64 M 537.84 244.47 L 537.84 271.64 M 521.54 244.47 L 521.54 249.91 L 516.11 249.91 M 516.11 266.2 L 521.54 266.2 L 521.54 271.64 M 27.16 293.37 L 5.43 293.37 L 5.43 277.07 L 27.16 277.07 M 27.16 277.07 L 54.33 277.07 M 27.16 293.37 L 32.6 293.37 L 32.6 298.8 M 54.33 293.37 L 48.89 293.37 L 48.89 298.8 M 54.33 277.07 L 81.49 277.07 M 54.33 293.37 L 81.49 293.37 M 59.76 271.64 L 59.76 277.07 M 76.06 271.64 L 76.06 277.07 M 59.76 293.37 L 59.76 298.8 M 76.06 293.37 L 76.06 298.8 M 86.92 271.64 L 86.92 277.07 L 81.49 277.07 M 103.22 271.64 L 103.22 293.37 L 81.49 293.37 M 130.39 271.64 L 130.39 274.7 L 130.39 293.37 L 114.09 293.37 L 114.09 271.64 M 141.25 271.64 L 141.25 298.8 M 157.55 271.64 L 157.55 298.8 M 184.71 298.8 L 184.71 277.07 L 168.41 277.07 L 168.41 298.8 M 217.31 277.07 L 211.88 277.07 L 211.88 271.64 M 217.31 293.37 L 195.58 293.37 L 195.58 271.64 M 222.74 271.64 L 222.74 298.8 M 239.04 271.64 L 239.04 298.8 M 217.31 277.07 L 222.74 277.07 M 217.31 293.37 L 222.74 293.37 M 244.47 277.07 L 239.04 277.07 M 244.47 293.37 L 239.04 293.37 M 244.47 293.37 L 249.91 293.37 L 249.91 298.8 M 244.47 277.07 L 266.2 277.07 L 266.2 298.8 M 298.8 277.07 L 293.37 277.07 L 293.37 271.64 M 298.8 293.37 L 277.07 293.37 L 277.07 271.64 M 298.8 277.07 L 325.96 277.07 M 298.8 293.37 L 325.96 293.37 M 304.23 271.64 L 304.23 277.07 M 320.53 271.64 L 320.53 277.07 M 304.23 293.37 L 304.23 298.8 M 320.53 293.37 L 320.53 298.8 M 325.96 293.37 L 331.4 293.37 L 331.4 298.8 M 325.96 277.07 L 347.69 277.07 L 347.69 298.8 M 380.29 293.37 L 358.56 293.37 L 358.56 277.07 L 380.29 277.07 M 385.72 271.64 L 385.72 277.07 L 380.29 277.07 M 380.29 293.37 L 385.72 293.37 L 385.72 298.8 M 407.45 277.07 L 402.02 277.07 L 402.02 271.64 M 407.45 293.37 L 402.02 293.37 L 402.02 298.8 M 407.45 277.07 L 434.62 277.07 M 407.45 293.37 L 434.62 293.37 M 412.89 271.64 L 412.89 277.07 M 429.19 271.64 L 429.19 277.07 M 412.89 293.37 L 412.89 298.8 M 429.19 293.37 L 429.19 298.8 M 456.35 271.64 L 456.35 298.8 M 440.05 271.64 L 440.05 277.07 L 434.62 277.07 M 434.62 293.37 L 440.05 293.37 L 440.05 298.8 M 467.21 271.64 L 467.21 298.8 M 483.51 271.64 L 483.51 298.8 M 510.68 271.64 L 510.68 274.7 L 510.68 293.37 L 494.38 293.37 L 494.38 271.64 M 521.54 271.64 L 521.54 298.8 M 537.84 271.64 L 537.84 298.8 M 27.16 320.53 L 21.73 320.53 L 21.73 325.96 M 27.16 304.23 L 5.43 304.23 L 5.43 325.96 M 27.16 304.23 L 54.33 304.23 M 27.16 320.53 L 54.33 320.53 M 32.6 298.8 L 32.6 304.23 M 48.89 298.8 L 48.89 304.23 M 32.6 320.53 L 32.6 325.96 M 48.89 320.53 L 48.89 325.96 M 59.76 298.8 L 59.76 304.23 L 54.33 304.23 M 54.33 320.53 L 59.76 320.53 L 59.76 325.96 M 81.49 304.23 L 76.06 304.23 L 76.06 298.8 M 81.49 320.53 L 76.06 320.53 L 76.06 325.96 M 81.49 320.53 L 103.22 320.53 L 103.22 304.23 L 81.49 304.23 M 135.82 320.53 L 114.09 320.53 L 114.09 304.23 L 135.82 304.23 M 141.25 298.8 L 141.25 304.23 L 135.82 304.23 M 135.82 320.53 L 141.25 320.53 L 141.25 325.96 M 162.98 304.23 L 157.55 304.23 L 157.55 298.8 M 162.98 320.53 L 157.55 320.53 L 157.55 325.96 M 162.98 304.23 L 190.15 304.23 M 162.98 320.53 L 190.15 320.53 M 168.41 298.8 L 168.41 304.23 M 184.71 298.8 L 184.71 304.23 M 168.41 320.53 L 168.41 325.96 M 184.71 320.53 L 184.71 325.96 M 190.15 320.53 L 211.88 320.53 L 211.88 304.23 L 190.15 304.23 M 244.47 304.23 L 239.04 304.23 L 239.04 298.8 M 244.47 320.53 L 222.74 320.53 L 222.74 298.8 M 249.91 298.8 L 249.91 325.96 M 266.2 298.8 L 266.2 325.96 M 244.47 304.23 L 249.91 304.23 M 244.47 320.53 L 249.91 320.53 M 271.64 304.23 L 266.2 304.23 M 271.64 320.53 L 266.2 320.53 M 271.64 320.53 L 277.07 320.53 L 277.07 325.96 M 271.64 304.23 L 293.37 304.23 L 293.37 325.96 M 320.53 298.8 L 320.53 301.86 L 320.53 320.53 L 304.23 320.53 L 304.23 298.8 M 331.4 298.8 L 331.4 325.96 M 347.69 298.8 L 347.69 325.96 M 380.29 320.53 L 358.56 320.53 L 358.56 304.23 L 380.29 304.23 M 380.29 304.23 L 407.45 304.23 M 380.29 320.53 L 407.45 320.53 M 385.72 298.8 L 385.72 304.23 M 402.02 298.8 L 402.02 304.23 M 385.72 320.53 L 385.72 325.96 M 402.02 320.53 L 402.02 325.96 M 429.19 298.8 L 429.19 325.96 M 412.89 298.8 L 412.89 304.23 L 407.45 304.23 M 407.45 320.53 L 412.89 320.53 L 412.89 325.96 M 461.78 304.23 L 456.35 304.23 L 456.35 298.8 M 461.78 320.53 L 440.05 320.53 L 440.05 298.8 M 467.21 298.8 L 467.21 325.96 M 483.51 298.8 L 483.51 325.96 M 461.78 304.23 L 467.21 304.23 M 461.78 320.53 L 467.21 320.53 M 488.95 304.23 L 483.51 304.23 M 488.95 320.53 L 483.51 320.53 M 488.95 320.53 L 510.68 320.53 L 510.68 304.23 L 488.95 304.23 M 537.84 298.8 L 537.84 301.86 L 537.84 320.53 L 521.54 320.53 L 521.54 298.8 M 21.73 325.96 L 21.73 329.03 L 21.73 347.69 L 5.43 347.69 L 5.43 325.96 M 54.33 331.4 L 48.89 331.4 L 48.89 325.96 M 54.33 347.69 L 32.6 347.69 L 32.6 325.96 M 59.76 325.96 L 59.76 353.13 M 76.06 325.96 L 76.06 353.13 M 54.33 331.4 L 59.76 331.4 M 54.33 347.69 L 59.76 347.69 M 81.49 331.4 L 76.06 331.4 M 81.49 347.69 L 76.06 347.69 M 81.49 331.4 L 108.65 331.4 M 81.49 347.69 L 108.65 347.69 M 108.65 347.69 L 114.09 347.69 L 114.09 353.13 M 108.65 331.4 L 130.39 331.4 L 130.39 353.13 M 162.98 331.4 L 157.55 331.4 L 157.55 325.96 M 162.98 347.69 L 141.25 347.69 L 141.25 325.96 M 168.41 325.96 L 168.41 331.4 L 162.98 331.4 M 184.71 325.96 L 184.71 347.69 L 162.98 347.69 M 211.88 353.13 L 211.88 331.4 L 195.58 331.4 L 195.58 353.13 M 244.47 347.69 L 239.04 347.69 L 239.04 353.13 M 244.47 331.4 L 222.74 331.4 L 222.74 353.13 M 244.47 347.69 L 271.64 347.69 M 249.91 325.96 L 249.91 331.4 L 244.47 331.4 M 271.64 331.4 L 266.2 331.4 L 266.2 325.96 M 271.64 331.4 L 298.8 331.4 M 271.64 347.69 L 298.8 347.69 M 277.07 325.96 L 277.07 331.4 M 293.37 325.96 L 293.37 331.4 M 277.07 347.69 L 277.07 353.13 M 293.37 347.69 L 293.37 353.13 M 298.8 331.4 L 325.96 331.4 M 298.8 347.69 L 325.96 347.69 M 331.4 325.96 L 331.4 353.13 M 347.69 325.96 L 347.69 353.13 M 325.96 331.4 L 331.4 331.4 M 325.96 347.69 L 331.4 347.69 M 353.13 331.4 L 347.69 331.4 M 353.13 347.69 L 347.69 347.69 M 353.13 331.4 L 380.29 331.4 M 353.13 347.69 L 380.29 347.69 M 380.29 347.69 L 407.45 347.69 M 385.72 325.96 L 385.72 331.4 L 380.29 331.4 M 407.45 331.4 L 402.02 331.4 L 402.02 325.96 M 407.45 331.4 L 434.62 331.4 M 407.45 347.69 L 434.62 347.69 M 412.89 325.96 L 412.89 331.4 M 429.19 325.96 L 429.19 331.4 M 412.89 347.69 L 412.89 353.13 M 429.19 347.69 L 429.19 353.13 M 434.62 347.69 L 456.35 347.69 L 456.35 331.4 L 434.62 331.4 M 467.21 325.96 L 467.21 353.13 M 483.51 325.96 L 483.51 353.13 M 510.68 353.13 L 510.68 331.4 L 494.38 331.4 L 494.38 353.13 M 537.84 353.13 L 537.84 331.4 L 521.54 331.4 L 521.54 353.13 M 21.73 380.29 L 21.73 358.56 L 5.43 358.56 L 5.43 380.29 M 48.89 380.29 L 48.89 358.56 L 32.6 358.56 L 32.6 380.29 M 76.06 353.13 L 76.06 356.19 L 76.06 374.86 L 59.76 374.86 L 59.76 353.13 M 108.65 374.86 L 103.22 374.86 L 103.22 380.29 M 108.65 358.56 L 86.92 358.56 L 86.92 380.29 M 114.09 353.13 L 114.09 380.29 M 130.39 353.13 L 130.39 380.29 M 108.65 358.56 L 114.09 358.56 M 108.65 374.86 L 114.09 374.86 M 135.82 358.56 L 130.39 358.56 M 135.82 374.86 L 130.39 374.86 M 135.82 374.86 L 157.55 374.86 L 157.55 358.56 L 135.82 358.56 M 184.71 380.29 L 184.71 358.56 L 168.41 358.56 L 168.41 380.29 M 195.58 353.13 L 195.58 380.29 M 217.31 358.56 L 211.88 358.56 L 211.88 353.13 M 217.31 374.86 L 211.88 374.86 L 211.88 380.29 M 217.31 358.56 L 244.47 358.56 M 217.31 374.86 L 244.47 374.86 M 222.74 353.13 L 222.74 358.56 M 239.04 353.13 L 239.04 358.56 M 222.74 374.86 L 222.74 380.29 M 239.04 374.86 L 239.04 380.29 M 244.47 358.56 L 271.64 358.56 M 244.47 374.86 L 271.64 374.86 M 277.07 353.13 L 277.07 358.56 L 271.64 358.56 M 293.37 353.13 L 293.37 374.86 L 271.64 374.86 M 320.53 380.29 L 320.53 358.56 L 304.23 358.56 L 304.23 380.29 M 347.69 353.13 L 347.69 356.19 L 347.69 374.86 L 331.4 374.86 L 331.4 353.13 M 380.29 374.86 L 374.86 374.86 L 374.86 380.29 M 380.29 358.56 L 358.56 358.56 L 358.56 380.29 M 380.29 374.86 L 402.02 374.86 L 402.02 358.56 L 380.29 358.56 M 429.19 353.13 L 429.19 356.19 L 429.19 374.86 L 412.89 374.86 L 412.89 353.13 M 461.78 374.86 L 456.35 374.86 L 456.35 380.29 M 461.78 358.56 L 440.05 358.56 L 440.05 380.29 M 467.21 353.13 L 467.21 380.29 M 483.51 353.13 L 483.51 380.29 M 461.78 358.56 L 467.21 358.56 M 461.78 374.86 L 467.21 374.86 M 488.95 358.56 L 483.51 358.56 M 488.95 374.86 L 483.51 374.86 M 510.68 353.13 L 510.68 380.29 M 494.38 353.13 L 494.38 358.56 L 488.95 358.56 M 488.95 374.86 L 494.38 374.86 L 494.38 380.29 M 521.54 353.13 L 521.54 380.29 M 537.84 353.13 L 537.84 380.29 M 27.16 385.72 L 21.73 385.72 L 21.73 380.29 M 27.16 402.02 L 5.43 402.02 L 5.43 380.29 M 27.16 385.72 L 54.33 385.72 M 27.16 402.02 L 54.33 402.02 M 32.6 380.29 L 32.6 385.72 M 48.89 380.29 L 48.89 385.72 M 32.6 402.02 L 32.6 407.45 M 48.89 402.02 L 48.89 407.45 M 54.33 385.72 L 81.49 385.72 M 54.33 402.02 L 59.76 402.02 L 59.76 407.45 M 81.49 402.02 L 76.06 402.02 L 76.06 407.45 M 86.92 380.29 L 86.92 407.45 M 103.22 380.29 L 103.22 407.45 M 81.49 385.72 L 86.92 385.72 M 81.49 402.02 L 86.92 402.02 M 108.65 385.72 L 103.22 385.72 M 108.65 402.02 L 103.22 402.02 M 130.39 380.29 L 130.39 407.45 M 114.09 380.29 L 114.09 385.72 L 108.65 385.72 M 108.65 402.02 L 114.09 402.02 L 114.09 407.45 M 162.98 402.02 L 141.25 402.02 L 141.25 385.72 L 162.98 385.72 M 162.98 385.72 L 190.15 385.72 M 162.98 402.02 L 190.15 402.02 M 168.41 380.29 L 168.41 385.72 M 184.71 380.29 L 184.71 385.72 M 168.41 402.02 L 168.41 407.45 M 184.71 402.02 L 184.71 407.45 M 211.88 380.29 L 211.88 407.45 M 195.58 380.29 L 195.58 385.72 L 190.15 385.72 M 190.15 402.02 L 195.58 402.02 L 195.58 407.45 M 244.47 385.72 L 239.04 385.72 L 239.04 380.29 M 244.47 402.02 L 222.74 402.02 L 222.74 380.29 M 244.47 402.02 L 249.91 402.02 L 249.91 407.45 M 244.47 385.72 L 266.2 385.72 L 266.2 407.45 M 298.8 402.02 L 277.07 402.02 L 277.07 385.72 L 298.8 385.72 M 304.23 380.29 L 304.23 407.45 M 320.53 380.29 L 320.53 407.45 M 298.8 385.72 L 304.23 385.72 M 298.8 402.02 L 304.23 402.02 M 325.96 385.72 L 320.53 385.72 M 325.96 402.02 L 320.53 402.02 M 325.96 385.72 L 353.13 385.72 M 325.96 402.02 L 331.4 402.02 L 331.4 407.45 M 353.13 402.02 L 347.69 402.02 L 347.69 407.45 M 353.13 385.72 L 380.29 385.72 M 353.13 402.02 L 380.29 402.02 M 358.56 380.29 L 358.56 385.72 M 374.86 380.29 L 374.86 385.72 M 358.56 402.02 L 358.56 407.45 M 374.86 402.02 L 374.86 407.45 M 380.29 385.72 L 407.45 385.72 M 380.29 402.02 L 407.45 402.02 M 407.45 385.72 L 434.62 385.72 M 407.45 402.02 L 412.89 402.02 L 412.89 407.45 M 434.62 402.02 L 429.19 402.02 L 429.19 407.45 M 434.62 385.72 L 461.78 385.72 M 434.62 402.02 L 461.78 402.02 M 440.05 380.29 L 440.05 385.72 M 456.35 380.29 L 456.35 385.72 M 440.05 402.02 L 440.05 407.45 M 456.35 402.02 L 456.35 407.45 M 467.21 380.29 L 467.21 385.72 L 461.78 385.72 M 461.78 402.02 L 467.21 402.02 L 467.21 407.45 M 488.95 385.72 L 483.51 385.72 L 483.51 380.29 M 488.95 402.02 L 483.51 402.02 L 483.51 407.45 M 494.38 380.29 L 494.38 385.72 L 488.95 385.72 M 510.68 380.29 L 510.68 402.02 L 488.95 402.02 M 521.54 380.29 L 521.54 407.45 M 537.84 380.29 L 537.84 407.45 M 27.16 429.19 L 5.43 429.19 L 5.43 412.89 L 27.16 412.89 M 32.6 407.45 L 32.6 412.89 L 27.16 412.89 M 27.16 429.19 L 32.6 429.19 L 32.6 434.62 M 54.33 412.89 L 48.89 412.89 L 48.89 407.45 M 54.33 429.19 L 48.89 429.19 L 48.89 434.62 M 59.76 407.45 L 59.76 434.62 M 76.06 407.45 L 76.06 434.62 M 54.33 412.89 L 59.76 412.89 M 54.33 429.19 L 59.76 429.19 M 81.49 412.89 L 76.06 412.89 M 81.49 429.19 L 76.06 429.19 M 81.49 429.19 L 108.65 429.19 M 86.92 407.45 L 86.92 412.89 L 81.49 412.89 M 108.65 412.89 L 103.22 412.89 L 103.22 407.45 M 114.09 407.45 L 114.09 434.62 M 130.39 407.45 L 130.39 434.62 M 108.65 412.89 L 114.09 412.89 M 108.65 429.19 L 114.09 429.19 M 135.82 412.89 L 130.39 412.89 M 135.82 429.19 L 130.39 429.19 M 135.82 412.89 L 162.98 412.89 M 135.82 429.19 L 141.25 429.19 L 141.25 434.62 M 162.98 429.19 L 157.55 429.19 L 157.55 434.62 M 162.98 429.19 L 190.15 429.19 M 168.41 407.45 L 168.41 412.89 L 162.98 412.89 M 190.15 412.89 L 184.71 412.89 L 184.71 407.45 M 195.58 407.45 L 195.58 434.62 M 211.88 407.45 L 211.88 434.62 M 190.15 412.89 L 195.58 412.89 M 190.15 429.19 L 195.58 429.19 M 217.31 412.89 L 211.88 412.89 M 217.31 429.19 L 211.88 429.19 M 217.31 412.89 L 244.47 412.89 M 217.31 429.19 L 244.47 429.19 M 249.91 407.45 L 249.91 434.62 M 266.2 407.45 L 266.2 434.62 M 244.47 412.89 L 249.91 412.89 M 244.47 429.19 L 249.91 429.19 M 271.64 412.89 L 266.2 412.89 M 271.64 429.19 L 266.2 429.19 M 271.64 429.19 L 293.37 429.19 L 293.37 412.89 L 271.64 412.89 M 304.23 407.45 L 304.23 434.62 M 325.96 412.89 L 320.53 412.89 L 320.53 407.45 M 325.96 429.19 L 320.53 429.19 L 320.53 434.62 M 331.4 407.45 L 331.4 434.62 M 347.69 407.45 L 347.69 434.62 M 325.96 412.89 L 331.4 412.89 M 325.96 429.19 L 331.4 429.19 M 353.13 412.89 L 347.69 412.89 M 353.13 429.19 L 347.69 429.19 M 358.56 407.45 L 358.56 412.89 L 353.13 412.89 M 353.13 429.19 L 358.56 429.19 L 358.56 434.62 M 380.29 412.89 L 374.86 412.89 L 374.86 407.45 M 380.29 429.19 L 374.86 429.19 L 374.86 434.62 M 380.29 429.19 L 402.02 429.19 L 402.02 412.89 L 380.29 412.89 M 412.89 407.45 L 412.89 434.62 M 429.19 407.45 L 429.19 434.62 M 461.78 412.89 L 456.35 412.89 L 456.35 407.45 M 461.78 429.19 L 440.05 429.19 L 440.05 407.45 M 467.21 407.45 L 467.21 434.62 M 483.51 407.45 L 483.51 434.62 M 461.78 412.89 L 467.21 412.89 M 461.78 429.19 L 467.21 429.19 M 488.95 412.89 L 483.51 412.89 M 488.95 429.19 L 483.51 429.19 M 488.95 429.19 L 510.68 429.19 L 510.68 412.89 L 488.95 412.89 M 521.54 407.45 L 521.54 434.62 M 537.84 407.45 L 537.84 434.62 M 27.16 456.35 L 21.73 456.35 L 21.73 461.78 M 27.16 440.05 L 5.43 440.05 L 5.43 461.78 M 32.6 434.62 L 32.6 461.78 M 48.89 434.62 L 48.89 461.78 M 27.16 440.05 L 32.6 440.05 M 27.16 456.35 L 32.6 456.35 M 54.33 440.05 L 48.89 440.05 M 54.33 456.35 L 48.89 456.35 M 54.33 456.35 L 81.49 456.35 M 59.76 434.62 L 59.76 440.05 L 54.33 440.05 M 81.49 440.05 L 76.06 440.05 L 76.06 434.62 M 81.49 456.35 L 103.22 456.35 L 103.22 440.05 L 81.49 440.05 M 114.09 434.62 L 114.09 461.78 M 135.82 440.05 L 130.39 440.05 L 130.39 434.62 M 135.82 456.35 L 130.39 456.35 L 130.39 461.78 M 135.82 440.05 L 162.98 440.05 M 135.82 456.35 L 162.98 456.35 M 141.25 434.62 L 141.25 440.05 M 157.55 434.62 L 157.55 440.05 M 141.25 456.35 L 141.25 461.78 M 157.55 456.35 L 157.55 461.78 M 162.98 456.35 L 168.41 456.35 L 168.41 461.78 M 162.98 440.05 L 184.71 440.05 L 184.71 461.78 M 211.88 434.62 L 211.88 437.68 L 211.88 456.35 L 195.58 456.35 L 195.58 434.62 M 239.04 461.78 L 239.04 440.05 L 222.74 440.05 L 222.74 461.78 M 266.2 434.62 L 266.2 437.68 L 266.2 456.35 L 249.91 456.35 L 249.91 434.62 M 298.8 456.35 L 293.37 456.35 L 293.37 461.78 M 298.8 440.05 L 277.07 440.05 L 277.07 461.78 M 298.8 440.05 L 325.96 440.05 M 298.8 456.35 L 325.96 456.35 M 304.23 434.62 L 304.23 440.05 M 320.53 434.62 L 320.53 440.05 M 304.23 456.35 L 304.23 461.78 M 320.53 456.35 L 320.53 461.78 M 325.96 456.35 L 353.13 456.35 M 331.4 434.62 L 331.4 440.05 L 325.96 440.05 M 353.13 440.05 L 347.69 440.05 L 347.69 434.62 M 358.56 434.62 L 358.56 461.78 M 374.86 434.62 L 374.86 461.78 M 353.13 440.05 L 358.56 440.05 M 353.13 456.35 L 358.56 456.35 M 380.29 440.05 L 374.86 440.05 M 380.29 456.35 L 374.86 456.35 M 380.29 440.05 L 407.45 440.05 M 380.29 456.35 L 385.72 456.35 L 385.72 461.78 M 407.45 456.35 L 402.02 456.35 L 402.02 461.78 M 407.45 440.05 L 434.62 440.05 M 407.45 456.35 L 434.62 456.35 M 412.89 434.62 L 412.89 440.05 M 429.19 434.62 L 429.19 440.05 M 412.89 456.35 L 412.89 461.78 M 429.19 456.35 L 429.19 461.78 M 434.62 456.35 L 440.05 456.35 L 440.05 461.78 M 434.62 440.05 L 456.35 440.05 L 456.35 461.78 M 488.95 440.05 L 483.51 440.05 L 483.51 434.62 M 488.95 456.35 L 467.21 456.35 L 467.21 434.62 M 488.95 440.05 L 516.11 440.05 M 488.95 456.35 L 516.11 456.35 M 537.84 434.62 L 537.84 461.78 M 521.54 434.62 L 521.54 440.05 L 516.11 440.05 M 516.11 456.35 L 521.54 456.35 L 521.54 461.78 M 21.73 461.78 L 21.73 464.84 L 21.73 483.51 L 5.43 483.51 L 5.43 461.78 M 54.33 467.21 L 48.89 467.21 L 48.89 461.78 M 54.33 483.51 L 32.6 483.51 L 32.6 461.78 M 54.33 483.51 L 76.06 483.51 L 76.06 467.21 L 54.33 467.21 M 108.65 483.51 L 86.92 483.51 L 86.92 467.21 L 108.65 467.21 M 108.65 467.21 L 135.82 467.21 M 108.65 483.51 L 135.82 483.51 M 114.09 461.78 L 114.09 467.21 M 130.39 461.78 L 130.39 467.21 M 114.09 483.51 L 114.09 488.95 M 130.39 483.51 L 130.39 488.95 M 135.82 483.51 L 162.98 483.51 M 141.25 461.78 L 141.25 467.21 L 135.82 467.21 M 162.98 467.21 L 157.55 467.21 L 157.55 461.78 M 162.98 467.21 L 190.15 467.21 M 162.98 483.51 L 190.15 483.51 M 168.41 461.78 L 168.41 467.21 M 184.71 461.78 L 184.71 467.21 M 168.41 483.51 L 168.41 488.95 M 184.71 483.51 L 184.71 488.95 M 190.15 467.21 L 217.31 467.21 M 190.15 483.51 L 195.58 483.51 L 195.58 488.95 M 217.31 483.51 L 211.88 483.51 L 211.88 488.95 M 222.74 461.78 L 222.74 488.95 M 239.04 461.78 L 239.04 488.95 M 217.31 467.21 L 222.74 467.21 M 217.31 483.51 L 222.74 483.51 M 244.47 467.21 L 239.04 467.21 M 244.47 483.51 L 239.04 483.51 M 244.47 483.51 L 266.2 483.51 L 266.2 467.21 L 244.47 467.21 M 293.37 461.78 L 293.37 464.84 L 293.37 483.51 L 277.07 483.51 L 277.07 461.78 M 304.23 461.78 L 304.23 488.95 M 320.53 461.78 L 320.53 488.95 M 347.69 488.95 L 347.69 467.21 L 331.4 467.21 L 331.4 488.95 M 358.56 461.78 L 358.56 488.95 M 380.29 467.21 L 374.86 467.21 L 374.86 461.78 M 380.29 483.51 L 374.86 483.51 L 374.86 488.95 M 380.29 467.21 L 407.45 467.21 M 380.29 483.51 L 407.45 483.51 M 385.72 461.78 L 385.72 467.21 M 402.02 461.78 L 402.02 467.21 M 385.72 483.51 L 385.72 488.95 M 402.02 483.51 L 402.02 488.95 M 407.45 483.51 L 434.62 483.51 M 412.89 461.78 L 412.89 467.21 L 407.45 467.21 M 434.62 467.21 L 429.19 467.21 L 429.19 461.78 M 434.62 467.21 L 461.78 467.21 M 434.62 483.51 L 461.78 483.51 M 440.05 461.78 L 440.05 467.21 M 456.35 461.78 L 456.35 467.21 M 440.05 483.51 L 440.05 488.95 M 456.35 483.51 L 456.35 488.95 M 461.78 483.51 L 483.51 483.51 L 483.51 467.21 L 461.78 467.21 M 510.68 488.95 L 510.68 467.21 L 494.38 467.21 L 494.38 488.95 M 537.84 461.78 L 537.84 464.84 L 537.84 483.51 L 521.54 483.51 L 521.54 461.78 M 27.16 510.68 L 5.43 510.68 L 5.43 494.38 L 27.16 494.38 M 27.16 510.68 L 32.6 510.68 L 32.6 516.11 M 27.16 494.38 L 48.89 494.38 L 48.89 516.11 M 81.49 510.68 L 59.76 510.68 L 59.76 494.38 L 81.49 494.38 M 81.49 510.68 L 86.92 510.68 L 86.92 516.11 M 81.49 494.38 L 103.22 494.38 L 103.22 516.11 M 135.82 494.38 L 130.39 494.38 L 130.39 488.95 M 135.82 510.68 L 114.09 510.68 L 114.09 488.95 M 135.82 510.68 L 141.25 510.68 L 141.25 516.11 M 135.82 494.38 L 157.55 494.38 L 157.55 516.11 M 190.15 494.38 L 184.71 494.38 L 184.71 488.95 M 190.15 510.68 L 168.41 510.68 L 168.41 488.95 M 195.58 488.95 L 195.58 516.11 M 211.88 488.95 L 211.88 516.11 M 190.15 494.38 L 195.58 494.38 M 190.15 510.68 L 195.58 510.68 M 217.31 494.38 L 211.88 494.38 M 217.31 510.68 L 211.88 510.68 M 222.74 488.95 L 222.74 494.38 L 217.31 494.38 M 217.31 510.68 L 222.74 510.68 L 222.74 516.11 M 244.47 494.38 L 239.04 494.38 L 239.04 488.95 M 244.47 510.68 L 239.04 510.68 L 239.04 516.11 M 244.47 510.68 L 266.2 510.68 L 266.2 494.38 L 244.47 494.38 M 298.8 510.68 L 293.37 510.68 L 293.37 516.11 M 298.8 494.38 L 277.07 494.38 L 277.07 516.11 M 304.23 488.95 L 304.23 516.11 M 320.53 488.95 L 320.53 516.11 M 298.8 494.38 L 304.23 494.38 M 298.8 510.68 L 304.23 510.68 M 325.96 494.38 L 320.53 494.38 M 325.96 510.68 L 320.53 510.68 M 325.96 510.68 L 353.13 510.68 M 331.4 488.95 L 331.4 494.38 L 325.96 494.38 M 353.13 494.38 L 347.69 494.38 L 347.69 488.95 M 358.56 488.95 L 358.56 516.11 M 374.86 488.95 L 374.86 516.11 M 353.13 494.38 L 358.56 494.38 M 353.13 510.68 L 358.56 510.68 M 380.29 494.38 L 374.86 494.38 M 380.29 510.68 L 374.86 510.68 M 402.02 488.95 L 402.02 516.11 M 385.72 488.95 L 385.72 494.38 L 380.29 494.38 M 380.29 510.68 L 385.72 510.68 L 385.72 516.11 M 434.62 510.68 L 412.89 510.68 L 412.89 494.38 L 434.62 494.38 M 440.05 488.95 L 440.05 494.38 L 434.62 494.38 M 456.35 488.95 L 456.35 510.68 L 434.62 510.68 M 488.95 510.68 L 483.51 510.68 L 483.51 516.11 M 488.95 494.38 L 467.21 494.38 L 467.21 516.11 M 488.95 494.38 L 516.11 494.38 M 488.95 510.68 L 516.11 510.68 M 494.38 488.95 L 494.38 494.38 M 510.68 488.95 L 510.68 494.38 M 494.38 510.68 L 494.38 516.11 M 510.68 510.68 L 510.68 516.11 M 516.11 510.68 L 537.84 510.68 L 537.84 494.38 L 516.11 494.38 M 27.16 537.84 L 21.73 537.84 L 21.73 543.27 M 27.16 521.54 L 5.43 521.54 L 5.43 543.27 M 32.6 516.11 L 32.6 543.27 M 48.89 516.11 L 48.89 543.27 M 27.16 521.54 L 32.6 521.54 M 27.16 537.84 L 32.6 537.84 M 54.33 521.54 L 48.89 521.54 M 54.33 537.84 L 48.89 537.84 M 54.33 521.54 L 81.49 521.54 M 54.33 537.84 L 59.76 537.84 L 59.76 543.27 M 81.49 537.84 L 76.06 537.84 L 76.06 543.27 M 86.92 516.11 L 86.92 543.27 M 103.22 516.11 L 103.22 543.27 M 81.49 521.54 L 86.92 521.54 M 81.49 537.84 L 86.92 537.84 M 108.65 521.54 L 103.22 521.54 M 108.65 537.84 L 103.22 537.84 M 108.65 521.54 L 135.82 521.54 M 108.65 537.84 L 114.09 537.84 L 114.09 543.27 M 135.82 537.84 L 130.39 537.84 L 130.39 543.27 M 141.25 516.11 L 141.25 543.27 M 157.55 516.11 L 157.55 543.27 M 135.82 521.54 L 141.25 521.54 M 135.82 537.84 L 141.25 537.84 M 162.98 521.54 L 157.55 521.54 M 162.98 537.84 L 157.55 537.84 M 162.98 537.84 L 184.71 537.84 L 184.71 521.54 L 162.98 521.54 M 195.58 516.11 L 195.58 543.27 M 217.31 521.54 L 211.88 521.54 L 211.88 516.11 M 217.31 537.84 L 211.88 537.84 L 211.88 543.27 M 222.74 516.11 L 222.74 543.27 M 239.04 516.11 L 239.04 543.27 M 217.31 521.54 L 222.74 521.54 M 217.31 537.84 L 222.74 537.84 M 244.47 521.54 L 239.04 521.54 M 244.47 537.84 L 239.04 537.84 M 244.47 521.54 L 271.64 521.54 M 244.47 537.84 L 271.64 537.84 M 277.07 516.11 L 277.07 543.27 M 293.37 516.11 L 293.37 543.27 M 271.64 521.54 L 277.07 521.54 M 271.64 537.84 L 277.07 537.84 M 298.8 521.54 L 293.37 521.54 M 298.8 537.84 L 293.37 537.84 M 304.23 516.11 L 304.23 521.54 L 298.8 521.54 M 320.53 516.11 L 320.53 537.84 L 298.8 537.84 M 347.69 543.27 L 347.69 521.54 L 331.4 521.54 L 331.4 543.27 M 380.29 521.54 L 374.86 521.54 L 374.86 516.11 M 380.29 537.84 L 358.56 537.84 L 358.56 516.11 M 380.29 521.54 L 407.45 521.54 M 380.29 537.84 L 407.45 537.84 M 385.72 516.11 L 385.72 521.54 M 402.02 516.11 L 402.02 521.54 M 385.72 537.84 L 385.72 543.27 M 402.02 537.84 L 402.02 543.27 M 407.45 537.84 L 429.19 537.84 L 429.19 521.54 L 407.45 521.54 M 461.78 537.84 L 456.35 537.84 L 456.35 543.27 M 461.78 521.54 L 440.05 521.54 L 440.05 543.27 M 467.21 516.11 L 467.21 543.27 M 483.51 516.11 L 483.51 543.27 M 461.78 521.54 L 467.21 521.54 M 461.78 537.84 L 467.21 537.84 M 488.95 521.54 L 483.51 521.54 M 488.95 537.84 L 483.51 537.84 M 494.38 516.11 L 494.38 521.54 L 488.95 521.54 M 488.95 537.84 L 494.38 537.84 L 494.38 543.27 M 516.11 521.54 L 510.68 521.54 L 510.68 516.11 M 516.11 537.84 L 510.68 537.84 L 510.68 543.27 M 516.11 537.84 L 537.84 537.84 L 537.84 521.54 L 516.11 521.54 M 21.73 543.27 L 21.73 546.33 L 21.73 565 L 5.43 565 L 5.43 543.27 M 32.6 543.27 L 32.6 570.44 M 54.33 548.71 L 48.89 548.71 L 48.89 543.27 M 54.33 565 L 48.89 565 L 48.89 570.44 M 54.33 548.71 L 81.49 548.71 M 54.33 565 L 81.49 565 M 59.76 543.27 L 59.76 548.71 M 76.06 543.27 L 76.06 548.71 M 59.76 565 L 59.76 570.44 M 76.06 565 L 76.06 570.44 M 81.49 565 L 108.65 565 M 86.92 543.27 L 86.92 548.71 L 81.49 548.71 M 108.65 548.71 L 103.22 548.71 L 103.22 543.27 M 108.65 548.71 L 135.82 548.71 M 108.65 565 L 135.82 565 M 114.09 543.27 L 114.09 548.71 M 130.39 543.27 L 130.39 548.71 M 114.09 565 L 114.09 570.44 M 130.39 565 L 130.39 570.44 M 141.25 543.27 L 141.25 548.71 L 135.82 548.71 M 157.55 543.27 L 157.55 565 L 135.82 565 M 190.15 565 L 184.71 565 L 184.71 570.44 M 190.15 548.71 L 168.41 548.71 L 168.41 570.44 M 195.58 543.27 L 195.58 570.44 M 211.88 543.27 L 211.88 570.44 M 190.15 548.71 L 195.58 548.71 M 190.15 565 L 195.58 565 M 217.31 548.71 L 211.88 548.71 M 217.31 565 L 211.88 565 M 239.04 543.27 L 239.04 570.44 M 222.74 543.27 L 222.74 548.71 L 217.31 548.71 M 217.31 565 L 222.74 565 L 222.74 570.44 M 266.2 570.44 L 266.2 548.71 L 249.91 548.71 L 249.91 570.44 M 277.07 543.27 L 277.07 570.44 M 293.37 543.27 L 293.37 570.44 M 325.96 565 L 304.23 565 L 304.23 548.71 L 325.96 548.71 M 331.4 543.27 L 331.4 570.44 M 347.69 543.27 L 347.69 570.44 M 325.96 548.71 L 331.4 548.71 M 325.96 565 L 331.4 565 M 353.13 548.71 L 347.69 548.71 M 353.13 565 L 347.69 565 M 353.13 565 L 358.56 565 L 358.56 570.44 M 353.13 548.71 L 374.86 548.71 L 374.86 570.44 M 402.02 543.27 L 402.02 546.33 L 402.02 565 L 385.72 565 L 385.72 543.27 M 434.62 565 L 429.19 565 L 429.19 570.44 M 434.62 548.71 L 412.89 548.71 L 412.89 570.44 M 440.05 543.27 L 440.05 570.44 M 456.35 543.27 L 456.35 570.44 M 434.62 548.71 L 440.05 548.71 M 434.62 565 L 440.05 565 M 461.78 548.71 L 456.35 548.71 M 461.78 565 L 456.35 565 M 467.21 543.27 L 467.21 548.71 L 461.78 548.71 M 461.78 565 L 467.21 565 L 467.21 570.44 M 488.95 548.71 L 483.51 548.71 L 483.51 543.27 M 488.95 565 L 483.51 565 L 483.51 570.44 M 494.38 543.27 L 494.38 570.44 M 510.68 543.27 L 510.68 570.44 M 488.95 548.71 L 494.38 548.71 M 488.95 565 L 494.38 565 M 516.11 548.71 L 510.68 548.71 M 516.11 565 L 510.68 565 M 516.11 565 L 537.84 565 L 537.84 548.71 L 516.11 548.71 M 27.16 592.17 L 5.43 592.17 L 5.43 575.87 L 27.16 575.87 M 32.6 570.44 L 32.6 597.6 M 48.89 570.44 L 48.89 597.6 M 27.16 575.87 L 32.6 575.87 M 27.16 592.17 L 32.6 592.17 M 54.33 575.87 L 48.89 575.87 M 54.33 592.17 L 48.89 592.17 M 59.76 570.44 L 59.76 575.87 L 54.33 575.87 M 76.06 570.44 L 76.06 592.17 L 54.33 592.17 M 108.65 592.17 L 103.22 592.17 L 103.22 597.6 M 108.65 575.87 L 86.92 575.87 L 86.92 597.6 M 114.09 570.44 L 114.09 575.87 L 108.65 575.87 M 130.39 570.44 L 130.39 592.17 L 108.65 592.17 M 162.98 592.17 L 141.25 592.17 L 141.25 575.87 L 162.98 575.87 M 168.41 570.44 L 168.41 597.6 M 184.71 570.44 L 184.71 597.6 M 162.98 575.87 L 168.41 575.87 M 162.98 592.17 L 168.41 592.17 M 190.15 575.87 L 184.71 575.87 M 190.15 592.17 L 184.71 592.17 M 195.58 570.44 L 195.58 575.87 L 190.15 575.87 M 190.15 592.17 L 195.58 592.17 L 195.58 597.6 M 217.31 575.87 L 211.88 575.87 L 211.88 570.44 M 217.31 592.17 L 211.88 592.17 L 211.88 597.6 M 222.74 570.44 L 222.74 597.6 M 239.04 570.44 L 239.04 597.6 M 217.31 575.87 L 222.74 575.87 M 217.31 592.17 L 222.74 592.17 M 244.47 575.87 L 239.04 575.87 M 244.47 592.17 L 239.04 592.17 M 249.91 570.44 L 249.91 575.87 L 244.47 575.87 M 244.47 592.17 L 249.91 592.17 L 249.91 597.6 M 271.64 575.87 L 266.2 575.87 L 266.2 570.44 M 271.64 592.17 L 266.2 592.17 L 266.2 597.6 M 277.07 570.44 L 277.07 597.6 M 293.37 570.44 L 293.37 597.6 M 271.64 575.87 L 277.07 575.87 M 271.64 592.17 L 277.07 592.17 M 298.8 575.87 L 293.37 575.87 M 298.8 592.17 L 293.37 592.17 M 298.8 592.17 L 320.53 592.17 L 320.53 575.87 L 298.8 575.87 M 353.13 575.87 L 347.69 575.87 L 347.69 570.44 M 353.13 592.17 L 331.4 592.17 L 331.4 570.44 M 358.56 570.44 L 358.56 597.6 M 374.86 570.44 L 374.86 597.6 M 353.13 575.87 L 358.56 575.87 M 353.13 592.17 L 358.56 592.17 M 380.29 575.87 L 374.86 575.87 M 380.29 592.17 L 374.86 592.17 M 380.29 575.87 L 407.45 575.87 M 380.29 592.17 L 385.72 592.17 L 385.72 597.6 M 407.45 592.17 L 402.02 592.17 L 402.02 597.6 M 407.45 575.87 L 434.62 575.87 M 407.45 592.17 L 434.62 592.17 M 412.89 570.44 L 412.89 575.87 M 429.19 570.44 L 429.19 575.87 M 412.89 592.17 L 412.89 597.6 M 429.19 592.17 L 429.19 597.6 M 456.35 570.44 L 456.35 597.6 M 440.05 570.44 L 440.05 575.87 L 434.62 575.87 M 434.62 592.17 L 440.05 592.17 L 440.05 597.6 M 483.51 570.44 L 483.51 573.5 L 483.51 592.17 L 467.21 592.17 L 467.21 570.44 M 516.11 575.87 L 510.68 575.87 L 510.68 570.44 M 516.11 592.17 L 494.38 592.17 L 494.38 570.44 M 516.11 592.17 L 537.84 592.17 L 537.84 575.87 L 516.11 575.87 M 27.16 619.33 L 5.43 619.33 L 5.43 603.03 L 27.16 603.03 M 48.89 597.6 L 48.89 624.76 M 32.6 597.6 L 32.6 603.03 L 27.16 603.03 M 27.16 619.33 L 32.6 619.33 L 32.6 624.76 M 81.49 619.33 L 59.76 619.33 L 59.76 603.03 L 81.49 603.03 M 86.92 597.6 L 86.92 603.03 L 81.49 603.03 M 81.49 619.33 L 86.92 619.33 L 86.92 624.76 M 108.65 603.03 L 103.22 603.03 L 103.22 597.6 M 108.65 619.33 L 103.22 619.33 L 103.22 624.76 M 108.65 619.33 L 130.39 619.33 L 130.39 603.03 L 108.65 603.03 M 162.98 619.33 L 141.25 619.33 L 141.25 603.03 L 162.98 603.03 M 168.41 597.6 L 168.41 603.03 L 162.98 603.03 M 184.71 597.6 L 184.71 619.33 L 162.98 619.33 M 195.58 597.6 L 195.58 624.76 M 211.88 597.6 L 211.88 624.76 M 222.74 597.6 L 222.74 624.76 M 244.47 603.03 L 239.04 603.03 L 239.04 597.6 M 244.47 619.33 L 239.04 619.33 L 239.04 624.76 M 249.91 597.6 L 249.91 624.76 M 266.2 597.6 L 266.2 624.76 M 244.47 603.03 L 249.91 603.03 M 244.47 619.33 L 249.91 619.33 M 271.64 603.03 L 266.2 603.03 M 271.64 619.33 L 266.2 619.33 M 293.37 597.6 L 293.37 624.76 M 277.07 597.6 L 277.07 603.03 L 271.64 603.03 M 271.64 619.33 L 277.07 619.33 L 277.07 624.76 M 325.96 619.33 L 304.23 619.33 L 304.23 603.03 L 325.96 603.03 M 325.96 603.03 L 353.13 603.03 M 325.96 619.33 L 331.4 619.33 L 331.4 624.76 M 353.13 619.33 L 347.69 619.33 L 347.69 624.76 M 358.56 597.6 L 358.56 603.03 L 353.13 603.03 M 353.13 619.33 L 358.56 619.33 L 358.56 624.76 M 380.29 603.03 L 374.86 603.03 L 374.86 597.6 M 380.29 619.33 L 374.86 619.33 L 374.86 624.76 M 380.29 603.03 L 407.45 603.03 M 380.29 619.33 L 407.45 619.33 M 385.72 597.6 L 385.72 603.03 M 402.02 597.6 L 402.02 603.03 M 385.72 619.33 L 385.72 624.76 M 402.02 619.33 L 402.02 624.76 M 407.45 619.33 L 434.62 619.33 M 412.89 597.6 L 412.89 603.03 L 407.45 603.03 M 434.62 603.03 L 429.19 603.03 L 429.19 597.6 M 440.05 597.6 L 440.05 624.76 M 456.35 597.6 L 456.35 624.76 M 434.62 603.03 L 440.05 603.03 M 434.62 619.33 L 440.05 619.33 M 461.78 603.03 L 456.35 603.03 M 461.78 619.33 L 456.35 619.33 M 461.78 619.33 L 467.21 619.33 L 467.21 624.76 M 461.78 603.03 L 483.51 603.03 L 483.51 624.76 M 510.68 624.76 L 510.68 603.03 L 494.38 603.03 L 494.38 624.76 M 537.84 624.76 L 537.84 603.03 L 521.54 603.03 L 521.54 624.76 M 27.16 646.49 L 5.43 646.49 L 5.43 630.2 L 27.16 630.2 M 27.16 630.2 L 54.33 630.2 M 27.16 646.49 L 54.33 646.49 M 32.6 624.76 L 32.6 630.2 M 48.89 624.76 L 48.89 630.2 M 32.6 646.49 L 32.6 651.93 M 48.89 646.49 L 48.89 651.93 M 54.33 630.2 L 81.49 630.2 M 54.33 646.49 L 59.76 646.49 L 59.76 651.93 M 81.49 646.49 L 76.06 646.49 L 76.06 651.93 M 81.49 630.2 L 108.65 630.2 M 81.49 646.49 L 108.65 646.49 M 86.92 624.76 L 86.92 630.2 M 103.22 624.76 L 103.22 630.2 M 86.92 646.49 L 86.92 651.93 M 103.22 646.49 L 103.22 651.93 M 108.65 630.2 L 135.82 630.2 M 108.65 646.49 L 114.09 646.49 L 114.09 651.93 M 135.82 646.49 L 130.39 646.49 L 130.39 651.93 M 135.82 646.49 L 157.55 646.49 L 157.55 630.2 L 135.82 630.2 M 184.71 651.93 L 184.71 630.2 L 168.41 630.2 L 168.41 651.93 M 211.88 624.76 L 211.88 627.83 L 211.88 646.49 L 195.58 646.49 L 195.58 624.76 M 222.74 624.76 L 222.74 651.93 M 239.04 624.76 L 239.04 651.93 M 266.2 624.76 L 266.2 627.83 L 266.2 646.49 L 249.91 646.49 L 249.91 624.76 M 293.37 624.76 L 293.37 627.83 L 293.37 646.49 L 277.07 646.49 L 277.07 624.76 M 325.96 646.49 L 304.23 646.49 L 304.23 630.2 L 325.96 630.2 M 325.96 630.2 L 353.13 630.2 M 325.96 646.49 L 353.13 646.49 M 331.4 624.76 L 331.4 630.2 M 347.69 624.76 L 347.69 630.2 M 331.4 646.49 L 331.4 651.93 M 347.69 646.49 L 347.69 651.93 M 374.86 624.76 L 374.86 651.93 M 358.56 624.76 L 358.56 630.2 L 353.13 630.2 M 353.13 646.49 L 358.56 646.49 L 358.56 651.93 M 385.72 624.76 L 385.72 651.93 M 402.02 624.76 L 402.02 651.93 M 429.19 651.93 L 429.19 630.2 L 412.89 630.2 L 412.89 651.93 M 461.78 630.2 L 456.35 630.2 L 456.35 624.76 M 461.78 646.49 L 440.05 646.49 L 440.05 624.76 M 461.78 630.2 L 488.95 630.2 M 461.78 646.49 L 488.95 646.49 M 467.21 624.76 L 467.21 630.2 M 483.51 624.76 L 483.51 630.2 M 467.21 646.49 L 467.21 651.93 M 483.51 646.49 L 483.51 651.93 M 510.68 624.76 L 510.68 651.93 M 494.38 624.76 L 494.38 630.2 L 488.95 630.2 M 488.95 646.49 L 494.38 646.49 L 494.38 651.93 M 521.54 624.76 L 521.54 651.93 M 537.84 624.76 L 537.84 651.93 M 27.16 673.66 L 21.73 673.66 L 21.73 679.09 M 27.16 657.36 L 5.43 657.36 L 5.43 679.09 M 32.6 651.93 L 32.6 657.36 L 27.16 657.36 M 27.16 673.66 L 32.6 673.66 L 32.6 679.09 M 54.33 657.36 L 48.89 657.36 L 48.89 651.93 M 54.33 673.66 L 48.89 673.66 L 48.89 679.09 M 54.33 657.36 L 81.49 657.36 M 54.33 673.66 L 81.49 673.66 M 59.76 651.93 L 59.76 657.36 M 76.06 651.93 L 76.06 657.36 M 59.76 673.66 L 59.76 679.09 M 76.06 673.66 L 76.06 679.09 M 86.92 651.93 L 86.92 657.36 L 81.49 657.36 M 81.49 673.66 L 86.92 673.66 L 86.92 679.09 M 108.65 657.36 L 103.22 657.36 L 103.22 651.93 M 108.65 673.66 L 103.22 673.66 L 103.22 679.09 M 108.65 657.36 L 135.82 657.36 M 108.65 673.66 L 135.82 673.66 M 114.09 651.93 L 114.09 657.36 M 130.39 651.93 L 130.39 657.36 M 114.09 673.66 L 114.09 679.09 M 130.39 673.66 L 130.39 679.09 M 135.82 657.36 L 162.98 657.36 M 135.82 673.66 L 141.25 673.66 L 141.25 679.09 M 162.98 673.66 L 157.55 673.66 L 157.55 679.09 M 162.98 657.36 L 190.15 657.36 M 162.98 673.66 L 190.15 673.66 M 168.41 651.93 L 168.41 657.36 M 184.71 651.93 L 184.71 657.36 M 168.41 673.66 L 168.41 679.09 M 184.71 673.66 L 184.71 679.09 M 190.15 657.36 L 217.31 657.36 M 190.15 673.66 L 217.31 673.66 M 222.74 651.93 L 222.74 679.09 M 239.04 651.93 L 239.04 679.09 M 217.31 657.36 L 222.74 657.36 M 217.31 673.66 L 222.74 673.66 M 244.47 657.36 L 239.04 657.36 M 244.47 673.66 L 239.04 673.66 M 244.47 673.66 L 266.2 673.66 L 266.2 657.36 L 244.47 657.36 M 293.37 679.09 L 293.37 657.36 L 277.07 657.36 L 277.07 679.09 M 320.53 679.09 L 320.53 657.36 L 304.23 657.36 L 304.23 679.09 M 331.4 651.93 L 331.4 679.09 M 347.69 651.93 L 347.69 679.09 M 374.86 651.93 L 374.86 654.99 L 374.86 673.66 L 358.56 673.66 L 358.56 651.93 M 385.72 651.93 L 385.72 679.09 M 407.45 657.36 L 402.02 657.36 L 402.02 651.93 M 407.45 673.66 L 402.02 673.66 L 402.02 679.09 M 412.89 651.93 L 412.89 679.09 M 429.19 651.93 L 429.19 679.09 M 407.45 657.36 L 412.89 657.36 M 407.45 673.66 L 412.89 673.66 M 434.62 657.36 L 429.19 657.36 M 434.62 673.66 L 429.19 673.66 M 434.62 673.66 L 440.05 673.66 L 440.05 679.09 M 434.62 657.36 L 456.35 657.36 L 456.35 679.09 M 488.95 657.36 L 483.51 657.36 L 483.51 651.93 M 488.95 673.66 L 467.21 673.66 L 467.21 651.93 M 494.38 651.93 L 494.38 679.09 M 510.68 651.93 L 510.68 679.09 M 488.95 657.36 L 494.38 657.36 M 488.95 673.66 L 494.38 673.66 M 516.11 657.36 L 510.68 657.36 M 516.11 673.66 L 510.68 673.66 M 537.84 651.93 L 537.84 679.09 M 521.54 651.93 L 521.54 657.36 L 516.11 657.36 M 516.11 673.66 L 521.54 673.66 L 521.54 679.09 M 27.16 684.52 L 21.73 684.52 L 21.73 679.09 M 27.16 700.82 L 5.43 700.82 L 5.43 679.09 M 27.16 684.52 L 54.33 684.52 M 27.16 700.82 L 54.33 700.82 M 32.6 679.09 L 32.6 684.52 M 48.89 679.09 L 48.89 684.52 M 32.6 700.82 L 32.6 706.25 M 48.89 700.82 L 48.89 706.25 M 76.06 679.09 L 76.06 706.25 M 59.76 679.09 L 59.76 684.52 L 54.33 684.52 M 54.33 700.82 L 59.76 700.82 L 59.76 706.25 M 103.22 679.09 L 103.22 682.15 L 103.22 700.82 L 86.92 700.82 L 86.92 679.09 M 135.82 684.52 L 130.39 684.52 L 130.39 679.09 M 135.82 700.82 L 114.09 700.82 L 114.09 679.09 M 141.25 679.09 L 141.25 706.25 M 157.55 679.09 L 157.55 706.25 M 135.82 684.52 L 141.25 684.52 M 135.82 700.82 L 141.25 700.82 M 162.98 684.52 L 157.55 684.52 M 162.98 700.82 L 157.55 700.82 M 184.71 679.09 L 184.71 706.25 M 168.41 679.09 L 168.41 684.52 L 162.98 684.52 M 162.98 700.82 L 168.41 700.82 L 168.41 706.25 M 217.31 700.82 L 195.58 700.82 L 195.58 684.52 L 217.31 684.52 M 222.74 679.09 L 222.74 684.52 L 217.31 684.52 M 239.04 679.09 L 239.04 700.82 L 217.31 700.82 M 271.64 700.82 L 249.91 700.82 L 249.91 684.52 L 271.64 684.52 M 271.64 684.52 L 298.8 684.52 M 271.64 700.82 L 298.8 700.82 M 277.07 679.09 L 277.07 684.52 M 293.37 679.09 L 293.37 684.52 M 277.07 700.82 L 277.07 706.25 M 293.37 700.82 L 293.37 706.25 M 304.23 679.09 L 304.23 684.52 L 298.8 684.52 M 298.8 700.82 L 304.23 700.82 L 304.23 706.25 M 325.96 684.52 L 320.53 684.52 L 320.53 679.09 M 325.96 700.82 L 320.53 700.82 L 320.53 706.25 M 325.96 684.52 L 353.13 684.52 M 325.96 700.82 L 353.13 700.82 M 331.4 679.09 L 331.4 684.52 M 347.69 679.09 L 347.69 684.52 M 331.4 700.82 L 331.4 706.25 M 347.69 700.82 L 347.69 706.25 M 353.13 684.52 L 380.29 684.52 M 353.13 700.82 L 358.56 700.82 L 358.56 706.25 M 380.29 700.82 L 374.86 700.82 L 374.86 706.25 M 380.29 684.52 L 407.45 684.52 M 380.29 700.82 L 407.45 700.82 M 385.72 679.09 L 385.72 684.52 M 402.02 679.09 L 402.02 684.52 M 385.72 700.82 L 385.72 706.25 M 402.02 700.82 L 402.02 706.25 M 407.45 700.82 L 434.62 700.82 M 412.89 679.09 L 412.89 684.52 L 407.45 684.52 M 434.62 684.52 L 429.19 684.52 L 429.19 679.09 M 440.05 679.09 L 440.05 706.25 M 456.35 679.09 L 456.35 706.25 M 434.62 684.52 L 440.05 684.52 M 434.62 700.82 L 440.05 700.82 M 461.78 684.52 L 456.35 684.52 M 461.78 700.82 L 456.35 700.82 M 461.78 684.52 L 488.95 684.52 M 461.78 700.82 L 467.21 700.82 L 467.21 706.25 M 488.95 700.82 L 483.51 700.82 L 483.51 706.25 M 494.38 679.09 L 494.38 684.52 L 488.95 684.52 M 510.68 679.09 L 510.68 700.82 L 488.95 700.82 M 537.84 679.09 L 537.84 682.15 L 537.84 700.82 L 521.54 700.82 L 521.54 679.09 M 27.16 727.99 L 5.43 727.99 L 5.43 711.69 L 27.16 711.69 M 27.16 727.99 L 54.33 727.99 M 32.6 706.25 L 32.6 711.69 L 27.16 711.69 M 54.33 711.69 L 48.89 711.69 L 48.89 706.25 M 54.33 711.69 L 81.49 711.69 M 54.33 727.99 L 81.49 727.99 M 59.76 706.25 L 59.76 711.69 M 76.06 706.25 L 76.06 711.69 M 59.76 727.99 L 59.76 733.42 M 76.06 727.99 L 76.06 733.42 M 81.49 727.99 L 86.92 727.99 L 86.92 733.42 M 81.49 711.69 L 103.22 711.69 L 103.22 733.42 M 135.82 727.99 L 114.09 727.99 L 114.09 711.69 L 135.82 711.69 M 135.82 727.99 L 162.98 727.99 M 141.25 706.25 L 141.25 711.69 L 135.82 711.69 M 162.98 711.69 L 157.55 711.69 L 157.55 706.25 M 168.41 706.25 L 168.41 733.42 M 184.71 706.25 L 184.71 733.42 M 162.98 711.69 L 168.41 711.69 M 162.98 727.99 L 168.41 727.99 M 190.15 711.69 L 184.71 711.69 M 190.15 727.99 L 184.71 727.99 M 190.15 711.69 L 217.31 711.69 M 190.15 727.99 L 217.31 727.99 M 217.31 727.99 L 222.74 727.99 L 222.74 733.42 M 217.31 711.69 L 239.04 711.69 L 239.04 733.42 M 271.64 727.99 L 249.91 727.99 L 249.91 711.69 L 271.64 711.69 M 277.07 706.25 L 277.07 711.69 L 271.64 711.69 M 271.64 727.99 L 277.07 727.99 L 277.07 733.42 M 298.8 711.69 L 293.37 711.69 L 293.37 706.25 M 298.8 727.99 L 293.37 727.99 L 293.37 733.42 M 298.8 711.69 L 325.96 711.69 M 298.8 727.99 L 325.96 727.99 M 304.23 706.25 L 304.23 711.69 M 320.53 706.25 L 320.53 711.69 M 304.23 727.99 L 304.23 733.42 M 320.53 727.99 L 320.53 733.42 M 325.96 727.99 L 353.13 727.99 M 331.4 706.25 L 331.4 711.69 L 325.96 711.69 M 353.13 711.69 L 347.69 711.69 L 347.69 706.25 M 353.13 711.69 L 380.29 711.69 M 353.13 727.99 L 380.29 727.99 M 358.56 706.25 L 358.56 711.69 M 374.86 706.25 L 374.86 711.69 M 358.56 727.99 L 358.56 733.42 M 374.86 727.99 L 374.86 733.42 M 402.02 706.25 L 402.02 733.42 M 385.72 706.25 L 385.72 711.69 L 380.29 711.69 M 380.29 727.99 L 385.72 727.99 L 385.72 733.42 M 429.19 733.42 L 429.19 711.69 L 412.89 711.69 L 412.89 733.42 M 461.78 711.69 L 456.35 711.69 L 456.35 706.25 M 461.78 727.99 L 440.05 727.99 L 440.05 706.25 M 467.21 706.25 L 467.21 733.42 M 483.51 706.25 L 483.51 733.42 M 461.78 711.69 L 467.21 711.69 M 461.78 727.99 L 467.21 727.99 M 488.95 711.69 L 483.51 711.69 M 488.95 727.99 L 483.51 727.99 M 488.95 711.69 L 516.11 711.69 M 488.95 727.99 L 494.38 727.99 L 494.38 733.42 M 516.11 727.99 L 510.68 727.99 L 510.68 733.42 M 516.11 727.99 L 537.84 727.99 L 537.84 711.69 L 516.11 711.69 M 27.16 755.15 L 21.73 755.15 L 21.73 760.58 M 27.16 738.85 L 5.43 738.85 L 5.43 760.58 M 27.16 738.85 L 54.33 738.85 M 27.16 755.15 L 54.33 755.15 M 59.76 733.42 L 59.76 738.85 L 54.33 738.85 M 54.33 755.15 L 59.76 755.15 L 59.76 760.58 M 81.49 738.85 L 76.06 738.85 L 76.06 733.42 M 81.49 755.15 L 76.06 755.15 L 76.06 760.58 M 81.49 738.85 L 108.65 738.85 M 81.49 755.15 L 108.65 755.15 M 86.92 733.42 L 86.92 738.85 M 103.22 733.42 L 103.22 738.85 M 86.92 755.15 L 86.92 760.58 M 103.22 755.15 L 103.22 760.58 M 108.65 738.85 L 135.82 738.85 M 108.65 755.15 L 114.09 755.15 L 114.09 760.58 M 135.82 755.15 L 130.39 755.15 L 130.39 760.58 M 135.82 755.15 L 157.55 755.15 L 157.55 738.85 L 135.82 738.85 M 184.71 733.42 L 184.71 736.48 L 184.71 755.15 L 168.41 755.15 L 168.41 733.42 M 217.31 755.15 L 211.88 755.15 L 211.88 760.58 M 217.31 738.85 L 195.58 738.85 L 195.58 760.58 M 217.31 738.85 L 244.47 738.85 M 217.31 755.15 L 244.47 755.15 M 222.74 733.42 L 222.74 738.85 M 239.04 733.42 L 239.04 738.85 M 222.74 755.15 L 222.74 760.58 M 239.04 755.15 L 239.04 760.58 M 244.47 738.85 L 271.64 738.85 M 244.47 755.15 L 249.91 755.15 L 249.91 760.58 M 271.64 755.15 L 266.2 755.15 L 266.2 760.58 M 277.07 733.42 L 277.07 760.58 M 293.37 733.42 L 293.37 760.58 M 271.64 738.85 L 277.07 738.85 M 271.64 755.15 L 277.07 755.15 M 298.8 738.85 L 293.37 738.85 M 298.8 755.15 L 293.37 755.15 M 304.23 733.42 L 304.23 738.85 L 298.8 738.85 M 320.53 733.42 L 320.53 755.15 L 298.8 755.15 M 347.69 760.58 L 347.69 738.85 L 331.4 738.85 L 331.4 760.58 M 358.56 733.42 L 358.56 760.58 M 380.29 738.85 L 374.86 738.85 L 374.86 733.42 M 380.29 755.15 L 374.86 755.15 L 374.86 760.58 M 380.29 738.85 L 407.45 738.85 M 380.29 755.15 L 407.45 755.15 M 385.72 733.42 L 385.72 738.85 M 402.02 733.42 L 402.02 738.85 M 385.72 755.15 L 385.72 760.58 M 402.02 755.15 L 402.02 760.58 M 407.45 755.15 L 434.62 755.15 M 412.89 733.42 L 412.89 738.85 L 407.45 738.85 M 434.62 738.85 L 429.19 738.85 L 429.19 733.42 M 434.62 755.15 L 440.05 755.15 L 440.05 760.58 M 434.62 738.85 L 456.35 738.85 L 456.35 760.58 M 467.21 733.42 L 467.21 760.58 M 488.95 738.85 L 483.51 738.85 L 483.51 733.42 M 488.95 755.15 L 483.51 755.15 L 483.51 760.58 M 488.95 738.85 L 516.11 738.85 M 488.95 755.15 L 516.11 755.15 M 494.38 733.42 L 494.38 738.85 M 510.68 733.42 L 510.68 738.85 M 494.38 755.15 L 494.38 760.58 M 510.68 755.15 L 510.68 760.58 M 516.11 755.15 L 537.84 755.15 L 537.84 738.85 L 516.11 738.85 M 27.16 766.01 L 21.73 766.01 L 21.73 760.58 M 27.16 782.31 L 5.43 782.31 L 5.43 760.58 M 27.16 782.31 L 32.6 782.31 L 32.6 787.75 M 27.16 766.01 L 48.89 766.01 L 48.89 787.75 M 76.06 760.58 L 76.06 763.64 L 76.06 782.31 L 59.76 782.31 L 59.76 760.58 M 108.65 766.01 L 103.22 766.01 L 103.22 760.58 M 108.65 782.31 L 86.92 782.31 L 86.92 760.58 M 108.65 766.01 L 135.82 766.01 M 108.65 782.31 L 135.82 782.31 M 114.09 760.58 L 114.09 766.01 M 130.39 760.58 L 130.39 766.01 M 114.09 782.31 L 114.09 787.75 M 130.39 782.31 L 130.39 787.75 M 135.82 782.31 L 157.55 782.31 L 157.55 766.01 L 135.82 766.01 M 190.15 782.31 L 168.41 782.31 L 168.41 766.01 L 190.15 766.01 M 190.15 766.01 L 217.31 766.01 M 190.15 782.31 L 217.31 782.31 M 195.58 760.58 L 195.58 766.01 M 211.88 760.58 L 211.88 766.01 M 195.58 782.31 L 195.58 787.75 M 211.88 782.31 L 211.88 787.75 M 217.31 782.31 L 244.47 782.31 M 222.74 760.58 L 222.74 766.01 L 217.31 766.01 M 244.47 766.01 L 239.04 766.01 L 239.04 760.58 M 249.91 760.58 L 249.91 787.75 M 266.2 760.58 L 266.2 787.75 M 244.47 766.01 L 249.91 766.01 M 244.47 782.31 L 249.91 782.31 M 271.64 766.01 L 266.2 766.01 M 271.64 782.31 L 266.2 782.31 M 271.64 782.31 L 298.8 782.31 M 277.07 760.58 L 277.07 766.01 L 271.64 766.01 M 298.8 766.01 L 293.37 766.01 L 293.37 760.58 M 298.8 782.31 L 320.53 782.31 L 320.53 766.01 L 298.8 766.01 M 353.13 766.01 L 347.69 766.01 L 347.69 760.58 M 353.13 782.31 L 331.4 782.31 L 331.4 760.58 M 353.13 766.01 L 380.29 766.01 M 353.13 782.31 L 380.29 782.31 M 358.56 760.58 L 358.56 766.01 M 374.86 760.58 L 374.86 766.01 M 358.56 782.31 L 358.56 787.75 M 374.86 782.31 L 374.86 787.75 M 402.02 760.58 L 402.02 787.75 M 385.72 760.58 L 385.72 766.01 L 380.29 766.01 M 380.29 782.31 L 385.72 782.31 L 385.72 787.75 M 434.62 782.31 L 429.19 782.31 L 429.19 787.75 M 434.62 766.01 L 412.89 766.01 L 412.89 787.75 M 434.62 766.01 L 461.78 766.01 M 434.62 782.31 L 461.78 782.31 M 440.05 760.58 L 440.05 766.01 M 456.35 760.58 L 456.35 766.01 M 440.05 782.31 L 440.05 787.75 M 456.35 782.31 L 456.35 787.75 M 467.21 760.58 L 467.21 766.01 L 461.78 766.01 M 483.51 760.58 L 483.51 782.31 L 461.78 782.31 M 516.11 766.01 L 510.68 766.01 L 510.68 760.58 M 516.11 782.31 L 494.38 782.31 L 494.38 760.58 M 516.11 782.31 L 521.54 782.31 L 521.54 787.75 M 516.11 766.01 L 537.84 766.01 L 537.84 787.75 M 27.16 809.48 L 5.43 809.48 L 5.43 793.18 L 27.16 793.18 M 32.6 787.75 L 32.6 793.18 L 27.16 793.18 M 48.89 787.75 L 48.89 809.48 L 27.16 809.48 M 81.49 809.48 L 59.76 809.48 L 59.76 793.18 L 81.49 793.18 M 81.49 793.18 L 108.65 793.18 M 81.49 809.48 L 108.65 809.48 M 108.65 809.48 L 135.82 809.48 M 114.09 787.75 L 114.09 793.18 L 108.65 793.18 M 135.82 793.18 L 130.39 793.18 L 130.39 787.75 M 135.82 793.18 L 162.98 793.18 M 135.82 809.48 L 162.98 809.48 M 162.98 809.48 L 184.71 809.48 L 184.71 793.18 L 162.98 793.18 M 211.88 787.75 L 211.88 790.81 L 211.88 809.48 L 195.58 809.48 L 195.58 787.75 M 244.47 809.48 L 222.74 809.48 L 222.74 793.18 L 244.47 793.18 M 244.47 809.48 L 271.64 809.48 M 249.91 787.75 L 249.91 793.18 L 244.47 793.18 M 271.64 793.18 L 266.2 793.18 L 266.2 787.75 M 271.64 809.48 L 293.37 809.48 L 293.37 793.18 L 271.64 793.18 M 325.96 809.48 L 304.23 809.48 L 304.23 793.18 L 325.96 793.18 M 325.96 793.18 L 353.13 793.18 M 325.96 809.48 L 353.13 809.48 M 358.56 787.75 L 358.56 793.18 L 353.13 793.18 M 374.86 787.75 L 374.86 809.48 L 353.13 809.48 M 402.02 787.75 L 402.02 790.81 L 402.02 809.48 L 385.72 809.48 L 385.72 787.75 M 429.19 787.75 L 429.19 790.81 L 429.19 809.48 L 412.89 809.48 L 412.89 787.75 M 461.78 793.18 L 456.35 793.18 L 456.35 787.75 M 461.78 809.48 L 440.05 809.48 L 440.05 787.75 M 461.78 793.18 L 488.95 793.18 M 461.78 809.48 L 488.95 809.48 M 488.95 809.48 L 510.68 809.48 L 510.68 793.18 L 488.95 793.18 " /> <circle cx="13.58" cy="13.58" r="9.05" fill-opacity="1.0" stroke-opacity="0" fill="#E51919" /><circle cx="529.69" cy="801.33" r="9.05" fill-opacity="1.0" stroke-opacity="0" fill="#E51919" />  </svg>