<svg id="maze" width="29" height="20" stroke-width="3" fill-opacity="0.0" stroke="#000">
          <path stroke-linecap="round" 
            d="M29.05 23.24
L25.77 23.24 A11.62 11.62 0 0 0 20.15 24.69
L20.15 24.69 A11.62 11.62 0 1 1 20.15 4.36
L20.15 4.36 A11.62 11.62 0 0 0 25.77 5.81
L29.05 5.81
M29.05 5.81
L58.1 5.81
M29.05 23.24
L29.05 23.24 A5.81 5.81 0 0 1 34.86 29.05
L34.86 29.05
M58.1 23.24
L58.1 23.24 A5.81 5.81 0 0 0 52.29 29.05
L52.29 29.05
M58.1 23.24
L61.37 23.24 A11.62 11.62 0 0 1 67 24.69
L67 24.69 A11.62 11.62 0 1 0 67 4.36
L67 4.36 A11.62 11.62 0 0 1 61.37 5.81
L58.1 5.81
M116.19 23.24
L116.19 23.24 A5.81 5.81 0 0 0 110.38 29.05
L110.38 29.05
M116.19 5.81
L116.19 5.81 A23.24 23.24 0 0 0 92.95 29.05
L92.95 29.05
M116.19 23.24
L116.19 23.24 A5.81 5.81 0 0 1 122 29.05
L122 29.05
M116.19 5.81
L122 5.81 A17.43 17.43 0 0 1 139.43 23.24
L139.43 29.05
M174.29 23.24
L171.02 23.24 A11.62 11.62 0 0 0 165.39 24.69
L165.39 24.69 A11.62 11.62 0 1 1 165.39 4.36
L165.39 4.36 A11.62 11.62 0 0 0 171.02 5.81
L174.29 5.81
M174.29 5.81
L203.34 5.81
M174.29 23.24
L174.29 23.24 A5.81 5.81 0 0 1 180.1 29.05
L180.1 29.05
M203.34 23.24
L203.34 23.24 A5.81 5.81 0 0 0 197.53 29.05
L197.53 29.05
M203.34 23.24
L206.61 23.24 A11.62 11.62 0 0 1 212.24 24.69
L212.24 24.69 A11.62 11.62 0 1 0 212.24 4.36
L212.24 4.36 A11.62 11.62 0 0 1 206.61 5.81
L203.34 5.81
M255.62 29.05
L255.62 25.77 A11.62 11.62 0 0 1 257.08 20.15
L257.08 20.15 A11.62 11.62 0 1 0 236.74 20.15
L236.74 20.15 A11.62 11.62 0 0 1 238.2 25.77
L238.2 29.05
M284.67 29.05
L284.67 25.77 A11.62 11.62 0 0 1 286.13 20.15
L286.13 20.15 A11.62 11.62 0 1 0 265.79 20.15
L265.79 20.15 A11.62 11.62 0 0 1 267.24 25.77
L267.24 29.05
M319.53 23.24
L316.26 23.24 A11.62 11.62 0 0 0 310.63 24.69
L310.63 24.69 A11.62 11.62 0 1 1 310.63 4.36
L310.63 4.36 A11.62 11.62 0 0 0 316.26 5.81
L319.53 5.81
M319.53 5.81
L348.58 5.81
M319.53 23.24
L319.53 23.24 A5.81 5.81 0 0 1 325.34 29.05
L325.34 29.05
M348.58 23.24
L348.58 23.24 A5.81 5.81 0 0 0 342.77 29.05
L342.77 29.05
M348.58 23.24
L351.85 23.24 A11.62 11.62 0 0 1 357.48 24.69
L357.48 24.69 A11.62 11.62 0 1 0 357.48 4.36
L357.48 4.36 A11.62 11.62 0 0 1 351.85 5.81
L348.58 5.81
M406.68 23.24
L406.68 23.24 A5.81 5.81 0 0 0 400.87 29.05
L400.87 29.05
M406.68 5.81
L406.68 5.81 A23.24 23.24 0 0 0 383.44 29.05
L383.44 29.05
M406.68 23.24
L409.95 23.24 A11.62 11.62 0 0 1 415.57 24.69
L415.57 24.69 A11.62 11.62 0 1 0 415.57 4.36
L415.57 4.36 A11.62 11.62 0 0 1 409.95 5.81
L406.68 5.81
M458.96 29.05
L458.96 25.77 A11.62 11.62 0 0 1 460.42 20.15
L460.42 20.15 A11.62 11.62 0 1 0 440.08 20.15
L440.08 20.15 A11.62 11.62 0 0 1 441.53 25.77
L441.53 29.05
M488.01 29.05
L488.01 25.77 A11.62 11.62 0 0 1 489.46 20.15
L489.46 20.15 A11.62 11.62 0 1 0 469.13 20.15
L469.13 20.15 A11.62 11.62 0 0 1 470.58 25.77
L470.58 29.05
M517.06 29.05
L517.06 25.77 A11.62 11.62 0 0 1 518.51 20.15
L518.51 20.15 A11.62 11.62 0 1 0 498.18 20.15
L498.18 20.15 A11.62 11.62 0 0 1 499.63 25.77
L499.63 29.05
M551.92 23.24
L551.92 23.24 A5.81 5.81 0 0 0 546.11 29.05
L546.11 29.05
M551.92 5.81
L551.92 5.81 A23.24 23.24 0 0 0 528.68 29.05
L528.68 29.05
M551.92 23.24
L555.19 23.24 A11.62 11.62 0 0 1 560.82 24.69
L560.82 24.69 A11.62 11.62 0 1 0 560.82 4.36
L560.82 4.36 A11.62 11.62 0 0 1 555.19 5.81
L551.92 5.81
M604.2 29.05
L604.2 25.77 A11.62 11.62 0 0 1 605.66 20.15
L605.66 20.15 A11.62 11.62 0 1 0 585.32 20.15
L585.32 20.15 A11.62 11.62 0 0 1 586.78 25.77
L586.78 29.05
M633.25 29.05
L633.25 25.77 A11.62 11.62 0 0 1 634.7 20.15
L634.7 20.15 A11.62 11.62 0 1 0 614.37 20.15
L614.37 20.15 A11.62 11.62 0 0 1 615.82 25.77
L615.82 29.05
M668.11 23.24
L668.11 23.24 A5.81 5.81 0 0 0 662.3 29.05
L662.3 29.05
M668.11 5.81
L668.11 5.81 A23.24 23.24 0 0 0 644.87 29.05
L644.87 29.05
M668.11 23.24
L697.16 23.24
M668.11 5.81
L697.16 5.81
M697.16 23.24
L726.21 23.24
M697.16 5.81
L726.21 5.81
M726.21 23.24
L729.48 23.24 A11.62 11.62 0 0 1 735.11 24.69
L735.11 24.69 A11.62 11.62 0 1 0 735.11 4.36
L735.11 4.36 A11.62 11.62 0 0 1 729.48 5.81
L726.21 5.81
M784.3 23.24
L781.03 23.24 A11.62 11.62 0 0 0 775.4 24.69
L775.4 24.69 A11.62 11.62 0 1 1 775.4 4.36
L775.4 4.36 A11.62 11.62 0 0 0 781.03 5.81
L784.3 5.81
M29.05 52.29
L25.77 52.29 A11.62 11.62 0 0 0 20.15 53.74
L20.15 53.74 A11.62 11.62 0 1 1 20.15 33.41
L20.15 33.41 A11.62 11.62 0 0 0 25.77 34.86
L29.05 34.86
M34.86 58.1
L34.86 29.05
M52.29 58.1
L52.29 29.05
M29.05 34.86
L34.86 34.86
M29.05 52.29
L34.86 52.29
M58.1 34.86
L52.29 34.86
M58.1 52.29
L52.29 52.29
M58.1 52.29
L58.1 52.29 A5.81 5.81 0 0 1 63.91 58.1
L63.91 58.1
M58.1 34.86
L63.91 34.86 A17.43 17.43 0 0 1 81.34 52.29
L81.34 58.1
M92.95 58.1
L92.95 29.05
M116.19 34.86
L116.19 34.86 A5.81 5.81 0 0 1 110.38 29.05
L110.38 29.05
M116.19 52.29
L116.19 52.29 A5.81 5.81 0 0 0 110.38 58.1
L110.38 58.1
M122 58.1
L122 29.05
M139.43 58.1
L139.43 29.05
M116.19 34.86
L122 34.86
M116.19 52.29
L122 52.29
M145.24 34.86
L139.43 34.86
M145.24 52.29
L139.43 52.29
M145.24 34.86
L174.29 34.86
M145.24 52.29
L145.24 52.29 A5.81 5.81 0 0 1 151.05 58.1
L151.05 58.1
M174.29 52.29
L174.29 52.29 A5.81 5.81 0 0 0 168.48 58.1
L168.48 58.1
M174.29 52.29
L203.34 52.29
M174.29 34.86
L203.34 34.86
M180.1 34.86
L180.1 29.05
M180.1 52.29
L180.1 58.1
M197.53 34.86
L197.53 29.05
M197.53 52.29
L197.53 58.1
M203.34 52.29
L203.34 52.29 A5.81 5.81 0 0 1 209.15 58.1
L209.15 58.1
M203.34 34.86
L209.15 34.86 A17.43 17.43 0 0 1 226.58 52.29
L226.58 58.1
M261.43 34.86
L261.43 34.86 A5.81 5.81 0 0 1 255.62 29.05
L255.62 29.05
M261.43 52.29
L255.62 52.29 A17.43 17.43 0 0 1 238.2 34.86
L238.2 29.05
M261.43 52.29
L290.48 52.29
M261.43 34.86
L290.48 34.86
M267.24 34.86
L267.24 29.05
M267.24 52.29
L267.24 58.1
M284.67 34.86
L284.67 29.05
M284.67 52.29
L284.67 58.1
M290.48 52.29
L319.53 52.29
M290.48 34.86
L319.53 34.86
M319.53 52.29
L348.58 52.29
M319.53 34.86
L348.58 34.86
M325.34 34.86
L325.34 29.05
M325.34 52.29
L325.34 58.1
M342.77 34.86
L342.77 29.05
M342.77 52.29
L342.77 58.1
M348.58 52.29
L377.63 52.29
M348.58 34.86
L377.63 34.86
M383.44 58.1
L383.44 29.05
M400.87 58.1
L400.87 29.05
M377.63 34.86
L383.44 34.86
M377.63 52.29
L383.44 52.29
M406.68 34.86
L400.87 34.86
M406.68 52.29
L400.87 52.29
M406.68 34.86
L435.72 34.86
M406.68 52.29
L406.68 52.29 A5.81 5.81 0 0 1 412.49 58.1
L412.49 58.1
M435.72 52.29
L435.72 52.29 A5.81 5.81 0 0 0 429.91 58.1
L429.91 58.1
M441.53 58.1
L441.53 29.05
M458.96 58.1
L458.96 29.05
M435.72 34.86
L441.53 34.86
M435.72 52.29
L441.53 52.29
M464.77 34.86
L458.96 34.86
M464.77 52.29
L458.96 52.29
M488.01 58.1
L488.01 29.05
M470.58 29.05
L470.58 29.05 A5.81 5.81 0 0 1 464.77 34.86
L464.77 34.86
M464.77 52.29
L464.77 52.29 A5.81 5.81 0 0 1 470.58 58.1
L470.58 58.1
M499.63 58.1
L499.63 29.05
M522.87 34.86
L522.87 34.86 A5.81 5.81 0 0 1 517.06 29.05
L517.06 29.05
M522.87 52.29
L522.87 52.29 A5.81 5.81 0 0 0 517.06 58.1
L517.06 58.1
M528.68 58.1
L528.68 29.05
M546.11 58.1
L546.11 29.05
M522.87 34.86
L528.68 34.86
M522.87 52.29
L528.68 52.29
M551.92 34.86
L546.11 34.86
M551.92 52.29
L546.11 52.29
M551.92 34.86
L580.97 34.86
M551.92 52.29
L551.92 52.29 A5.81 5.81 0 0 1 557.73 58.1
L557.73 58.1
M580.97 52.29
L580.97 52.29 A5.81 5.81 0 0 0 575.16 58.1
L575.16 58.1
M580.97 52.29
L610.01 52.29
M580.97 34.86
L610.01 34.86
M586.78 34.86
L586.78 29.05
M586.78 52.29
L586.78 58.1
M604.2 34.86
L604.2 29.05
M604.2 52.29
L604.2 58.1
M615.82 29.05
L615.82 29.05 A5.81 5.81 0 0 1 610.01 34.86
L610.01 34.86
M610.01 52.29
L610.01 52.29 A5.81 5.81 0 0 1 615.82 58.1
L615.82 58.1
M639.06 34.86
L639.06 34.86 A5.81 5.81 0 0 1 633.25 29.05
L633.25 29.05
M639.06 52.29
L639.06 52.29 A5.81 5.81 0 0 0 633.25 58.1
L633.25 58.1
M644.87 58.1
L644.87 29.05
M662.3 58.1
L662.3 29.05
M639.06 34.86
L644.87 34.86
M639.06 52.29
L644.87 52.29
M668.11 34.86
L662.3 34.86
M668.11 52.29
L662.3 52.29
M668.11 52.29
L697.16 52.29
M668.11 34.86
L697.16 34.86
M697.16 34.86
L726.21 34.86
M697.16 52.29
L697.16 52.29 A5.81 5.81 0 0 1 702.97 58.1
L702.97 58.1
M726.21 52.29
L726.21 52.29 A5.81 5.81 0 0 0 720.4 58.1
L720.4 58.1
M726.21 52.29
L729.48 52.29 A11.62 11.62 0 0 1 735.11 53.74
L735.11 53.74 A11.62 11.62 0 1 0 735.11 33.41
L735.11 33.41 A11.62 11.62 0 0 1 729.48 34.86
L726.21 34.86
M778.49 58.1
L778.49 54.82 A11.62 11.62 0 0 1 779.95 49.2
L779.95 49.2 A11.62 11.62 0 1 0 759.61 49.2
L759.61 49.2 A11.62 11.62 0 0 1 761.06 54.82
L761.06 58.1
M790.11 58.1
L790.11 29.05
M807.54 58.1
L807.54 29.05
M23.24 87.14
L23.24 83.87 A11.62 11.62 0 0 1 24.69 78.25
L24.69 78.25 A11.62 11.62 0 1 0 4.36 78.25
L4.36 78.25 A11.62 11.62 0 0 1 5.81 83.87
L5.81 87.14
M34.86 87.14
L34.86 58.1
M58.1 63.91
L58.1 63.91 A5.81 5.81 0 0 1 52.29 58.1
L52.29 58.1
M58.1 81.34
L58.1 81.34 A5.81 5.81 0 0 0 52.29 87.14
L52.29 87.14
M63.91 87.14
L63.91 58.1
M81.34 87.14
L81.34 58.1
M58.1 63.91
L63.91 63.91
M58.1 81.34
L63.91 81.34
M87.14 63.91
L81.34 63.91
M87.14 81.34
L81.34 81.34
M110.38 87.14
L110.38 58.1
M92.95 58.1
L92.95 58.1 A5.81 5.81 0 0 1 87.14 63.91
L87.14 63.91
M87.14 81.34
L87.14 81.34 A5.81 5.81 0 0 1 92.95 87.14
L92.95 87.14
M139.43 58.1
L139.43 61.37
L139.43 61.37 A11.62 11.62 0 0 0 140.88 67
L140.88 67 A11.62 11.62 0 1 1 120.55 67
L120.55 67 A11.62 11.62 0 0 0 122 61.37
L122 58.1
M168.48 58.1
L168.48 61.37
L168.48 61.37 A11.62 11.62 0 0 0 169.93 67
L169.93 67 A11.62 11.62 0 1 1 149.6 67
L149.6 67 A11.62 11.62 0 0 0 151.05 61.37
L151.05 58.1
M180.1 87.14
L180.1 58.1
M203.34 63.91
L203.34 63.91 A5.81 5.81 0 0 1 197.53 58.1
L197.53 58.1
M203.34 81.34
L203.34 81.34 A5.81 5.81 0 0 0 197.53 87.14
L197.53 87.14
M203.34 81.34
L232.39 81.34
M203.34 63.91
L232.39 63.91
M209.15 63.91
L209.15 58.1
M209.15 81.34
L209.15 87.14
M226.58 63.91
L226.58 58.1
M226.58 81.34
L226.58 87.14
M232.39 81.34
L232.39 81.34 A5.81 5.81 0 0 1 238.2 87.14
L238.2 87.14
M232.39 63.91
L238.2 63.91 A17.43 17.43 0 0 1 255.62 81.34
L255.62 87.14
M290.48 63.91
L290.48 63.91 A5.81 5.81 0 0 1 284.67 58.1
L284.67 58.1
M290.48 81.34
L284.67 81.34 A17.43 17.43 0 0 1 267.24 63.91
L267.24 58.1
M290.48 81.34
L290.48 81.34 A5.81 5.81 0 0 1 296.29 87.14
L296.29 87.14
M290.48 63.91
L296.29 63.91 A17.43 17.43 0 0 1 313.72 81.34
L313.72 87.14
M325.34 87.14
L325.34 58.1
M342.77 87.14
L342.77 58.1
M371.82 87.14
L371.82 83.87 A11.62 11.62 0 0 1 373.27 78.25
L373.27 78.25 A11.62 11.62 0 1 0 352.94 78.25
L352.94 78.25 A11.62 11.62 0 0 1 354.39 83.87
L354.39 87.14
M406.68 63.91
L406.68 63.91 A5.81 5.81 0 0 1 400.87 58.1
L400.87 58.1
M406.68 81.34
L400.87 81.34 A17.43 17.43 0 0 1 383.44 63.91
L383.44 58.1
M406.68 81.34
L435.72 81.34
M406.68 63.91
L435.72 63.91
M412.49 63.91
L412.49 58.1
M412.49 81.34
L412.49 87.14
M429.91 63.91
L429.91 58.1
M429.91 81.34
L429.91 87.14
M441.53 58.1
L441.53 58.1 A5.81 5.81 0 0 1 435.72 63.91
L435.72 63.91
M435.72 81.34
L435.72 81.34 A5.81 5.81 0 0 1 441.53 87.14
L441.53 87.14
M464.77 63.91
L464.77 63.91 A5.81 5.81 0 0 1 458.96 58.1
L458.96 58.1
M464.77 81.34
L464.77 81.34 A5.81 5.81 0 0 0 458.96 87.14
L458.96 87.14
M464.77 81.34
L493.82 81.34
M464.77 63.91
L493.82 63.91
M470.58 63.91
L470.58 58.1
M470.58 81.34
L470.58 87.14
M488.01 63.91
L488.01 58.1
M488.01 81.34
L488.01 87.14
M499.63 58.1
L499.63 58.1 A5.81 5.81 0 0 1 493.82 63.91
L493.82 63.91
M517.06 58.1
L517.06 63.91 A17.43 17.43 0 0 1 499.63 81.34
L493.82 81.34
M551.92 63.91
L551.92 63.91 A5.81 5.81 0 0 1 546.11 58.1
L546.11 58.1
M551.92 81.34
L546.11 81.34 A17.43 17.43 0 0 1 528.68 63.91
L528.68 58.1
M557.73 87.14
L557.73 58.1
M575.16 87.14
L575.16 58.1
M551.92 63.91
L557.73 63.91
M551.92 81.34
L557.73 81.34
M580.97 63.91
L575.16 63.91
M580.97 81.34
L575.16 81.34
M580.97 81.34
L610.01 81.34
M586.78 58.1
L586.78 58.1 A5.81 5.81 0 0 1 580.97 63.91
L580.97 63.91
M610.01 63.91
L610.01 63.91 A5.81 5.81 0 0 1 604.2 58.1
L604.2 58.1
M615.82 87.14
L615.82 58.1
M633.25 87.14
L633.25 58.1
M610.01 63.91
L615.82 63.91
M610.01 81.34
L615.82 81.34
M639.06 63.91
L633.25 63.91
M639.06 81.34
L633.25 81.34
M662.3 87.14
L662.3 58.1
M644.87 58.1
L644.87 58.1 A5.81 5.81 0 0 1 639.06 63.91
L639.06 63.91
M639.06 81.34
L639.06 81.34 A5.81 5.81 0 0 1 644.87 87.14
L644.87 87.14
M697.16 81.34
L693.88 81.34 A11.62 11.62 0 0 0 688.26 82.79
L688.26 82.79 A11.62 11.62 0 1 1 688.26 62.45
L688.26 62.45 A11.62 11.62 0 0 0 693.88 63.91
L697.16 63.91
M697.16 81.34
L726.21 81.34
M697.16 63.91
L726.21 63.91
M702.97 63.91
L702.97 58.1
M702.97 81.34
L702.97 87.14
M720.4 63.91
L720.4 58.1
M720.4 81.34
L720.4 87.14
M726.21 81.34
L726.21 81.34 A5.81 5.81 0 0 1 732.02 87.14
L732.02 87.14
M726.21 63.91
L732.02 63.91 A17.43 17.43 0 0 1 749.45 81.34
L749.45 87.14
M761.06 87.14
L761.06 58.1
M784.3 63.91
L784.3 63.91 A5.81 5.81 0 0 1 778.49 58.1
L778.49 58.1
M784.3 81.34
L784.3 81.34 A5.81 5.81 0 0 0 778.49 87.14
L778.49 87.14
M790.11 58.1
L790.11 58.1 A5.81 5.81 0 0 1 784.3 63.91
L784.3 63.91
M807.54 58.1
L807.54 63.91 A17.43 17.43 0 0 1 790.11 81.34
L784.3 81.34
M29.05 92.95
L29.05 92.95 A5.81 5.81 0 0 1 23.24 87.14
L23.24 87.14
M29.05 110.38
L23.24 110.38 A17.43 17.43 0 0 1 5.81 92.95
L5.81 87.14
M29.05 110.38
L58.1 110.38
M29.05 92.95
L58.1 92.95
M34.86 92.95
L34.86 87.14
M34.86 110.38
L34.86 116.19
M52.29 92.95
L52.29 87.14
M52.29 110.38
L52.29 116.19
M58.1 110.38
L87.14 110.38
M63.91 87.14
L63.91 87.14 A5.81 5.81 0 0 1 58.1 92.95
L58.1 92.95
M87.14 92.95
L87.14 92.95 A5.81 5.81 0 0 1 81.34 87.14
L81.34 87.14
M87.14 110.38
L116.19 110.38
M87.14 92.95
L116.19 92.95
M92.95 92.95
L92.95 87.14
M92.95 110.38
L92.95 116.19
M110.38 92.95
L110.38 87.14
M110.38 110.38
L110.38 116.19
M116.19 110.38
L116.19 110.38 A5.81 5.81 0 0 1 122 116.19
L122 116.19
M116.19 92.95
L122 92.95 A17.43 17.43 0 0 1 139.43 110.38
L139.43 116.19
M174.29 110.38
L171.02 110.38 A11.62 11.62 0 0 0 165.39 111.84
L165.39 111.84 A11.62 11.62 0 1 1 165.39 91.5
L165.39 91.5 A11.62 11.62 0 0 0 171.02 92.95
L174.29 92.95
M174.29 110.38
L203.34 110.38
M174.29 92.95
L203.34 92.95
M180.1 92.95
L180.1 87.14
M180.1 110.38
L180.1 116.19
M197.53 92.95
L197.53 87.14
M197.53 110.38
L197.53 116.19
M203.34 110.38
L232.39 110.38
M209.15 87.14
L209.15 87.14 A5.81 5.81 0 0 1 203.34 92.95
L203.34 92.95
M232.39 92.95
L232.39 92.95 A5.81 5.81 0 0 1 226.58 87.14
L226.58 87.14
M238.2 116.19
L238.2 87.14
M255.62 116.19
L255.62 87.14
M232.39 92.95
L238.2 92.95
M232.39 110.38
L238.2 110.38
M261.43 92.95
L255.62 92.95
M261.43 110.38
L255.62 110.38
M261.43 92.95
L290.48 92.95
M261.43 110.38
L261.43 110.38 A5.81 5.81 0 0 1 267.24 116.19
L267.24 116.19
M290.48 110.38
L290.48 110.38 A5.81 5.81 0 0 0 284.67 116.19
L284.67 116.19
M290.48 110.38
L319.53 110.38
M290.48 92.95
L319.53 92.95
M296.29 92.95
L296.29 87.14
M296.29 110.38
L296.29 116.19
M313.72 92.95
L313.72 87.14
M313.72 110.38
L313.72 116.19
M325.34 87.14
L325.34 87.14 A5.81 5.81 0 0 1 319.53 92.95
L319.53 92.95
M319.53 110.38
L319.53 110.38 A5.81 5.81 0 0 1 325.34 116.19
L325.34 116.19
M348.58 92.95
L348.58 92.95 A5.81 5.81 0 0 1 342.77 87.14
L342.77 87.14
M348.58 110.38
L348.58 110.38 A5.81 5.81 0 0 0 342.77 116.19
L342.77 116.19
M354.39 116.19
L354.39 87.14
M371.82 116.19
L371.82 87.14
M348.58 92.95
L354.39 92.95
M348.58 110.38
L354.39 110.38
M377.63 92.95
L371.82 92.95
M377.63 110.38
L371.82 110.38
M377.63 110.38
L380.9 110.38 A11.62 11.62 0 0 1 386.53 111.84
L386.53 111.84 A11.62 11.62 0 1 0 386.53 91.5
L386.53 91.5 A11.62 11.62 0 0 1 380.9 92.95
L377.63 92.95
M412.49 116.19
L412.49 87.14
M429.91 116.19
L429.91 87.14
M458.96 87.14
L458.96 90.42
L458.96 90.42 A11.62 11.62 0 0 0 460.42 96.04
L460.42 96.04 A11.62 11.62 0 1 1 440.08 96.04
L440.08 96.04 A11.62 11.62 0 0 0 441.53 90.42
L441.53 87.14
M493.82 92.95
L493.82 92.95 A5.81 5.81 0 0 1 488.01 87.14
L488.01 87.14
M493.82 110.38
L488.01 110.38 A17.43 17.43 0 0 1 470.58 92.95
L470.58 87.14
M493.82 110.38
L497.09 110.38 A11.62 11.62 0 0 1 502.72 111.84
L502.72 111.84 A11.62 11.62 0 1 0 502.72 91.5
L502.72 91.5 A11.62 11.62 0 0 1 497.09 92.95
L493.82 92.95
M551.92 110.38
L551.92 110.38 A5.81 5.81 0 0 0 546.11 116.19
L546.11 116.19
M551.92 92.95
L551.92 92.95 A23.24 23.24 0 0 0 528.68 116.19
L528.68 116.19
M557.73 87.14
L557.73 87.14 A5.81 5.81 0 0 1 551.92 92.95
L551.92 92.95
M551.92 110.38
L551.92 110.38 A5.81 5.81 0 0 1 557.73 116.19
L557.73 116.19
M580.97 92.95
L580.97 92.95 A5.81 5.81 0 0 1 575.16 87.14
L575.16 87.14
M580.97 110.38
L580.97 110.38 A5.81 5.81 0 0 0 575.16 116.19
L575.16 116.19
M580.97 110.38
L584.24 110.38 A11.62 11.62 0 0 1 589.86 111.84
L589.86 111.84 A11.62 11.62 0 1 0 589.86 91.5
L589.86 91.5 A11.62 11.62 0 0 1 584.24 92.95
L580.97 92.95
M639.06 92.95
L639.06 92.95 A5.81 5.81 0 0 1 633.25 87.14
L633.25 87.14
M639.06 110.38
L633.25 110.38 A17.43 17.43 0 0 1 615.82 92.95
L615.82 87.14
M639.06 110.38
L668.11 110.38
M639.06 92.95
L668.11 92.95
M644.87 92.95
L644.87 87.14
M644.87 110.38
L644.87 116.19
M662.3 92.95
L662.3 87.14
M662.3 110.38
L662.3 116.19
M668.11 110.38
L671.38 110.38 A11.62 11.62 0 0 1 677.01 111.84
L677.01 111.84 A11.62 11.62 0 1 0 677.01 91.5
L677.01 91.5 A11.62 11.62 0 0 1 671.38 92.95
L668.11 92.95
M726.21 92.95
L726.21 92.95 A5.81 5.81 0 0 1 720.4 87.14
L720.4 87.14
M726.21 110.38
L720.4 110.38 A17.43 17.43 0 0 1 702.97 92.95
L702.97 87.14
M726.21 110.38
L755.26 110.38
M726.21 92.95
L755.26 92.95
M732.02 92.95
L732.02 87.14
M732.02 110.38
L732.02 116.19
M749.45 92.95
L749.45 87.14
M749.45 110.38
L749.45 116.19
M761.06 87.14
L761.06 87.14 A5.81 5.81 0 0 1 755.26 92.95
L755.26 92.95
M755.26 110.38
L755.26 110.38 A5.81 5.81 0 0 1 761.06 116.19
L761.06 116.19
M784.3 92.95
L784.3 92.95 A5.81 5.81 0 0 1 778.49 87.14
L778.49 87.14
M784.3 110.38
L784.3 110.38 A5.81 5.81 0 0 0 778.49 116.19
L778.49 116.19
M784.3 110.38
L787.58 110.38 A11.62 11.62 0 0 1 793.2 111.84
L793.2 111.84 A11.62 11.62 0 1 0 793.2 91.5
L793.2 91.5 A11.62 11.62 0 0 1 787.58 92.95
L784.3 92.95
M23.24 145.24
L23.24 141.97 A11.62 11.62 0 0 1 24.69 136.34
L24.69 136.34 A11.62 11.62 0 1 0 4.36 136.34
L4.36 136.34 A11.62 11.62 0 0 1 5.81 141.97
L5.81 145.24
M34.86 145.24
L34.86 116.19
M58.1 122
L58.1 122 A5.81 5.81 0 0 1 52.29 116.19
L52.29 116.19
M58.1 139.43
L58.1 139.43 A5.81 5.81 0 0 0 52.29 145.24
L52.29 145.24
M58.1 139.43
L61.37 139.43 A11.62 11.62 0 0 1 67 140.88
L67 140.88 A11.62 11.62 0 1 0 67 120.55
L67 120.55 A11.62 11.62 0 0 1 61.37 122
L58.1 122
M116.19 122
L116.19 122 A5.81 5.81 0 0 1 110.38 116.19
L110.38 116.19
M116.19 139.43
L110.38 139.43 A17.43 17.43 0 0 1 92.95 122
L92.95 116.19
M122 145.24
L122 116.19
M139.43 145.24
L139.43 116.19
M116.19 122
L122 122
M116.19 139.43
L122 139.43
M145.24 122
L139.43 122
M145.24 139.43
L139.43 139.43
M145.24 139.43
L148.52 139.43 A11.62 11.62 0 0 1 154.14 140.88
L154.14 140.88 A11.62 11.62 0 1 0 154.14 120.55
L154.14 120.55 A11.62 11.62 0 0 1 148.52 122
L145.24 122
M203.34 122
L203.34 122 A5.81 5.81 0 0 1 197.53 116.19
L197.53 116.19
M203.34 139.43
L197.53 139.43 A17.43 17.43 0 0 1 180.1 122
L180.1 116.19
M203.34 139.43
L206.61 139.43 A11.62 11.62 0 0 1 212.24 140.88
L212.24 140.88 A11.62 11.62 0 1 0 212.24 120.55
L212.24 120.55 A11.62 11.62 0 0 1 206.61 122
L203.34 122
M238.2 145.24
L238.2 116.19
M261.43 122
L261.43 122 A5.81 5.81 0 0 1 255.62 116.19
L255.62 116.19
M261.43 139.43
L261.43 139.43 A5.81 5.81 0 0 0 255.62 145.24
L255.62 145.24
M267.24 145.24
L267.24 116.19
M284.67 145.24
L284.67 116.19
M261.43 122
L267.24 122
M261.43 139.43
L267.24 139.43
M290.48 122
L284.67 122
M290.48 139.43
L284.67 139.43
M290.48 139.43
L319.53 139.43
M296.29 116.19
L296.29 116.19 A5.81 5.81 0 0 1 290.48 122
L290.48 122
M319.53 122
L319.53 122 A5.81 5.81 0 0 1 313.72 116.19
L313.72 116.19
M319.53 139.43
L348.58 139.43
M319.53 122
L348.58 122
M325.34 122
L325.34 116.19
M325.34 139.43
L325.34 145.24
M342.77 122
L342.77 116.19
M342.77 139.43
L342.77 145.24
M348.58 139.43
L377.63 139.43
M354.39 116.19
L354.39 116.19 A5.81 5.81 0 0 1 348.58 122
L348.58 122
M377.63 122
L377.63 122 A5.81 5.81 0 0 1 371.82 116.19
L371.82 116.19
M377.63 122
L406.68 122
M377.63 139.43
L377.63 139.43 A5.81 5.81 0 0 1 383.44 145.24
L383.44 145.24
M406.68 139.43
L406.68 139.43 A5.81 5.81 0 0 0 400.87 145.24
L400.87 145.24
M412.49 145.24
L412.49 116.19
M429.91 145.24
L429.91 116.19
M406.68 122
L412.49 122
M406.68 139.43
L412.49 139.43
M435.72 122
L429.91 122
M435.72 139.43
L429.91 139.43
M435.72 139.43
L435.72 139.43 A5.81 5.81 0 0 1 441.53 145.24
L441.53 145.24
M435.72 122
L441.53 122 A17.43 17.43 0 0 1 458.96 139.43
L458.96 145.24
M493.82 139.43
L490.55 139.43 A11.62 11.62 0 0 0 484.92 140.88
L484.92 140.88 A11.62 11.62 0 1 1 484.92 120.55
L484.92 120.55 A11.62 11.62 0 0 0 490.55 122
L493.82 122
M493.82 139.43
L522.87 139.43
M493.82 122
L522.87 122
M528.68 116.19
L528.68 116.19 A5.81 5.81 0 0 1 522.87 122
L522.87 122
M522.87 139.43
L522.87 139.43 A5.81 5.81 0 0 1 528.68 145.24
L528.68 145.24
M551.92 122
L551.92 122 A5.81 5.81 0 0 1 546.11 116.19
L546.11 116.19
M551.92 139.43
L551.92 139.43 A5.81 5.81 0 0 0 546.11 145.24
L546.11 145.24
M551.92 139.43
L580.97 139.43
M551.92 122
L580.97 122
M557.73 122
L557.73 116.19
M557.73 139.43
L557.73 145.24
M575.16 122
L575.16 116.19
M575.16 139.43
L575.16 145.24
M580.97 139.43
L584.24 139.43 A11.62 11.62 0 0 1 589.86 140.88
L589.86 140.88 A11.62 11.62 0 1 0 589.86 120.55
L589.86 120.55 A11.62 11.62 0 0 1 584.24 122
L580.97 122
M633.25 145.24
L633.25 141.97 A11.62 11.62 0 0 1 634.7 136.34
L634.7 136.34 A11.62 11.62 0 1 0 614.37 136.34
L614.37 136.34 A11.62 11.62 0 0 1 615.82 141.97
L615.82 145.24
M644.87 145.24
L644.87 116.19
M662.3 145.24
L662.3 116.19
M691.35 145.24
L691.35 141.97 A11.62 11.62 0 0 1 692.8 136.34
L692.8 136.34 A11.62 11.62 0 1 0 672.47 136.34
L672.47 136.34 A11.62 11.62 0 0 1 673.92 141.97
L673.92 145.24
M726.21 139.43
L722.93 139.43 A11.62 11.62 0 0 0 717.31 140.88
L717.31 140.88 A11.62 11.62 0 1 1 717.31 120.55
L717.31 120.55 A11.62 11.62 0 0 0 722.93 122
L726.21 122
M749.45 145.24
L749.45 116.19
M732.02 116.19
L732.02 116.19 A5.81 5.81 0 0 1 726.21 122
L726.21 122
M726.21 139.43
L726.21 139.43 A5.81 5.81 0 0 1 732.02 145.24
L732.02 145.24
M784.3 122
L784.3 122 A5.81 5.81 0 0 1 778.49 116.19
L778.49 116.19
M784.3 139.43
L778.49 139.43 A17.43 17.43 0 0 1 761.06 122
L761.06 116.19
M784.3 139.43
L787.58 139.43 A11.62 11.62 0 0 1 793.2 140.88
L793.2 140.88 A11.62 11.62 0 1 0 793.2 120.55
L793.2 120.55 A11.62 11.62 0 0 1 787.58 122
L784.3 122
M5.81 174.29
L5.81 145.24
M29.05 151.05
L29.05 151.05 A5.81 5.81 0 0 1 23.24 145.24
L23.24 145.24
M29.05 168.48
L29.05 168.48 A5.81 5.81 0 0 0 23.24 174.29
L23.24 174.29
M29.05 168.48
L58.1 168.48
M29.05 151.05
L58.1 151.05
M34.86 151.05
L34.86 145.24
M34.86 168.48
L34.86 174.29
M52.29 151.05
L52.29 145.24
M52.29 168.48
L52.29 174.29
M58.1 151.05
L87.14 151.05
M58.1 168.48
L58.1 168.48 A5.81 5.81 0 0 1 63.91 174.29
L63.91 174.29
M87.14 168.48
L87.14 168.48 A5.81 5.81 0 0 0 81.34 174.29
L81.34 174.29
M87.14 168.48
L90.42 168.48 A11.62 11.62 0 0 1 96.04 169.93
L96.04 169.93 A11.62 11.62 0 1 0 96.04 149.6
L96.04 149.6 A11.62 11.62 0 0 1 90.42 151.05
L87.14 151.05
M122 174.29
L122 145.24
M145.24 151.05
L145.24 151.05 A5.81 5.81 0 0 1 139.43 145.24
L139.43 145.24
M145.24 168.48
L145.24 168.48 A5.81 5.81 0 0 0 139.43 174.29
L139.43 174.29
M145.24 168.48
L148.52 168.48 A11.62 11.62 0 0 1 154.14 169.93
L154.14 169.93 A11.62 11.62 0 1 0 154.14 149.6
L154.14 149.6 A11.62 11.62 0 0 1 148.52 151.05
L145.24 151.05
M197.53 174.29
L197.53 171.02 A11.62 11.62 0 0 1 198.98 165.39
L198.98 165.39 A11.62 11.62 0 1 0 178.65 165.39
L178.65 165.39 A11.62 11.62 0 0 1 180.1 171.02
L180.1 174.29
M232.39 168.48
L232.39 168.48 A5.81 5.81 0 0 0 226.58 174.29
L226.58 174.29
M232.39 151.05
L232.39 151.05 A23.24 23.24 0 0 0 209.15 174.29
L209.15 174.29
M238.2 174.29
L238.2 145.24
M255.62 174.29
L255.62 145.24
M232.39 151.05
L238.2 151.05
M232.39 168.48
L238.2 168.48
M261.43 151.05
L255.62 151.05
M261.43 168.48
L255.62 168.48
M267.24 145.24
L267.24 145.24 A5.81 5.81 0 0 1 261.43 151.05
L261.43 151.05
M261.43 168.48
L261.43 168.48 A5.81 5.81 0 0 1 267.24 174.29
L267.24 174.29
M290.48 151.05
L290.48 151.05 A5.81 5.81 0 0 1 284.67 145.24
L284.67 145.24
M290.48 168.48
L290.48 168.48 A5.81 5.81 0 0 0 284.67 174.29
L284.67 174.29
M290.48 168.48
L293.76 168.48 A11.62 11.62 0 0 1 299.38 169.93
L299.38 169.93 A11.62 11.62 0 1 0 299.38 149.6
L299.38 149.6 A11.62 11.62 0 0 1 293.76 151.05
L290.48 151.05
M325.34 174.29
L325.34 145.24
M342.77 174.29
L342.77 145.24
M377.63 168.48
L374.35 168.48 A11.62 11.62 0 0 0 368.73 169.93
L368.73 169.93 A11.62 11.62 0 1 1 368.73 149.6
L368.73 149.6 A11.62 11.62 0 0 0 374.35 151.05
L377.63 151.05
M383.44 174.29
L383.44 145.24
M400.87 174.29
L400.87 145.24
M377.63 151.05
L383.44 151.05
M377.63 168.48
L383.44 168.48
M406.68 151.05
L400.87 151.05
M406.68 168.48
L400.87 168.48
M406.68 168.48
L435.72 168.48
M412.49 145.24
L412.49 145.24 A5.81 5.81 0 0 1 406.68 151.05
L406.68 151.05
M435.72 151.05
L435.72 151.05 A5.81 5.81 0 0 1 429.91 145.24
L429.91 145.24
M441.53 174.29
L441.53 145.24
M458.96 174.29
L458.96 145.24
M435.72 151.05
L441.53 151.05
M435.72 168.48
L441.53 168.48
M464.77 151.05
L458.96 151.05
M464.77 168.48
L458.96 168.48
M464.77 168.48
L464.77 168.48 A5.81 5.81 0 0 1 470.58 174.29
L470.58 174.29
M464.77 151.05
L470.58 151.05 A17.43 17.43 0 0 1 488.01 168.48
L488.01 174.29
M522.87 168.48
L522.87 168.48 A5.81 5.81 0 0 0 517.06 174.29
L517.06 174.29
M522.87 151.05
L522.87 151.05 A23.24 23.24 0 0 0 499.63 174.29
L499.63 174.29
M528.68 174.29
L528.68 145.24
M546.11 174.29
L546.11 145.24
M522.87 151.05
L528.68 151.05
M522.87 168.48
L528.68 168.48
M551.92 151.05
L546.11 151.05
M551.92 168.48
L546.11 168.48
M557.73 145.24
L557.73 145.24 A5.81 5.81 0 0 1 551.92 151.05
L551.92 151.05
M575.16 145.24
L575.16 151.05 A17.43 17.43 0 0 1 557.73 168.48
L551.92 168.48
M610.01 168.48
L610.01 168.48 A5.81 5.81 0 0 0 604.2 174.29
L604.2 174.29
M610.01 151.05
L610.01 151.05 A23.24 23.24 0 0 0 586.78 174.29
L586.78 174.29
M610.01 168.48
L639.06 168.48
M610.01 151.05
L639.06 151.05
M615.82 151.05
L615.82 145.24
M615.82 168.48
L615.82 174.29
M633.25 151.05
L633.25 145.24
M633.25 168.48
L633.25 174.29
M644.87 145.24
L644.87 145.24 A5.81 5.81 0 0 1 639.06 151.05
L639.06 151.05
M639.06 168.48
L639.06 168.48 A5.81 5.81 0 0 1 644.87 174.29
L644.87 174.29
M668.11 151.05
L668.11 151.05 A5.81 5.81 0 0 1 662.3 145.24
L662.3 145.24
M668.11 168.48
L668.11 168.48 A5.81 5.81 0 0 0 662.3 174.29
L662.3 174.29
M668.11 168.48
L697.16 168.48
M668.11 151.05
L697.16 151.05
M673.92 151.05
L673.92 145.24
M673.92 168.48
L673.92 174.29
M691.35 151.05
L691.35 145.24
M691.35 168.48
L691.35 174.29
M697.16 151.05
L726.21 151.05
M697.16 168.48
L697.16 168.48 A5.81 5.81 0 0 1 702.97 174.29
L702.97 174.29
M726.21 168.48
L726.21 168.48 A5.81 5.81 0 0 0 720.4 174.29
L720.4 174.29
M726.21 168.48
L755.26 168.48
M726.21 151.05
L755.26 151.05
M732.02 151.05
L732.02 145.24
M732.02 168.48
L732.02 174.29
M749.45 151.05
L749.45 145.24
M749.45 168.48
L749.45 174.29
M755.26 168.48
L755.26 168.48 A5.81 5.81 0 0 1 761.06 174.29
L761.06 174.29
M755.26 151.05
L761.06 151.05 A17.43 17.43 0 0 1 778.49 168.48
L778.49 174.29
M807.54 174.29
L807.54 171.02 A11.62 11.62 0 0 1 808.99 165.39
L808.99 165.39 A11.62 11.62 0 1 0 788.66 165.39
L788.66 165.39 A11.62 11.62 0 0 1 790.11 171.02
L790.11 174.29
M5.81 203.34
L5.81 174.29
M23.24 203.34
L23.24 174.29
M58.1 180.1
L58.1 180.1 A5.81 5.81 0 0 1 52.29 174.29
L52.29 174.29
M58.1 197.53
L52.29 197.53 A17.43 17.43 0 0 1 34.86 180.1
L34.86 174.29
M58.1 197.53
L87.14 197.53
M58.1 180.1
L87.14 180.1
M63.91 180.1
L63.91 174.29
M63.91 197.53
L63.91 203.34
M81.34 180.1
L81.34 174.29
M81.34 197.53
L81.34 203.34
M87.14 180.1
L116.19 180.1
M87.14 197.53
L87.14 197.53 A5.81 5.81 0 0 1 92.95 203.34
L92.95 203.34
M116.19 197.53
L116.19 197.53 A5.81 5.81 0 0 0 110.38 203.34
L110.38 203.34
M116.19 197.53
L145.24 197.53
M116.19 180.1
L145.24 180.1
M122 180.1
L122 174.29
M122 197.53
L122 203.34
M139.43 180.1
L139.43 174.29
M139.43 197.53
L139.43 203.34
M145.24 197.53
L145.24 197.53 A5.81 5.81 0 0 1 151.05 203.34
L151.05 203.34
M145.24 180.1
L151.05 180.1 A17.43 17.43 0 0 1 168.48 197.53
L168.48 203.34
M203.34 180.1
L203.34 180.1 A5.81 5.81 0 0 1 197.53 174.29
L197.53 174.29
M203.34 197.53
L197.53 197.53 A17.43 17.43 0 0 1 180.1 180.1
L180.1 174.29
M209.15 203.34
L209.15 174.29
M226.58 203.34
L226.58 174.29
M203.34 180.1
L209.15 180.1
M203.34 197.53
L209.15 197.53
M232.39 180.1
L226.58 180.1
M232.39 197.53
L226.58 197.53
M232.39 197.53
L261.43 197.53
M238.2 174.29
L238.2 174.29 A5.81 5.81 0 0 1 232.39 180.1
L232.39 180.1
M261.43 180.1
L261.43 180.1 A5.81 5.81 0 0 1 255.62 174.29
L255.62 174.29
M267.24 203.34
L267.24 174.29
M284.67 203.34
L284.67 174.29
M261.43 180.1
L267.24 180.1
M261.43 197.53
L267.24 197.53
M290.48 180.1
L284.67 180.1
M290.48 197.53
L284.67 197.53
M290.48 197.53
L319.53 197.53
M290.48 180.1
L319.53 180.1
M319.53 197.53
L348.58 197.53
M319.53 180.1
L348.58 180.1
M325.34 180.1
L325.34 174.29
M325.34 197.53
L325.34 203.34
M342.77 180.1
L342.77 174.29
M342.77 197.53
L342.77 203.34
M348.58 197.53
L348.58 197.53 A5.81 5.81 0 0 1 354.39 203.34
L354.39 203.34
M348.58 180.1
L354.39 180.1 A17.43 17.43 0 0 1 371.82 197.53
L371.82 203.34
M400.87 174.29
L400.87 177.56
L400.87 177.56 A11.62 11.62 0 0 0 402.32 183.19
L402.32 183.19 A11.62 11.62 0 1 1 381.98 183.19
L381.98 183.19 A11.62 11.62 0 0 0 383.44 177.56
L383.44 174.29
M429.91 203.34
L429.91 200.06 A11.62 11.62 0 0 1 431.37 194.44
L431.37 194.44 A11.62 11.62 0 1 0 411.03 194.44
L411.03 194.44 A11.62 11.62 0 0 1 412.49 200.06
L412.49 203.34
M441.53 203.34
L441.53 174.29
M464.77 180.1
L464.77 180.1 A5.81 5.81 0 0 1 458.96 174.29
L458.96 174.29
M464.77 197.53
L464.77 197.53 A5.81 5.81 0 0 0 458.96 203.34
L458.96 203.34
M464.77 197.53
L493.82 197.53
M464.77 180.1
L493.82 180.1
M470.58 180.1
L470.58 174.29
M470.58 197.53
L470.58 203.34
M488.01 180.1
L488.01 174.29
M488.01 197.53
L488.01 203.34
M499.63 174.29
L499.63 174.29 A5.81 5.81 0 0 1 493.82 180.1
L493.82 180.1
M517.06 174.29
L517.06 180.1 A17.43 17.43 0 0 1 499.63 197.53
L493.82 197.53
M528.68 203.34
L528.68 174.29
M546.11 203.34
L546.11 174.29
M580.97 197.53
L577.69 197.53 A11.62 11.62 0 0 0 572.07 198.98
L572.07 198.98 A11.62 11.62 0 1 1 572.07 178.65
L572.07 178.65 A11.62 11.62 0 0 0 577.69 180.1
L580.97 180.1
M586.78 203.34
L586.78 174.29
M604.2 203.34
L604.2 174.29
M580.97 180.1
L586.78 180.1
M580.97 197.53
L586.78 197.53
M610.01 180.1
L604.2 180.1
M610.01 197.53
L604.2 197.53
M615.82 174.29
L615.82 174.29 A5.81 5.81 0 0 1 610.01 180.1
L610.01 180.1
M610.01 197.53
L610.01 197.53 A5.81 5.81 0 0 1 615.82 203.34
L615.82 203.34
M639.06 180.1
L639.06 180.1 A5.81 5.81 0 0 1 633.25 174.29
L633.25 174.29
M639.06 197.53
L639.06 197.53 A5.81 5.81 0 0 0 633.25 203.34
L633.25 203.34
M639.06 197.53
L668.11 197.53
M639.06 180.1
L668.11 180.1
M644.87 180.1
L644.87 174.29
M644.87 197.53
L644.87 203.34
M662.3 180.1
L662.3 174.29
M662.3 197.53
L662.3 203.34
M668.11 197.53
L697.16 197.53
M673.92 174.29
L673.92 174.29 A5.81 5.81 0 0 1 668.11 180.1
L668.11 180.1
M697.16 180.1
L697.16 180.1 A5.81 5.81 0 0 1 691.35 174.29
L691.35 174.29
M697.16 197.53
L726.21 197.53
M697.16 180.1
L726.21 180.1
M702.97 180.1
L702.97 174.29
M702.97 197.53
L702.97 203.34
M720.4 180.1
L720.4 174.29
M720.4 197.53
L720.4 203.34
M726.21 197.53
L755.26 197.53
M732.02 174.29
L732.02 174.29 A5.81 5.81 0 0 1 726.21 180.1
L726.21 180.1
M755.26 180.1
L755.26 180.1 A5.81 5.81 0 0 1 749.45 174.29
L749.45 174.29
M755.26 197.53
L784.3 197.53
M755.26 180.1
L784.3 180.1
M761.06 180.1
L761.06 174.29
M761.06 197.53
L761.06 203.34
M778.49 180.1
L778.49 174.29
M778.49 197.53
L778.49 203.34
M807.54 203.34
L807.54 174.29
M790.11 174.29
L790.11 174.29 A5.81 5.81 0 0 1 784.3 180.1
L784.3 180.1
M784.3 197.53
L784.3 197.53 A5.81 5.81 0 0 1 790.11 203.34
L790.11 203.34
M23.24 203.34
L23.24 206.61
L23.24 206.61 A11.62 11.62 0 0 0 24.69 212.24
L24.69 212.24 A11.62 11.62 0 1 1 4.36 212.24
L4.36 212.24 A11.62 11.62 0 0 0 5.81 206.61
L5.81 203.34
M52.29 232.39
L52.29 229.11 A11.62 11.62 0 0 1 53.74 223.49
L53.74 223.49 A11.62 11.62 0 1 0 33.41 223.49
L33.41 223.49 A11.62 11.62 0 0 1 34.86 229.11
L34.86 232.39
M87.14 209.15
L87.14 209.15 A5.81 5.81 0 0 1 81.34 203.34
L81.34 203.34
M87.14 226.58
L81.34 226.58 A17.43 17.43 0 0 1 63.91 209.15
L63.91 203.34
M92.95 232.39
L92.95 203.34
M110.38 232.39
L110.38 203.34
M87.14 209.15
L92.95 209.15
M87.14 226.58
L92.95 226.58
M116.19 209.15
L110.38 209.15
M116.19 226.58
L110.38 226.58
M116.19 226.58
L145.24 226.58
M122 203.34
L122 203.34 A5.81 5.81 0 0 1 116.19 209.15
L116.19 209.15
M145.24 209.15
L145.24 209.15 A5.81 5.81 0 0 1 139.43 203.34
L139.43 203.34
M145.24 226.58
L174.29 226.58
M145.24 209.15
L174.29 209.15
M151.05 209.15
L151.05 203.34
M151.05 226.58
L151.05 232.39
M168.48 209.15
L168.48 203.34
M168.48 226.58
L168.48 232.39
M174.29 226.58
L174.29 226.58 A5.81 5.81 0 0 1 180.1 232.39
L180.1 232.39
M174.29 209.15
L180.1 209.15 A17.43 17.43 0 0 1 197.53 226.58
L197.53 232.39
M232.39 209.15
L232.39 209.15 A5.81 5.81 0 0 1 226.58 203.34
L226.58 203.34
M232.39 226.58
L226.58 226.58 A17.43 17.43 0 0 1 209.15 209.15
L209.15 203.34
M232.39 226.58
L232.39 226.58 A5.81 5.81 0 0 1 238.2 232.39
L238.2 232.39
M232.39 209.15
L238.2 209.15 A17.43 17.43 0 0 1 255.62 226.58
L255.62 232.39
M284.67 203.34
L284.67 206.61
L284.67 206.61 A11.62 11.62 0 0 0 286.13 212.24
L286.13 212.24 A11.62 11.62 0 1 1 265.79 212.24
L265.79 212.24 A11.62 11.62 0 0 0 267.24 206.61
L267.24 203.34
M313.72 232.39
L313.72 229.11 A11.62 11.62 0 0 1 315.17 223.49
L315.17 223.49 A11.62 11.62 0 1 0 294.84 223.49
L294.84 223.49 A11.62 11.62 0 0 1 296.29 229.11
L296.29 232.39
M348.58 209.15
L348.58 209.15 A5.81 5.81 0 0 1 342.77 203.34
L342.77 203.34
M348.58 226.58
L342.77 226.58 A17.43 17.43 0 0 1 325.34 209.15
L325.34 203.34
M348.58 226.58
L377.63 226.58
M348.58 209.15
L377.63 209.15
M354.39 209.15
L354.39 203.34
M354.39 226.58
L354.39 232.39
M371.82 209.15
L371.82 203.34
M371.82 226.58
L371.82 232.39
M377.63 226.58
L380.9 226.58 A11.62 11.62 0 0 1 386.53 228.03
L386.53 228.03 A11.62 11.62 0 1 0 386.53 207.7
L386.53 207.7 A11.62 11.62 0 0 1 380.9 209.15
L377.63 209.15
M412.49 232.39
L412.49 203.34
M435.72 209.15
L435.72 209.15 A5.81 5.81 0 0 1 429.91 203.34
L429.91 203.34
M435.72 226.58
L435.72 226.58 A5.81 5.81 0 0 0 429.91 232.39
L429.91 232.39
M435.72 226.58
L464.77 226.58
M435.72 209.15
L464.77 209.15
M441.53 209.15
L441.53 203.34
M441.53 226.58
L441.53 232.39
M458.96 209.15
L458.96 203.34
M458.96 226.58
L458.96 232.39
M488.01 232.39
L488.01 203.34
M470.58 203.34
L470.58 203.34 A5.81 5.81 0 0 1 464.77 209.15
L464.77 209.15
M464.77 226.58
L464.77 226.58 A5.81 5.81 0 0 1 470.58 232.39
L470.58 232.39
M522.87 226.58
L522.87 226.58 A5.81 5.81 0 0 0 517.06 232.39
L517.06 232.39
M522.87 209.15
L522.87 209.15 A23.24 23.24 0 0 0 499.63 232.39
L499.63 232.39
M522.87 226.58
L551.92 226.58
M522.87 209.15
L551.92 209.15
M528.68 209.15
L528.68 203.34
M528.68 226.58
L528.68 232.39
M546.11 209.15
L546.11 203.34
M546.11 226.58
L546.11 232.39
M551.92 226.58
L555.19 226.58 A11.62 11.62 0 0 1 560.82 228.03
L560.82 228.03 A11.62 11.62 0 1 0 560.82 207.7
L560.82 207.7 A11.62 11.62 0 0 1 555.19 209.15
L551.92 209.15
M586.78 232.39
L586.78 203.34
M604.2 232.39
L604.2 203.34
M633.25 203.34
L633.25 206.61
L633.25 206.61 A11.62 11.62 0 0 0 634.7 212.24
L634.7 212.24 A11.62 11.62 0 1 1 614.37 212.24
L614.37 212.24 A11.62 11.62 0 0 0 615.82 206.61
L615.82 203.34
M662.3 203.34
L662.3 206.61
L662.3 206.61 A11.62 11.62 0 0 0 663.75 212.24
L663.75 212.24 A11.62 11.62 0 1 1 643.42 212.24
L643.42 212.24 A11.62 11.62 0 0 0 644.87 206.61
L644.87 203.34
M691.35 232.39
L691.35 229.11 A11.62 11.62 0 0 1 692.8 223.49
L692.8 223.49 A11.62 11.62 0 1 0 672.47 223.49
L672.47 223.49 A11.62 11.62 0 0 1 673.92 229.11
L673.92 232.39
M720.4 203.34
L720.4 206.61
L720.4 206.61 A11.62 11.62 0 0 0 721.85 212.24
L721.85 212.24 A11.62 11.62 0 1 1 701.52 212.24
L701.52 212.24 A11.62 11.62 0 0 0 702.97 206.61
L702.97 203.34
M749.45 232.39
L749.45 229.11 A11.62 11.62 0 0 1 750.9 223.49
L750.9 223.49 A11.62 11.62 0 1 0 730.56 223.49
L730.56 223.49 A11.62 11.62 0 0 1 732.02 229.11
L732.02 232.39
M778.49 203.34
L778.49 206.61
L778.49 206.61 A11.62 11.62 0 0 0 779.95 212.24
L779.95 212.24 A11.62 11.62 0 1 1 759.61 212.24
L759.61 212.24 A11.62 11.62 0 0 0 761.06 206.61
L761.06 203.34
M790.11 232.39
L790.11 203.34
M807.54 232.39
L807.54 203.34
M29.05 255.62
L29.05 255.62 A5.81 5.81 0 0 0 23.24 261.43
L23.24 261.43
M29.05 238.2
L29.05 238.2 A23.24 23.24 0 0 0 5.81 261.43
L5.81 261.43
M29.05 255.62
L58.1 255.62
M29.05 238.2
L58.1 238.2
M34.86 238.2
L34.86 232.39
M34.86 255.62
L34.86 261.43
M52.29 238.2
L52.29 232.39
M52.29 255.62
L52.29 261.43
M58.1 255.62
L58.1 255.62 A5.81 5.81 0 0 1 63.91 261.43
L63.91 261.43
M58.1 238.2
L63.91 238.2 A17.43 17.43 0 0 1 81.34 255.62
L81.34 261.43
M110.38 232.39
L110.38 235.66
L110.38 235.66 A11.62 11.62 0 0 0 111.84 241.29
L111.84 241.29 A11.62 11.62 0 1 1 91.5 241.29
L91.5 241.29 A11.62 11.62 0 0 0 92.95 235.66
L92.95 232.39
M145.24 255.62
L145.24 255.62 A5.81 5.81 0 0 0 139.43 261.43
L139.43 261.43
M145.24 238.2
L145.24 238.2 A23.24 23.24 0 0 0 122 261.43
L122 261.43
M151.05 232.39
L151.05 232.39 A5.81 5.81 0 0 1 145.24 238.2
L145.24 238.2
M145.24 255.62
L145.24 255.62 A5.81 5.81 0 0 1 151.05 261.43
L151.05 261.43
M174.29 238.2
L174.29 238.2 A5.81 5.81 0 0 1 168.48 232.39
L168.48 232.39
M174.29 255.62
L174.29 255.62 A5.81 5.81 0 0 0 168.48 261.43
L168.48 261.43
M180.1 261.43
L180.1 232.39
M197.53 261.43
L197.53 232.39
M174.29 238.2
L180.1 238.2
M174.29 255.62
L180.1 255.62
M203.34 238.2
L197.53 238.2
M203.34 255.62
L197.53 255.62
M203.34 238.2
L232.39 238.2
M203.34 255.62
L203.34 255.62 A5.81 5.81 0 0 1 209.15 261.43
L209.15 261.43
M232.39 255.62
L232.39 255.62 A5.81 5.81 0 0 0 226.58 261.43
L226.58 261.43
M232.39 255.62
L261.43 255.62
M232.39 238.2
L261.43 238.2
M238.2 238.2
L238.2 232.39
M238.2 255.62
L238.2 261.43
M255.62 238.2
L255.62 232.39
M255.62 255.62
L255.62 261.43
M261.43 255.62
L290.48 255.62
M261.43 238.2
L290.48 238.2
M290.48 255.62
L319.53 255.62
M290.48 238.2
L319.53 238.2
M296.29 238.2
L296.29 232.39
M296.29 255.62
L296.29 261.43
M313.72 238.2
L313.72 232.39
M313.72 255.62
L313.72 261.43
M319.53 255.62
L319.53 255.62 A5.81 5.81 0 0 1 325.34 261.43
L325.34 261.43
M319.53 238.2
L325.34 238.2 A17.43 17.43 0 0 1 342.77 255.62
L342.77 261.43
M371.82 232.39
L371.82 235.66
L371.82 235.66 A11.62 11.62 0 0 0 373.27 241.29
L373.27 241.29 A11.62 11.62 0 1 1 352.94 241.29
L352.94 241.29 A11.62 11.62 0 0 0 354.39 235.66
L354.39 232.39
M406.68 255.62
L406.68 255.62 A5.81 5.81 0 0 0 400.87 261.43
L400.87 261.43
M406.68 238.2
L406.68 238.2 A23.24 23.24 0 0 0 383.44 261.43
L383.44 261.43
M406.68 255.62
L435.72 255.62
M406.68 238.2
L435.72 238.2
M412.49 238.2
L412.49 232.39
M412.49 255.62
L412.49 261.43
M429.91 238.2
L429.91 232.39
M429.91 255.62
L429.91 261.43
M435.72 255.62
L464.77 255.62
M441.53 232.39
L441.53 232.39 A5.81 5.81 0 0 1 435.72 238.2
L435.72 238.2
M464.77 238.2
L464.77 238.2 A5.81 5.81 0 0 1 458.96 232.39
L458.96 232.39
M470.58 261.43
L470.58 232.39
M488.01 261.43
L488.01 232.39
M464.77 238.2
L470.58 238.2
M464.77 255.62
L470.58 255.62
M493.82 238.2
L488.01 238.2
M493.82 255.62
L488.01 255.62
M499.63 232.39
L499.63 232.39 A5.81 5.81 0 0 1 493.82 238.2
L493.82 238.2
M517.06 232.39
L517.06 238.2 A17.43 17.43 0 0 1 499.63 255.62
L493.82 255.62
M546.11 232.39
L546.11 235.66
L546.11 235.66 A11.62 11.62 0 0 0 547.56 241.29
L547.56 241.29 A11.62 11.62 0 1 1 527.23 241.29
L527.23 241.29 A11.62 11.62 0 0 0 528.68 235.66
L528.68 232.39
M580.97 255.62
L580.97 255.62 A5.81 5.81 0 0 0 575.16 261.43
L575.16 261.43
M580.97 238.2
L580.97 238.2 A23.24 23.24 0 0 0 557.73 261.43
L557.73 261.43
M580.97 255.62
L610.01 255.62
M580.97 238.2
L610.01 238.2
M586.78 238.2
L586.78 232.39
M586.78 255.62
L586.78 261.43
M604.2 238.2
L604.2 232.39
M604.2 255.62
L604.2 261.43
M610.01 255.62
L613.29 255.62 A11.62 11.62 0 0 1 618.91 257.08
L618.91 257.08 A11.62 11.62 0 1 0 618.91 236.74
L618.91 236.74 A11.62 11.62 0 0 1 613.29 238.2
L610.01 238.2
M668.11 255.62
L668.11 255.62 A5.81 5.81 0 0 0 662.3 261.43
L662.3 261.43
M668.11 238.2
L668.11 238.2 A23.24 23.24 0 0 0 644.87 261.43
L644.87 261.43
M673.92 232.39
L673.92 232.39 A5.81 5.81 0 0 1 668.11 238.2
L668.11 238.2
M691.35 232.39
L691.35 238.2 A17.43 17.43 0 0 1 673.92 255.62
L668.11 255.62
M726.21 255.62
L726.21 255.62 A5.81 5.81 0 0 0 720.4 261.43
L720.4 261.43
M726.21 238.2
L726.21 238.2 A23.24 23.24 0 0 0 702.97 261.43
L702.97 261.43
M732.02 261.43
L732.02 232.39
M749.45 261.43
L749.45 232.39
M726.21 238.2
L732.02 238.2
M726.21 255.62
L732.02 255.62
M755.26 238.2
L749.45 238.2
M755.26 255.62
L749.45 255.62
M755.26 238.2
L784.3 238.2
M755.26 255.62
L755.26 255.62 A5.81 5.81 0 0 1 761.06 261.43
L761.06 261.43
M784.3 255.62
L784.3 255.62 A5.81 5.81 0 0 0 778.49 261.43
L778.49 261.43
M807.54 261.43
L807.54 232.39
M790.11 232.39
L790.11 232.39 A5.81 5.81 0 0 1 784.3 238.2
L784.3 238.2
M784.3 255.62
L784.3 255.62 A5.81 5.81 0 0 1 790.11 261.43
L790.11 261.43
M23.24 261.43
L23.24 264.71
L23.24 264.71 A11.62 11.62 0 0 0 24.69 270.33
L24.69 270.33 A11.62 11.62 0 1 1 4.36 270.33
L4.36 270.33 A11.62 11.62 0 0 0 5.81 264.71
L5.81 261.43
M34.86 290.48
L34.86 261.43
M58.1 267.24
L58.1 267.24 A5.81 5.81 0 0 1 52.29 261.43
L52.29 261.43
M58.1 284.67
L58.1 284.67 A5.81 5.81 0 0 0 52.29 290.48
L52.29 290.48
M58.1 284.67
L87.14 284.67
M58.1 267.24
L87.14 267.24
M63.91 267.24
L63.91 261.43
M63.91 284.67
L63.91 290.48
M81.34 267.24
L81.34 261.43
M81.34 284.67
L81.34 290.48
M87.14 284.67
L116.19 284.67
M87.14 267.24
L116.19 267.24
M122 290.48
L122 261.43
M139.43 290.48
L139.43 261.43
M116.19 267.24
L122 267.24
M116.19 284.67
L122 284.67
M145.24 267.24
L139.43 267.24
M145.24 284.67
L139.43 284.67
M168.48 290.48
L168.48 261.43
M151.05 261.43
L151.05 261.43 A5.81 5.81 0 0 1 145.24 267.24
L145.24 267.24
M145.24 284.67
L145.24 284.67 A5.81 5.81 0 0 1 151.05 290.48
L151.05 290.48
M203.34 267.24
L203.34 267.24 A5.81 5.81 0 0 1 197.53 261.43
L197.53 261.43
M203.34 284.67
L197.53 284.67 A17.43 17.43 0 0 1 180.1 267.24
L180.1 261.43
M203.34 284.67
L232.39 284.67
M203.34 267.24
L232.39 267.24
M209.15 267.24
L209.15 261.43
M209.15 284.67
L209.15 290.48
M226.58 267.24
L226.58 261.43
M226.58 284.67
L226.58 290.48
M232.39 284.67
L261.43 284.67
M238.2 261.43
L238.2 261.43 A5.81 5.81 0 0 1 232.39 267.24
L232.39 267.24
M261.43 267.24
L261.43 267.24 A5.81 5.81 0 0 1 255.62 261.43
L255.62 261.43
M261.43 284.67
L264.71 284.67 A11.62 11.62 0 0 1 270.33 286.13
L270.33 286.13 A11.62 11.62 0 1 0 270.33 265.79
L270.33 265.79 A11.62 11.62 0 0 1 264.71 267.24
L261.43 267.24
M296.29 290.48
L296.29 261.43
M319.53 267.24
L319.53 267.24 A5.81 5.81 0 0 1 313.72 261.43
L313.72 261.43
M319.53 284.67
L319.53 284.67 A5.81 5.81 0 0 0 313.72 290.48
L313.72 290.48
M319.53 284.67
L348.58 284.67
M319.53 267.24
L348.58 267.24
M325.34 267.24
L325.34 261.43
M325.34 284.67
L325.34 290.48
M342.77 267.24
L342.77 261.43
M342.77 284.67
L342.77 290.48
M348.58 267.24
L377.63 267.24
M348.58 284.67
L348.58 284.67 A5.81 5.81 0 0 1 354.39 290.48
L354.39 290.48
M377.63 284.67
L377.63 284.67 A5.81 5.81 0 0 0 371.82 290.48
L371.82 290.48
M377.63 284.67
L406.68 284.67
M377.63 267.24
L406.68 267.24
M383.44 267.24
L383.44 261.43
M383.44 284.67
L383.44 290.48
M400.87 267.24
L400.87 261.43
M400.87 284.67
L400.87 290.48
M412.49 261.43
L412.49 261.43 A5.81 5.81 0 0 1 406.68 267.24
L406.68 267.24
M406.68 284.67
L406.68 284.67 A5.81 5.81 0 0 1 412.49 290.48
L412.49 290.48
M435.72 267.24
L435.72 267.24 A5.81 5.81 0 0 1 429.91 261.43
L429.91 261.43
M435.72 284.67
L435.72 284.67 A5.81 5.81 0 0 0 429.91 290.48
L429.91 290.48
M435.72 284.67
L439 284.67 A11.62 11.62 0 0 1 444.62 286.13
L444.62 286.13 A11.62 11.62 0 1 0 444.62 265.79
L444.62 265.79 A11.62 11.62 0 0 1 439 267.24
L435.72 267.24
M470.58 290.48
L470.58 261.43
M493.82 267.24
L493.82 267.24 A5.81 5.81 0 0 1 488.01 261.43
L488.01 261.43
M493.82 284.67
L493.82 284.67 A5.81 5.81 0 0 0 488.01 290.48
L488.01 290.48
M493.82 284.67
L497.09 284.67 A11.62 11.62 0 0 1 502.72 286.13
L502.72 286.13 A11.62 11.62 0 1 0 502.72 265.79
L502.72 265.79 A11.62 11.62 0 0 1 497.09 267.24
L493.82 267.24
M551.92 284.67
L551.92 284.67 A5.81 5.81 0 0 0 546.11 290.48
L546.11 290.48
M551.92 267.24
L551.92 267.24 A23.24 23.24 0 0 0 528.68 290.48
L528.68 290.48
M557.73 290.48
L557.73 261.43
M575.16 290.48
L575.16 261.43
M551.92 267.24
L557.73 267.24
M551.92 284.67
L557.73 284.67
M580.97 267.24
L575.16 267.24
M580.97 284.67
L575.16 284.67
M604.2 290.48
L604.2 261.43
M586.78 261.43
L586.78 261.43 A5.81 5.81 0 0 1 580.97 267.24
L580.97 267.24
M580.97 284.67
L580.97 284.67 A5.81 5.81 0 0 1 586.78 290.48
L586.78 290.48
M639.06 284.67
L635.79 284.67 A11.62 11.62 0 0 0 630.16 286.13
L630.16 286.13 A11.62 11.62 0 1 1 630.16 265.79
L630.16 265.79 A11.62 11.62 0 0 0 635.79 267.24
L639.06 267.24
M639.06 284.67
L668.11 284.67
M639.06 267.24
L668.11 267.24
M644.87 267.24
L644.87 261.43
M644.87 284.67
L644.87 290.48
M662.3 267.24
L662.3 261.43
M662.3 284.67
L662.3 290.48
M668.11 267.24
L697.16 267.24
M668.11 284.67
L668.11 284.67 A5.81 5.81 0 0 1 673.92 290.48
L673.92 290.48
M697.16 284.67
L697.16 284.67 A5.81 5.81 0 0 0 691.35 290.48
L691.35 290.48
M702.97 290.48
L702.97 261.43
M720.4 290.48
L720.4 261.43
M697.16 267.24
L702.97 267.24
M697.16 284.67
L702.97 284.67
M726.21 267.24
L720.4 267.24
M726.21 284.67
L720.4 284.67
M726.21 284.67
L755.26 284.67
M732.02 261.43
L732.02 261.43 A5.81 5.81 0 0 1 726.21 267.24
L726.21 267.24
M755.26 267.24
L755.26 267.24 A5.81 5.81 0 0 1 749.45 261.43
L749.45 261.43
M761.06 290.48
L761.06 261.43
M778.49 290.48
L778.49 261.43
M755.26 267.24
L761.06 267.24
M755.26 284.67
L761.06 284.67
M784.3 267.24
L778.49 267.24
M784.3 284.67
L778.49 284.67
M790.11 261.43
L790.11 261.43 A5.81 5.81 0 0 1 784.3 267.24
L784.3 267.24
M807.54 261.43
L807.54 267.24 A17.43 17.43 0 0 1 790.11 284.67
L784.3 284.67
M29.05 313.72
L25.77 313.72 A11.62 11.62 0 0 0 20.15 315.17
L20.15 315.17 A11.62 11.62 0 1 1 20.15 294.84
L20.15 294.84 A11.62 11.62 0 0 0 25.77 296.29
L29.05 296.29
M34.86 319.53
L34.86 290.48
M52.29 319.53
L52.29 290.48
M29.05 296.29
L34.86 296.29
M29.05 313.72
L34.86 313.72
M58.1 296.29
L52.29 296.29
M58.1 313.72
L52.29 313.72
M63.91 290.48
L63.91 290.48 A5.81 5.81 0 0 1 58.1 296.29
L58.1 296.29
M58.1 313.72
L58.1 313.72 A5.81 5.81 0 0 1 63.91 319.53
L63.91 319.53
M87.14 296.29
L87.14 296.29 A5.81 5.81 0 0 1 81.34 290.48
L81.34 290.48
M87.14 313.72
L87.14 313.72 A5.81 5.81 0 0 0 81.34 319.53
L81.34 319.53
M87.14 313.72
L87.14 313.72 A5.81 5.81 0 0 1 92.95 319.53
L92.95 319.53
M87.14 296.29
L92.95 296.29 A17.43 17.43 0 0 1 110.38 313.72
L110.38 319.53
M145.24 296.29
L145.24 296.29 A5.81 5.81 0 0 1 139.43 290.48
L139.43 290.48
M145.24 313.72
L139.43 313.72 A17.43 17.43 0 0 1 122 296.29
L122 290.48
M145.24 313.72
L174.29 313.72
M145.24 296.29
L174.29 296.29
M151.05 296.29
L151.05 290.48
M151.05 313.72
L151.05 319.53
M168.48 296.29
L168.48 290.48
M168.48 313.72
L168.48 319.53
M174.29 313.72
L177.56 313.72 A11.62 11.62 0 0 1 183.19 315.17
L183.19 315.17 A11.62 11.62 0 1 0 183.19 294.84
L183.19 294.84 A11.62 11.62 0 0 1 177.56 296.29
L174.29 296.29
M226.58 290.48
L226.58 293.76
L226.58 293.76 A11.62 11.62 0 0 0 228.03 299.38
L228.03 299.38 A11.62 11.62 0 1 1 207.7 299.38
L207.7 299.38 A11.62 11.62 0 0 0 209.15 293.76
L209.15 290.48
M261.43 313.72
L258.16 313.72 A11.62 11.62 0 0 0 252.54 315.17
L252.54 315.17 A11.62 11.62 0 1 1 252.54 294.84
L252.54 294.84 A11.62 11.62 0 0 0 258.16 296.29
L261.43 296.29
M261.43 313.72
L290.48 313.72
M261.43 296.29
L290.48 296.29
M290.48 313.72
L319.53 313.72
M290.48 296.29
L319.53 296.29
M296.29 296.29
L296.29 290.48
M296.29 313.72
L296.29 319.53
M313.72 296.29
L313.72 290.48
M313.72 313.72
L313.72 319.53
M319.53 313.72
L348.58 313.72
M325.34 290.48
L325.34 290.48 A5.81 5.81 0 0 1 319.53 296.29
L319.53 296.29
M348.58 296.29
L348.58 296.29 A5.81 5.81 0 0 1 342.77 290.48
L342.77 290.48
M354.39 319.53
L354.39 290.48
M371.82 319.53
L371.82 290.48
M348.58 296.29
L354.39 296.29
M348.58 313.72
L354.39 313.72
M377.63 296.29
L371.82 296.29
M377.63 313.72
L371.82 313.72
M377.63 313.72
L406.68 313.72
M383.44 290.48
L383.44 290.48 A5.81 5.81 0 0 1 377.63 296.29
L377.63 296.29
M406.68 296.29
L406.68 296.29 A5.81 5.81 0 0 1 400.87 290.48
L400.87 290.48
M412.49 319.53
L412.49 290.48
M429.91 319.53
L429.91 290.48
M406.68 296.29
L412.49 296.29
M406.68 313.72
L412.49 313.72
M435.72 296.29
L429.91 296.29
M435.72 313.72
L429.91 313.72
M435.72 313.72
L464.77 313.72
M435.72 296.29
L464.77 296.29
M464.77 313.72
L493.82 313.72
M464.77 296.29
L493.82 296.29
M470.58 296.29
L470.58 290.48
M470.58 313.72
L470.58 319.53
M488.01 296.29
L488.01 290.48
M488.01 313.72
L488.01 319.53
M493.82 296.29
L522.87 296.29
M493.82 313.72
L493.82 313.72 A5.81 5.81 0 0 1 499.63 319.53
L499.63 319.53
M522.87 313.72
L522.87 313.72 A5.81 5.81 0 0 0 517.06 319.53
L517.06 319.53
M522.87 313.72
L551.92 313.72
M522.87 296.29
L551.92 296.29
M528.68 296.29
L528.68 290.48
M528.68 313.72
L528.68 319.53
M546.11 296.29
L546.11 290.48
M546.11 313.72
L546.11 319.53
M551.92 313.72
L580.97 313.72
M557.73 290.48
L557.73 290.48 A5.81 5.81 0 0 1 551.92 296.29
L551.92 296.29
M580.97 296.29
L580.97 296.29 A5.81 5.81 0 0 1 575.16 290.48
L575.16 290.48
M586.78 319.53
L586.78 290.48
M604.2 319.53
L604.2 290.48
M580.97 296.29
L586.78 296.29
M580.97 313.72
L586.78 313.72
M610.01 296.29
L604.2 296.29
M610.01 313.72
L604.2 313.72
M610.01 313.72
L613.29 313.72 A11.62 11.62 0 0 1 618.91 315.17
L618.91 315.17 A11.62 11.62 0 1 0 618.91 294.84
L618.91 294.84 A11.62 11.62 0 0 1 613.29 296.29
L610.01 296.29
M644.87 319.53
L644.87 290.48
M668.11 296.29
L668.11 296.29 A5.81 5.81 0 0 1 662.3 290.48
L662.3 290.48
M668.11 313.72
L668.11 313.72 A5.81 5.81 0 0 0 662.3 319.53
L662.3 319.53
M673.92 319.53
L673.92 290.48
M691.35 319.53
L691.35 290.48
M668.11 296.29
L673.92 296.29
M668.11 313.72
L673.92 313.72
M697.16 296.29
L691.35 296.29
M697.16 313.72
L691.35 313.72
M702.97 290.48
L702.97 290.48 A5.81 5.81 0 0 1 697.16 296.29
L697.16 296.29
M720.4 290.48
L720.4 296.29 A17.43 17.43 0 0 1 702.97 313.72
L697.16 313.72
M749.45 319.53
L749.45 316.26 A11.62 11.62 0 0 1 750.9 310.63
L750.9 310.63 A11.62 11.62 0 1 0 730.56 310.63
L730.56 310.63 A11.62 11.62 0 0 1 732.02 316.26
L732.02 319.53
M761.06 319.53
L761.06 290.48
M784.3 296.29
L784.3 296.29 A5.81 5.81 0 0 1 778.49 290.48
L778.49 290.48
M784.3 313.72
L784.3 313.72 A5.81 5.81 0 0 0 778.49 319.53
L778.49 319.53
M784.3 313.72
L784.3 313.72 A5.81 5.81 0 0 1 790.11 319.53
L790.11 319.53
M784.3 296.29
L790.11 296.29 A17.43 17.43 0 0 1 807.54 313.72
L807.54 319.53
M23.24 348.58
L23.24 345.31 A11.62 11.62 0 0 1 24.69 339.68
L24.69 339.68 A11.62 11.62 0 1 0 4.36 339.68
L4.36 339.68 A11.62 11.62 0 0 1 5.81 345.31
L5.81 348.58
M34.86 348.58
L34.86 319.53
M58.1 325.34
L58.1 325.34 A5.81 5.81 0 0 1 52.29 319.53
L52.29 319.53
M58.1 342.77
L58.1 342.77 A5.81 5.81 0 0 0 52.29 348.58
L52.29 348.58
M58.1 342.77
L87.14 342.77
M58.1 325.34
L87.14 325.34
M63.91 325.34
L63.91 319.53
M63.91 342.77
L63.91 348.58
M81.34 325.34
L81.34 319.53
M81.34 342.77
L81.34 348.58
M87.14 342.77
L116.19 342.77
M92.95 319.53
L92.95 319.53 A5.81 5.81 0 0 1 87.14 325.34
L87.14 325.34
M116.19 325.34
L116.19 325.34 A5.81 5.81 0 0 1 110.38 319.53
L110.38 319.53
M116.19 342.77
L119.47 342.77 A11.62 11.62 0 0 1 125.09 344.22
L125.09 344.22 A11.62 11.62 0 1 0 125.09 323.89
L125.09 323.89 A11.62 11.62 0 0 1 119.47 325.34
L116.19 325.34
M151.05 348.58
L151.05 319.53
M168.48 348.58
L168.48 319.53
M197.53 348.58
L197.53 345.31 A11.62 11.62 0 0 1 198.98 339.68
L198.98 339.68 A11.62 11.62 0 1 0 178.65 339.68
L178.65 339.68 A11.62 11.62 0 0 1 180.1 345.31
L180.1 348.58
M226.58 348.58
L226.58 345.31 A11.62 11.62 0 0 1 228.03 339.68
L228.03 339.68 A11.62 11.62 0 1 0 207.7 339.68
L207.7 339.68 A11.62 11.62 0 0 1 209.15 345.31
L209.15 348.58
M255.62 348.58
L255.62 345.31 A11.62 11.62 0 0 1 257.08 339.68
L257.08 339.68 A11.62 11.62 0 1 0 236.74 339.68
L236.74 339.68 A11.62 11.62 0 0 1 238.2 345.31
L238.2 348.58
M284.67 348.58
L284.67 345.31 A11.62 11.62 0 0 1 286.13 339.68
L286.13 339.68 A11.62 11.62 0 1 0 265.79 339.68
L265.79 339.68 A11.62 11.62 0 0 1 267.24 345.31
L267.24 348.58
M296.29 348.58
L296.29 319.53
M319.53 325.34
L319.53 325.34 A5.81 5.81 0 0 1 313.72 319.53
L313.72 319.53
M319.53 342.77
L319.53 342.77 A5.81 5.81 0 0 0 313.72 348.58
L313.72 348.58
M319.53 342.77
L322.8 342.77 A11.62 11.62 0 0 1 328.43 344.22
L328.43 344.22 A11.62 11.62 0 1 0 328.43 323.89
L328.43 323.89 A11.62 11.62 0 0 1 322.8 325.34
L319.53 325.34
M354.39 348.58
L354.39 319.53
M371.82 348.58
L371.82 319.53
M406.68 342.77
L403.4 342.77 A11.62 11.62 0 0 0 397.78 344.22
L397.78 344.22 A11.62 11.62 0 1 1 397.78 323.89
L397.78 323.89 A11.62 11.62 0 0 0 403.4 325.34
L406.68 325.34
M412.49 319.53
L412.49 319.53 A5.81 5.81 0 0 1 406.68 325.34
L406.68 325.34
M429.91 319.53
L429.91 325.34 A17.43 17.43 0 0 1 412.49 342.77
L406.68 342.77
M458.96 348.58
L458.96 345.31 A11.62 11.62 0 0 1 460.42 339.68
L460.42 339.68 A11.62 11.62 0 1 0 440.08 339.68
L440.08 339.68 A11.62 11.62 0 0 1 441.53 345.31
L441.53 348.58
M470.58 348.58
L470.58 319.53
M493.82 325.34
L493.82 325.34 A5.81 5.81 0 0 1 488.01 319.53
L488.01 319.53
M493.82 342.77
L493.82 342.77 A5.81 5.81 0 0 0 488.01 348.58
L488.01 348.58
M493.82 342.77
L522.87 342.77
M493.82 325.34
L522.87 325.34
M499.63 325.34
L499.63 319.53
M499.63 342.77
L499.63 348.58
M517.06 325.34
L517.06 319.53
M517.06 342.77
L517.06 348.58
M546.11 348.58
L546.11 319.53
M528.68 319.53
L528.68 319.53 A5.81 5.81 0 0 1 522.87 325.34
L522.87 325.34
M522.87 342.77
L522.87 342.77 A5.81 5.81 0 0 1 528.68 348.58
L528.68 348.58
M580.97 342.77
L577.69 342.77 A11.62 11.62 0 0 0 572.07 344.22
L572.07 344.22 A11.62 11.62 0 1 1 572.07 323.89
L572.07 323.89 A11.62 11.62 0 0 0 577.69 325.34
L580.97 325.34
M604.2 348.58
L604.2 319.53
M586.78 319.53
L586.78 319.53 A5.81 5.81 0 0 1 580.97 325.34
L580.97 325.34
M580.97 342.77
L580.97 342.77 A5.81 5.81 0 0 1 586.78 348.58
L586.78 348.58
M639.06 342.77
L635.79 342.77 A11.62 11.62 0 0 0 630.16 344.22
L630.16 344.22 A11.62 11.62 0 1 1 630.16 323.89
L630.16 323.89 A11.62 11.62 0 0 0 635.79 325.34
L639.06 325.34
M639.06 342.77
L668.11 342.77
M639.06 325.34
L668.11 325.34
M644.87 325.34
L644.87 319.53
M644.87 342.77
L644.87 348.58
M662.3 325.34
L662.3 319.53
M662.3 342.77
L662.3 348.58
M673.92 319.53
L673.92 319.53 A5.81 5.81 0 0 1 668.11 325.34
L668.11 325.34
M668.11 342.77
L668.11 342.77 A5.81 5.81 0 0 1 673.92 348.58
L673.92 348.58
M697.16 325.34
L697.16 325.34 A5.81 5.81 0 0 1 691.35 319.53
L691.35 319.53
M697.16 342.77
L697.16 342.77 A5.81 5.81 0 0 0 691.35 348.58
L691.35 348.58
M697.16 342.77
L700.43 342.77 A11.62 11.62 0 0 1 706.06 344.22
L706.06 344.22 A11.62 11.62 0 1 0 706.06 323.89
L706.06 323.89 A11.62 11.62 0 0 1 700.43 325.34
L697.16 325.34
M732.02 348.58
L732.02 319.53
M755.26 325.34
L755.26 325.34 A5.81 5.81 0 0 1 749.45 319.53
L749.45 319.53
M755.26 342.77
L755.26 342.77 A5.81 5.81 0 0 0 749.45 348.58
L749.45 348.58
M761.06 348.58
L761.06 319.53
M778.49 348.58
L778.49 319.53
M755.26 325.34
L761.06 325.34
M755.26 342.77
L761.06 342.77
M784.3 325.34
L778.49 325.34
M784.3 342.77
L778.49 342.77
M807.54 348.58
L807.54 319.53
M790.11 319.53
L790.11 319.53 A5.81 5.81 0 0 1 784.3 325.34
L784.3 325.34
M784.3 342.77
L784.3 342.77 A5.81 5.81 0 0 1 790.11 348.58
L790.11 348.58
M29.05 354.39
L29.05 354.39 A5.81 5.81 0 0 1 23.24 348.58
L23.24 348.58
M29.05 371.82
L23.24 371.82 A17.43 17.43 0 0 1 5.81 354.39
L5.81 348.58
M29.05 371.82
L58.1 371.82
M29.05 354.39
L58.1 354.39
M34.86 354.39
L34.86 348.58
M34.86 371.82
L34.86 377.63
M52.29 354.39
L52.29 348.58
M52.29 371.82
L52.29 377.63
M81.34 377.63
L81.34 348.58
M63.91 348.58
L63.91 348.58 A5.81 5.81 0 0 1 58.1 354.39
L58.1 354.39
M58.1 371.82
L58.1 371.82 A5.81 5.81 0 0 1 63.91 377.63
L63.91 377.63
M116.19 371.82
L112.92 371.82 A11.62 11.62 0 0 0 107.29 373.27
L107.29 373.27 A11.62 11.62 0 1 1 107.29 352.94
L107.29 352.94 A11.62 11.62 0 0 0 112.92 354.39
L116.19 354.39
M116.19 371.82
L145.24 371.82
M116.19 354.39
L145.24 354.39
M151.05 348.58
L151.05 348.58 A5.81 5.81 0 0 1 145.24 354.39
L145.24 354.39
M145.24 371.82
L145.24 371.82 A5.81 5.81 0 0 1 151.05 377.63
L151.05 377.63
M174.29 354.39
L174.29 354.39 A5.81 5.81 0 0 1 168.48 348.58
L168.48 348.58
M174.29 371.82
L174.29 371.82 A5.81 5.81 0 0 0 168.48 377.63
L168.48 377.63
M180.1 348.58
L180.1 348.58 A5.81 5.81 0 0 1 174.29 354.39
L174.29 354.39
M174.29 371.82
L174.29 371.82 A5.81 5.81 0 0 1 180.1 377.63
L180.1 377.63
M203.34 354.39
L203.34 354.39 A5.81 5.81 0 0 1 197.53 348.58
L197.53 348.58
M203.34 371.82
L203.34 371.82 A5.81 5.81 0 0 0 197.53 377.63
L197.53 377.63
M203.34 371.82
L232.39 371.82
M203.34 354.39
L232.39 354.39
M209.15 354.39
L209.15 348.58
M209.15 371.82
L209.15 377.63
M226.58 354.39
L226.58 348.58
M226.58 371.82
L226.58 377.63
M238.2 348.58
L238.2 348.58 A5.81 5.81 0 0 1 232.39 354.39
L232.39 354.39
M232.39 371.82
L232.39 371.82 A5.81 5.81 0 0 1 238.2 377.63
L238.2 377.63
M261.43 354.39
L261.43 354.39 A5.81 5.81 0 0 1 255.62 348.58
L255.62 348.58
M261.43 371.82
L261.43 371.82 A5.81 5.81 0 0 0 255.62 377.63
L255.62 377.63
M267.24 377.63
L267.24 348.58
M284.67 377.63
L284.67 348.58
M261.43 354.39
L267.24 354.39
M261.43 371.82
L267.24 371.82
M290.48 354.39
L284.67 354.39
M290.48 371.82
L284.67 371.82
M313.72 377.63
L313.72 348.58
M296.29 348.58
L296.29 348.58 A5.81 5.81 0 0 1 290.48 354.39
L290.48 354.39
M290.48 371.82
L290.48 371.82 A5.81 5.81 0 0 1 296.29 377.63
L296.29 377.63
M348.58 371.82
L345.31 371.82 A11.62 11.62 0 0 0 339.68 373.27
L339.68 373.27 A11.62 11.62 0 1 1 339.68 352.94
L339.68 352.94 A11.62 11.62 0 0 0 345.31 354.39
L348.58 354.39
M354.39 377.63
L354.39 348.58
M371.82 377.63
L371.82 348.58
M348.58 354.39
L354.39 354.39
M348.58 371.82
L354.39 371.82
M377.63 354.39
L371.82 354.39
M377.63 371.82
L371.82 371.82
M377.63 371.82
L406.68 371.82
M377.63 354.39
L406.68 354.39
M406.68 371.82
L406.68 371.82 A5.81 5.81 0 0 1 412.49 377.63
L412.49 377.63
M406.68 354.39
L412.49 354.39 A17.43 17.43 0 0 1 429.91 371.82
L429.91 377.63
M441.53 377.63
L441.53 348.58
M464.77 354.39
L464.77 354.39 A5.81 5.81 0 0 1 458.96 348.58
L458.96 348.58
M464.77 371.82
L464.77 371.82 A5.81 5.81 0 0 0 458.96 377.63
L458.96 377.63
M464.77 371.82
L493.82 371.82
M464.77 354.39
L493.82 354.39
M470.58 354.39
L470.58 348.58
M470.58 371.82
L470.58 377.63
M488.01 354.39
L488.01 348.58
M488.01 371.82
L488.01 377.63
M499.63 348.58
L499.63 348.58 A5.81 5.81 0 0 1 493.82 354.39
L493.82 354.39
M493.82 371.82
L493.82 371.82 A5.81 5.81 0 0 1 499.63 377.63
L499.63 377.63
M522.87 354.39
L522.87 354.39 A5.81 5.81 0 0 1 517.06 348.58
L517.06 348.58
M522.87 371.82
L522.87 371.82 A5.81 5.81 0 0 0 517.06 377.63
L517.06 377.63
M528.68 377.63
L528.68 348.58
M546.11 377.63
L546.11 348.58
M522.87 354.39
L528.68 354.39
M522.87 371.82
L528.68 371.82
M551.92 354.39
L546.11 354.39
M551.92 371.82
L546.11 371.82
M551.92 371.82
L580.97 371.82
M551.92 354.39
L580.97 354.39
M580.97 371.82
L610.01 371.82
M580.97 354.39
L610.01 354.39
M586.78 354.39
L586.78 348.58
M586.78 371.82
L586.78 377.63
M604.2 354.39
L604.2 348.58
M604.2 371.82
L604.2 377.63
M610.01 371.82
L610.01 371.82 A5.81 5.81 0 0 1 615.82 377.63
L615.82 377.63
M610.01 354.39
L615.82 354.39 A17.43 17.43 0 0 1 633.25 371.82
L633.25 377.63
M668.11 354.39
L668.11 354.39 A5.81 5.81 0 0 1 662.3 348.58
L662.3 348.58
M668.11 371.82
L662.3 371.82 A17.43 17.43 0 0 1 644.87 354.39
L644.87 348.58
M668.11 371.82
L697.16 371.82
M668.11 354.39
L697.16 354.39
M673.92 354.39
L673.92 348.58
M673.92 371.82
L673.92 377.63
M691.35 354.39
L691.35 348.58
M691.35 371.82
L691.35 377.63
M697.16 371.82
L697.16 371.82 A5.81 5.81 0 0 1 702.97 377.63
L702.97 377.63
M697.16 354.39
L702.97 354.39 A17.43 17.43 0 0 1 720.4 371.82
L720.4 377.63
M732.02 377.63
L732.02 348.58
M749.45 377.63
L749.45 348.58
M778.49 348.58
L778.49 351.85
L778.49 351.85 A11.62 11.62 0 0 0 779.95 357.48
L779.95 357.48 A11.62 11.62 0 1 1 759.61 357.48
L759.61 357.48 A11.62 11.62 0 0 0 761.06 351.85
L761.06 348.58
M807.54 348.58
L807.54 351.85
L807.54 351.85 A11.62 11.62 0 0 0 808.99 357.48
L808.99 357.48 A11.62 11.62 0 1 1 788.66 357.48
L788.66 357.48 A11.62 11.62 0 0 0 790.11 351.85
L790.11 348.58
M29.05 400.87
L29.05 400.87 A5.81 5.81 0 0 0 23.24 406.68
L23.24 406.68
M29.05 383.44
L29.05 383.44 A23.24 23.24 0 0 0 5.81 406.68
L5.81 406.68
M29.05 400.87
L58.1 400.87
M34.86 377.63
L34.86 377.63 A5.81 5.81 0 0 1 29.05 383.44
L29.05 383.44
M58.1 383.44
L58.1 383.44 A5.81 5.81 0 0 1 52.29 377.63
L52.29 377.63
M63.91 406.68
L63.91 377.63
M81.34 406.68
L81.34 377.63
M58.1 383.44
L63.91 383.44
M58.1 400.87
L63.91 400.87
M87.14 383.44
L81.34 383.44
M87.14 400.87
L81.34 400.87
M87.14 400.87
L90.42 400.87 A11.62 11.62 0 0 1 96.04 402.32
L96.04 402.32 A11.62 11.62 0 1 0 96.04 381.98
L96.04 381.98 A11.62 11.62 0 0 1 90.42 383.44
L87.14 383.44
M139.43 406.68
L139.43 403.4 A11.62 11.62 0 0 1 140.88 397.78
L140.88 397.78 A11.62 11.62 0 1 0 120.55 397.78
L120.55 397.78 A11.62 11.62 0 0 1 122 403.4
L122 406.68
M174.29 383.44
L174.29 383.44 A5.81 5.81 0 0 1 168.48 377.63
L168.48 377.63
M174.29 400.87
L168.48 400.87 A17.43 17.43 0 0 1 151.05 383.44
L151.05 377.63
M174.29 400.87
L203.34 400.87
M174.29 383.44
L203.34 383.44
M180.1 383.44
L180.1 377.63
M180.1 400.87
L180.1 406.68
M197.53 383.44
L197.53 377.63
M197.53 400.87
L197.53 406.68
M203.34 400.87
L232.39 400.87
M209.15 377.63
L209.15 377.63 A5.81 5.81 0 0 1 203.34 383.44
L203.34 383.44
M232.39 383.44
L232.39 383.44 A5.81 5.81 0 0 1 226.58 377.63
L226.58 377.63
M232.39 400.87
L261.43 400.87
M232.39 383.44
L261.43 383.44
M238.2 383.44
L238.2 377.63
M238.2 400.87
L238.2 406.68
M255.62 383.44
L255.62 377.63
M255.62 400.87
L255.62 406.68
M261.43 400.87
L290.48 400.87
M267.24 377.63
L267.24 377.63 A5.81 5.81 0 0 1 261.43 383.44
L261.43 383.44
M290.48 383.44
L290.48 383.44 A5.81 5.81 0 0 1 284.67 377.63
L284.67 377.63
M296.29 406.68
L296.29 377.63
M313.72 406.68
L313.72 377.63
M290.48 383.44
L296.29 383.44
M290.48 400.87
L296.29 400.87
M319.53 383.44
L313.72 383.44
M319.53 400.87
L313.72 400.87
M319.53 400.87
L322.8 400.87 A11.62 11.62 0 0 1 328.43 402.32
L328.43 402.32 A11.62 11.62 0 1 0 328.43 381.98
L328.43 381.98 A11.62 11.62 0 0 1 322.8 383.44
L319.53 383.44
M354.39 406.68
L354.39 377.63
M371.82 406.68
L371.82 377.63
M400.87 406.68
L400.87 403.4 A11.62 11.62 0 0 1 402.32 397.78
L402.32 397.78 A11.62 11.62 0 1 0 381.98 397.78
L381.98 397.78 A11.62 11.62 0 0 1 383.44 403.4
L383.44 406.68
M412.49 406.68
L412.49 377.63
M435.72 383.44
L435.72 383.44 A5.81 5.81 0 0 1 429.91 377.63
L429.91 377.63
M435.72 400.87
L435.72 400.87 A5.81 5.81 0 0 0 429.91 406.68
L429.91 406.68
M435.72 400.87
L464.77 400.87
M435.72 383.44
L464.77 383.44
M441.53 383.44
L441.53 377.63
M441.53 400.87
L441.53 406.68
M458.96 383.44
L458.96 377.63
M458.96 400.87
L458.96 406.68
M488.01 406.68
L488.01 377.63
M470.58 377.63
L470.58 377.63 A5.81 5.81 0 0 1 464.77 383.44
L464.77 383.44
M464.77 400.87
L464.77 400.87 A5.81 5.81 0 0 1 470.58 406.68
L470.58 406.68
M517.06 377.63
L517.06 380.9
L517.06 380.9 A11.62 11.62 0 0 0 518.51 386.53
L518.51 386.53 A11.62 11.62 0 1 1 498.18 386.53
L498.18 386.53 A11.62 11.62 0 0 0 499.63 380.9
L499.63 377.63
M551.92 383.44
L551.92 383.44 A5.81 5.81 0 0 1 546.11 377.63
L546.11 377.63
M551.92 400.87
L546.11 400.87 A17.43 17.43 0 0 1 528.68 383.44
L528.68 377.63
M551.92 400.87
L555.19 400.87 A11.62 11.62 0 0 1 560.82 402.32
L560.82 402.32 A11.62 11.62 0 1 0 560.82 381.98
L560.82 381.98 A11.62 11.62 0 0 1 555.19 383.44
L551.92 383.44
M586.78 406.68
L586.78 377.63
M610.01 383.44
L610.01 383.44 A5.81 5.81 0 0 1 604.2 377.63
L604.2 377.63
M610.01 400.87
L610.01 400.87 A5.81 5.81 0 0 0 604.2 406.68
L604.2 406.68
M610.01 400.87
L639.06 400.87
M610.01 383.44
L639.06 383.44
M615.82 383.44
L615.82 377.63
M615.82 400.87
L615.82 406.68
M633.25 383.44
L633.25 377.63
M633.25 400.87
L633.25 406.68
M639.06 400.87
L642.34 400.87 A11.62 11.62 0 0 1 647.96 402.32
L647.96 402.32 A11.62 11.62 0 1 0 647.96 381.98
L647.96 381.98 A11.62 11.62 0 0 1 642.34 383.44
L639.06 383.44
M691.35 377.63
L691.35 380.9
L691.35 380.9 A11.62 11.62 0 0 0 692.8 386.53
L692.8 386.53 A11.62 11.62 0 1 1 672.47 386.53
L672.47 386.53 A11.62 11.62 0 0 0 673.92 380.9
L673.92 377.63
M702.97 406.68
L702.97 377.63
M726.21 383.44
L726.21 383.44 A5.81 5.81 0 0 1 720.4 377.63
L720.4 377.63
M726.21 400.87
L726.21 400.87 A5.81 5.81 0 0 0 720.4 406.68
L720.4 406.68
M726.21 400.87
L755.26 400.87
M726.21 383.44
L755.26 383.44
M732.02 383.44
L732.02 377.63
M732.02 400.87
L732.02 406.68
M749.45 383.44
L749.45 377.63
M749.45 400.87
L749.45 406.68
M755.26 383.44
L784.3 383.44
M755.26 400.87
L755.26 400.87 A5.81 5.81 0 0 1 761.06 406.68
L761.06 406.68
M784.3 400.87
L784.3 400.87 A5.81 5.81 0 0 0 778.49 406.68
L778.49 406.68
M784.3 400.87
L787.58 400.87 A11.62 11.62 0 0 1 793.2 402.32
L793.2 402.32 A11.62 11.62 0 1 0 793.2 381.98
L793.2 381.98 A11.62 11.62 0 0 1 787.58 383.44
L784.3 383.44
M23.24 406.68
L23.24 409.95
L23.24 409.95 A11.62 11.62 0 0 0 24.69 415.57
L24.69 415.57 A11.62 11.62 0 1 1 4.36 415.57
L4.36 415.57 A11.62 11.62 0 0 0 5.81 409.95
L5.81 406.68
M58.1 429.91
L54.82 429.91 A11.62 11.62 0 0 0 49.2 431.37
L49.2 431.37 A11.62 11.62 0 1 1 49.2 411.03
L49.2 411.03 A11.62 11.62 0 0 0 54.82 412.49
L58.1 412.49
M81.34 435.72
L81.34 406.68
M63.91 406.68
L63.91 406.68 A5.81 5.81 0 0 1 58.1 412.49
L58.1 412.49
M58.1 429.91
L58.1 429.91 A5.81 5.81 0 0 1 63.91 435.72
L63.91 435.72
M116.19 429.91
L116.19 429.91 A5.81 5.81 0 0 0 110.38 435.72
L110.38 435.72
M116.19 412.49
L116.19 412.49 A23.24 23.24 0 0 0 92.95 435.72
L92.95 435.72
M116.19 429.91
L145.24 429.91
M116.19 412.49
L145.24 412.49
M122 412.49
L122 406.68
M122 429.91
L122 435.72
M139.43 412.49
L139.43 406.68
M139.43 429.91
L139.43 435.72
M145.24 429.91
L145.24 429.91 A5.81 5.81 0 0 1 151.05 435.72
L151.05 435.72
M145.24 412.49
L151.05 412.49 A17.43 17.43 0 0 1 168.48 429.91
L168.48 435.72
M203.34 412.49
L203.34 412.49 A5.81 5.81 0 0 1 197.53 406.68
L197.53 406.68
M203.34 429.91
L197.53 429.91 A17.43 17.43 0 0 1 180.1 412.49
L180.1 406.68
M203.34 429.91
L203.34 429.91 A5.81 5.81 0 0 1 209.15 435.72
L209.15 435.72
M203.34 412.49
L209.15 412.49 A17.43 17.43 0 0 1 226.58 429.91
L226.58 435.72
M255.62 406.68
L255.62 409.95
L255.62 409.95 A11.62 11.62 0 0 0 257.08 415.57
L257.08 415.57 A11.62 11.62 0 1 1 236.74 415.57
L236.74 415.57 A11.62 11.62 0 0 0 238.2 409.95
L238.2 406.68
M290.48 429.91
L290.48 429.91 A5.81 5.81 0 0 0 284.67 435.72
L284.67 435.72
M290.48 412.49
L290.48 412.49 A23.24 23.24 0 0 0 267.24 435.72
L267.24 435.72
M313.72 435.72
L313.72 406.68
M296.29 406.68
L296.29 406.68 A5.81 5.81 0 0 1 290.48 412.49
L290.48 412.49
M290.48 429.91
L290.48 429.91 A5.81 5.81 0 0 1 296.29 435.72
L296.29 435.72
M348.58 429.91
L345.31 429.91 A11.62 11.62 0 0 0 339.68 431.37
L339.68 431.37 A11.62 11.62 0 1 1 339.68 411.03
L339.68 411.03 A11.62 11.62 0 0 0 345.31 412.49
L348.58 412.49
M348.58 429.91
L377.63 429.91
M348.58 412.49
L377.63 412.49
M354.39 412.49
L354.39 406.68
M354.39 429.91
L354.39 435.72
M371.82 412.49
L371.82 406.68
M371.82 429.91
L371.82 435.72
M383.44 406.68
L383.44 406.68 A5.81 5.81 0 0 1 377.63 412.49
L377.63 412.49
M377.63 429.91
L377.63 429.91 A5.81 5.81 0 0 1 383.44 435.72
L383.44 435.72
M406.68 412.49
L406.68 412.49 A5.81 5.81 0 0 1 400.87 406.68
L400.87 406.68
M406.68 429.91
L406.68 429.91 A5.81 5.81 0 0 0 400.87 435.72
L400.87 435.72
M406.68 429.91
L435.72 429.91
M406.68 412.49
L435.72 412.49
M412.49 412.49
L412.49 406.68
M412.49 429.91
L412.49 435.72
M429.91 412.49
L429.91 406.68
M429.91 429.91
L429.91 435.72
M435.72 429.91
L464.77 429.91
M441.53 406.68
L441.53 406.68 A5.81 5.81 0 0 1 435.72 412.49
L435.72 412.49
M464.77 412.49
L464.77 412.49 A5.81 5.81 0 0 1 458.96 406.68
L458.96 406.68
M470.58 435.72
L470.58 406.68
M488.01 435.72
L488.01 406.68
M464.77 412.49
L470.58 412.49
M464.77 429.91
L470.58 429.91
M493.82 412.49
L488.01 412.49
M493.82 429.91
L488.01 429.91
M493.82 429.91
L522.87 429.91
M493.82 412.49
L522.87 412.49
M522.87 429.91
L526.14 429.91 A11.62 11.62 0 0 1 531.77 431.37
L531.77 431.37 A11.62 11.62 0 1 0 531.77 411.03
L531.77 411.03 A11.62 11.62 0 0 1 526.14 412.49
L522.87 412.49
M580.97 429.91
L580.97 429.91 A5.81 5.81 0 0 0 575.16 435.72
L575.16 435.72
M580.97 412.49
L580.97 412.49 A23.24 23.24 0 0 0 557.73 435.72
L557.73 435.72
M580.97 429.91
L610.01 429.91
M580.97 412.49
L610.01 412.49
M586.78 412.49
L586.78 406.68
M586.78 429.91
L586.78 435.72
M604.2 412.49
L604.2 406.68
M604.2 429.91
L604.2 435.72
M633.25 435.72
L633.25 406.68
M615.82 406.68
L615.82 406.68 A5.81 5.81 0 0 1 610.01 412.49
L610.01 412.49
M610.01 429.91
L610.01 429.91 A5.81 5.81 0 0 1 615.82 435.72
L615.82 435.72
M662.3 435.72
L662.3 432.45 A11.62 11.62 0 0 1 663.75 426.83
L663.75 426.83 A11.62 11.62 0 1 0 643.42 426.83
L643.42 426.83 A11.62 11.62 0 0 1 644.87 432.45
L644.87 435.72
M697.16 429.91
L697.16 429.91 A5.81 5.81 0 0 0 691.35 435.72
L691.35 435.72
M697.16 412.49
L697.16 412.49 A23.24 23.24 0 0 0 673.92 435.72
L673.92 435.72
M702.97 435.72
L702.97 406.68
M720.4 435.72
L720.4 406.68
M697.16 412.49
L702.97 412.49
M697.16 429.91
L702.97 429.91
M726.21 412.49
L720.4 412.49
M726.21 429.91
L720.4 429.91
M726.21 429.91
L755.26 429.91
M732.02 406.68
L732.02 406.68 A5.81 5.81 0 0 1 726.21 412.49
L726.21 412.49
M755.26 412.49
L755.26 412.49 A5.81 5.81 0 0 1 749.45 406.68
L749.45 406.68
M761.06 435.72
L761.06 406.68
M778.49 435.72
L778.49 406.68
M755.26 412.49
L761.06 412.49
M755.26 429.91
L761.06 429.91
M784.3 412.49
L778.49 412.49
M784.3 429.91
L778.49 429.91
M784.3 429.91
L787.58 429.91 A11.62 11.62 0 0 1 793.2 431.37
L793.2 431.37 A11.62 11.62 0 1 0 793.2 411.03
L793.2 411.03 A11.62 11.62 0 0 1 787.58 412.49
L784.3 412.49
M23.24 464.77
L23.24 461.5 A11.62 11.62 0 0 1 24.69 455.87
L24.69 455.87 A11.62 11.62 0 1 0 4.36 455.87
L4.36 455.87 A11.62 11.62 0 0 1 5.81 461.5
L5.81 464.77
M52.29 464.77
L52.29 461.5 A11.62 11.62 0 0 1 53.74 455.87
L53.74 455.87 A11.62 11.62 0 1 0 33.41 455.87
L33.41 455.87 A11.62 11.62 0 0 1 34.86 461.5
L34.86 464.77
M81.34 435.72
L81.34 439
L81.34 439 A11.62 11.62 0 0 0 82.79 444.62
L82.79 444.62 A11.62 11.62 0 1 1 62.45 444.62
L62.45 444.62 A11.62 11.62 0 0 0 63.91 439
L63.91 435.72
M110.38 435.72
L110.38 439
L110.38 439 A11.62 11.62 0 0 0 111.84 444.62
L111.84 444.62 A11.62 11.62 0 1 1 91.5 444.62
L91.5 444.62 A11.62 11.62 0 0 0 92.95 439
L92.95 435.72
M122 464.77
L122 435.72
M145.24 441.53
L145.24 441.53 A5.81 5.81 0 0 1 139.43 435.72
L139.43 435.72
M145.24 458.96
L145.24 458.96 A5.81 5.81 0 0 0 139.43 464.77
L139.43 464.77
M151.05 464.77
L151.05 435.72
M168.48 464.77
L168.48 435.72
M145.24 441.53
L151.05 441.53
M145.24 458.96
L151.05 458.96
M174.29 441.53
L168.48 441.53
M174.29 458.96
L168.48 458.96
M174.29 441.53
L203.34 441.53
M174.29 458.96
L174.29 458.96 A5.81 5.81 0 0 1 180.1 464.77
L180.1 464.77
M203.34 458.96
L203.34 458.96 A5.81 5.81 0 0 0 197.53 464.77
L197.53 464.77
M209.15 464.77
L209.15 435.72
M226.58 464.77
L226.58 435.72
M203.34 441.53
L209.15 441.53
M203.34 458.96
L209.15 458.96
M232.39 441.53
L226.58 441.53
M232.39 458.96
L226.58 458.96
M232.39 458.96
L261.43 458.96
M232.39 441.53
L261.43 441.53
M267.24 464.77
L267.24 435.72
M284.67 464.77
L284.67 435.72
M261.43 441.53
L267.24 441.53
M261.43 458.96
L267.24 458.96
M290.48 441.53
L284.67 441.53
M290.48 458.96
L284.67 458.96
M313.72 464.77
L313.72 435.72
M296.29 435.72
L296.29 435.72 A5.81 5.81 0 0 1 290.48 441.53
L290.48 441.53
M290.48 458.96
L290.48 458.96 A5.81 5.81 0 0 1 296.29 464.77
L296.29 464.77
M342.77 464.77
L342.77 461.5 A11.62 11.62 0 0 1 344.22 455.87
L344.22 455.87 A11.62 11.62 0 1 0 323.89 455.87
L323.89 455.87 A11.62 11.62 0 0 1 325.34 461.5
L325.34 464.77
M371.82 435.72
L371.82 439
L371.82 439 A11.62 11.62 0 0 0 373.27 444.62
L373.27 444.62 A11.62 11.62 0 1 1 352.94 444.62
L352.94 444.62 A11.62 11.62 0 0 0 354.39 439
L354.39 435.72
M383.44 464.77
L383.44 435.72
M400.87 464.77
L400.87 435.72
M429.91 435.72
L429.91 439
L429.91 439 A11.62 11.62 0 0 0 431.37 444.62
L431.37 444.62 A11.62 11.62 0 1 1 411.03 444.62
L411.03 444.62 A11.62 11.62 0 0 0 412.49 439
L412.49 435.72
M458.96 464.77
L458.96 461.5 A11.62 11.62 0 0 1 460.42 455.87
L460.42 455.87 A11.62 11.62 0 1 0 440.08 455.87
L440.08 455.87 A11.62 11.62 0 0 1 441.53 461.5
L441.53 464.77
M488.01 435.72
L488.01 439
L488.01 439 A11.62 11.62 0 0 0 489.46 444.62
L489.46 444.62 A11.62 11.62 0 1 1 469.13 444.62
L469.13 444.62 A11.62 11.62 0 0 0 470.58 439
L470.58 435.72
M517.06 464.77
L517.06 461.5 A11.62 11.62 0 0 1 518.51 455.87
L518.51 455.87 A11.62 11.62 0 1 0 498.18 455.87
L498.18 455.87 A11.62 11.62 0 0 1 499.63 461.5
L499.63 464.77
M551.92 458.96
L548.64 458.96 A11.62 11.62 0 0 0 543.02 460.42
L543.02 460.42 A11.62 11.62 0 1 1 543.02 440.08
L543.02 440.08 A11.62 11.62 0 0 0 548.64 441.53
L551.92 441.53
M557.73 464.77
L557.73 435.72
M575.16 464.77
L575.16 435.72
M551.92 441.53
L557.73 441.53
M551.92 458.96
L557.73 458.96
M580.97 441.53
L575.16 441.53
M580.97 458.96
L575.16 458.96
M586.78 435.72
L586.78 435.72 A5.81 5.81 0 0 1 580.97 441.53
L580.97 441.53
M580.97 458.96
L580.97 458.96 A5.81 5.81 0 0 1 586.78 464.77
L586.78 464.77
M610.01 441.53
L610.01 441.53 A5.81 5.81 0 0 1 604.2 435.72
L604.2 435.72
M610.01 458.96
L610.01 458.96 A5.81 5.81 0 0 0 604.2 464.77
L604.2 464.77
M610.01 458.96
L639.06 458.96
M610.01 441.53
L639.06 441.53
M615.82 441.53
L615.82 435.72
M615.82 458.96
L615.82 464.77
M633.25 441.53
L633.25 435.72
M633.25 458.96
L633.25 464.77
M662.3 464.77
L662.3 435.72
M644.87 435.72
L644.87 435.72 A5.81 5.81 0 0 1 639.06 441.53
L639.06 441.53
M639.06 458.96
L639.06 458.96 A5.81 5.81 0 0 1 644.87 464.77
L644.87 464.77
M691.35 435.72
L691.35 439
L691.35 439 A11.62 11.62 0 0 0 692.8 444.62
L692.8 444.62 A11.62 11.62 0 1 1 672.47 444.62
L672.47 444.62 A11.62 11.62 0 0 0 673.92 439
L673.92 435.72
M702.97 464.77
L702.97 435.72
M726.21 441.53
L726.21 441.53 A5.81 5.81 0 0 1 720.4 435.72
L720.4 435.72
M726.21 458.96
L726.21 458.96 A5.81 5.81 0 0 0 720.4 464.77
L720.4 464.77
M726.21 458.96
L729.48 458.96 A11.62 11.62 0 0 1 735.11 460.42
L735.11 460.42 A11.62 11.62 0 1 0 735.11 440.08
L735.11 440.08 A11.62 11.62 0 0 1 729.48 441.53
L726.21 441.53
M761.06 464.77
L761.06 435.72
M784.3 441.53
L784.3 441.53 A5.81 5.81 0 0 1 778.49 435.72
L778.49 435.72
M784.3 458.96
L784.3 458.96 A5.81 5.81 0 0 0 778.49 464.77
L778.49 464.77
M784.3 458.96
L787.58 458.96 A11.62 11.62 0 0 1 793.2 460.42
L793.2 460.42 A11.62 11.62 0 1 0 793.2 440.08
L793.2 440.08 A11.62 11.62 0 0 1 787.58 441.53
L784.3 441.53
M5.81 493.82
L5.81 464.77
M29.05 470.58
L29.05 470.58 A5.81 5.81 0 0 1 23.24 464.77
L23.24 464.77
M29.05 488.01
L29.05 488.01 A5.81 5.81 0 0 0 23.24 493.82
L23.24 493.82
M34.86 493.82
L34.86 464.77
M52.29 493.82
L52.29 464.77
M29.05 470.58
L34.86 470.58
M29.05 488.01
L34.86 488.01
M58.1 470.58
L52.29 470.58
M58.1 488.01
L52.29 488.01
M58.1 488.01
L87.14 488.01
M58.1 470.58
L87.14 470.58
M87.14 470.58
L116.19 470.58
M87.14 488.01
L87.14 488.01 A5.81 5.81 0 0 1 92.95 493.82
L92.95 493.82
M116.19 488.01
L116.19 488.01 A5.81 5.81 0 0 0 110.38 493.82
L110.38 493.82
M122 493.82
L122 464.77
M139.43 493.82
L139.43 464.77
M116.19 470.58
L122 470.58
M116.19 488.01
L122 488.01
M145.24 470.58
L139.43 470.58
M145.24 488.01
L139.43 488.01
M168.48 493.82
L168.48 464.77
M151.05 464.77
L151.05 464.77 A5.81 5.81 0 0 1 145.24 470.58
L145.24 470.58
M145.24 488.01
L145.24 488.01 A5.81 5.81 0 0 1 151.05 493.82
L151.05 493.82
M197.53 464.77
L197.53 468.05
L197.53 468.05 A11.62 11.62 0 0 0 198.98 473.67
L198.98 473.67 A11.62 11.62 0 1 1 178.65 473.67
L178.65 473.67 A11.62 11.62 0 0 0 180.1 468.05
L180.1 464.77
M209.15 493.82
L209.15 464.77
M232.39 470.58
L232.39 470.58 A5.81 5.81 0 0 1 226.58 464.77
L226.58 464.77
M232.39 488.01
L232.39 488.01 A5.81 5.81 0 0 0 226.58 493.82
L226.58 493.82
M232.39 488.01
L235.66 488.01 A11.62 11.62 0 0 1 241.29 489.46
L241.29 489.46 A11.62 11.62 0 1 0 241.29 469.13
L241.29 469.13 A11.62 11.62 0 0 1 235.66 470.58
L232.39 470.58
M290.48 470.58
L290.48 470.58 A5.81 5.81 0 0 1 284.67 464.77
L284.67 464.77
M290.48 488.01
L284.67 488.01 A17.43 17.43 0 0 1 267.24 470.58
L267.24 464.77
M296.29 493.82
L296.29 464.77
M313.72 493.82
L313.72 464.77
M290.48 470.58
L296.29 470.58
M290.48 488.01
L296.29 488.01
M319.53 470.58
L313.72 470.58
M319.53 488.01
L313.72 488.01
M325.34 464.77
L325.34 464.77 A5.81 5.81 0 0 1 319.53 470.58
L319.53 470.58
M342.77 464.77
L342.77 470.58 A17.43 17.43 0 0 1 325.34 488.01
L319.53 488.01
M377.63 488.01
L374.35 488.01 A11.62 11.62 0 0 0 368.73 489.46
L368.73 489.46 A11.62 11.62 0 1 1 368.73 469.13
L368.73 469.13 A11.62 11.62 0 0 0 374.35 470.58
L377.63 470.58
M383.44 493.82
L383.44 464.77
M400.87 493.82
L400.87 464.77
M377.63 470.58
L383.44 470.58
M377.63 488.01
L383.44 488.01
M406.68 470.58
L400.87 470.58
M406.68 488.01
L400.87 488.01
M406.68 470.58
L435.72 470.58
M406.68 488.01
L406.68 488.01 A5.81 5.81 0 0 1 412.49 493.82
L412.49 493.82
M435.72 488.01
L435.72 488.01 A5.81 5.81 0 0 0 429.91 493.82
L429.91 493.82
M435.72 488.01
L464.77 488.01
M435.72 470.58
L464.77 470.58
M441.53 470.58
L441.53 464.77
M441.53 488.01
L441.53 493.82
M458.96 470.58
L458.96 464.77
M458.96 488.01
L458.96 493.82
M464.77 470.58
L493.82 470.58
M464.77 488.01
L464.77 488.01 A5.81 5.81 0 0 1 470.58 493.82
L470.58 493.82
M493.82 488.01
L493.82 488.01 A5.81 5.81 0 0 0 488.01 493.82
L488.01 493.82
M493.82 488.01
L522.87 488.01
M493.82 470.58
L522.87 470.58
M499.63 470.58
L499.63 464.77
M499.63 488.01
L499.63 493.82
M517.06 470.58
L517.06 464.77
M517.06 488.01
L517.06 493.82
M522.87 470.58
L551.92 470.58
M522.87 488.01
L522.87 488.01 A5.81 5.81 0 0 1 528.68 493.82
L528.68 493.82
M551.92 488.01
L551.92 488.01 A5.81 5.81 0 0 0 546.11 493.82
L546.11 493.82
M557.73 464.77
L557.73 464.77 A5.81 5.81 0 0 1 551.92 470.58
L551.92 470.58
M575.16 464.77
L575.16 470.58 A17.43 17.43 0 0 1 557.73 488.01
L551.92 488.01
M586.78 493.82
L586.78 464.77
M604.2 493.82
L604.2 464.77
M639.06 470.58
L639.06 470.58 A5.81 5.81 0 0 1 633.25 464.77
L633.25 464.77
M639.06 488.01
L633.25 488.01 A17.43 17.43 0 0 1 615.82 470.58
L615.82 464.77
M639.06 488.01
L668.11 488.01
M639.06 470.58
L668.11 470.58
M644.87 470.58
L644.87 464.77
M644.87 488.01
L644.87 493.82
M662.3 470.58
L662.3 464.77
M662.3 488.01
L662.3 493.82
M668.11 470.58
L697.16 470.58
M668.11 488.01
L668.11 488.01 A5.81 5.81 0 0 1 673.92 493.82
L673.92 493.82
M697.16 488.01
L697.16 488.01 A5.81 5.81 0 0 0 691.35 493.82
L691.35 493.82
M697.16 488.01
L726.21 488.01
M697.16 470.58
L726.21 470.58
M702.97 470.58
L702.97 464.77
M702.97 488.01
L702.97 493.82
M720.4 470.58
L720.4 464.77
M720.4 488.01
L720.4 493.82
M726.21 488.01
L755.26 488.01
M726.21 470.58
L755.26 470.58
M761.06 493.82
L761.06 464.77
M778.49 493.82
L778.49 464.77
M755.26 470.58
L761.06 470.58
M755.26 488.01
L761.06 488.01
M784.3 470.58
L778.49 470.58
M784.3 488.01
L778.49 488.01
M784.3 488.01
L784.3 488.01 A5.81 5.81 0 0 1 790.11 493.82
L790.11 493.82
M784.3 470.58
L790.11 470.58 A17.43 17.43 0 0 1 807.54 488.01
L807.54 493.82
M23.24 493.82
L23.24 497.09
L23.24 497.09 A11.62 11.62 0 0 0 24.69 502.72
L24.69 502.72 A11.62 11.62 0 1 1 4.36 502.72
L4.36 502.72 A11.62 11.62 0 0 0 5.81 497.09
L5.81 493.82
M34.86 522.87
L34.86 493.82
M58.1 499.63
L58.1 499.63 A5.81 5.81 0 0 1 52.29 493.82
L52.29 493.82
M58.1 517.06
L58.1 517.06 A5.81 5.81 0 0 0 52.29 522.87
L52.29 522.87
M58.1 517.06
L87.14 517.06
M58.1 499.63
L87.14 499.63
M87.14 517.06
L116.19 517.06
M87.14 499.63
L116.19 499.63
M92.95 499.63
L92.95 493.82
M92.95 517.06
L92.95 522.87
M110.38 499.63
L110.38 493.82
M110.38 517.06
L110.38 522.87
M122 493.82
L122 493.82 A5.81 5.81 0 0 1 116.19 499.63
L116.19 499.63
M116.19 517.06
L116.19 517.06 A5.81 5.81 0 0 1 122 522.87
L122 522.87
M145.24 499.63
L145.24 499.63 A5.81 5.81 0 0 1 139.43 493.82
L139.43 493.82
M145.24 517.06
L145.24 517.06 A5.81 5.81 0 0 0 139.43 522.87
L139.43 522.87
M151.05 522.87
L151.05 493.82
M168.48 522.87
L168.48 493.82
M145.24 499.63
L151.05 499.63
M145.24 517.06
L151.05 517.06
M174.29 499.63
L168.48 499.63
M174.29 517.06
L168.48 517.06
M174.29 499.63
L203.34 499.63
M174.29 517.06
L174.29 517.06 A5.81 5.81 0 0 1 180.1 522.87
L180.1 522.87
M203.34 517.06
L203.34 517.06 A5.81 5.81 0 0 0 197.53 522.87
L197.53 522.87
M203.34 517.06
L232.39 517.06
M203.34 499.63
L232.39 499.63
M209.15 499.63
L209.15 493.82
M209.15 517.06
L209.15 522.87
M226.58 499.63
L226.58 493.82
M226.58 517.06
L226.58 522.87
M232.39 517.06
L232.39 517.06 A5.81 5.81 0 0 1 238.2 522.87
L238.2 522.87
M232.39 499.63
L238.2 499.63 A17.43 17.43 0 0 1 255.62 517.06
L255.62 522.87
M290.48 517.06
L287.21 517.06 A11.62 11.62 0 0 0 281.58 518.51
L281.58 518.51 A11.62 11.62 0 1 1 281.58 498.18
L281.58 498.18 A11.62 11.62 0 0 0 287.21 499.63
L290.48 499.63
M290.48 517.06
L319.53 517.06
M296.29 493.82
L296.29 493.82 A5.81 5.81 0 0 1 290.48 499.63
L290.48 499.63
M319.53 499.63
L319.53 499.63 A5.81 5.81 0 0 1 313.72 493.82
L313.72 493.82
M319.53 517.06
L322.8 517.06 A11.62 11.62 0 0 1 328.43 518.51
L328.43 518.51 A11.62 11.62 0 1 0 328.43 498.18
L328.43 498.18 A11.62 11.62 0 0 1 322.8 499.63
L319.53 499.63
M377.63 517.06
L377.63 517.06 A5.81 5.81 0 0 0 371.82 522.87
L371.82 522.87
M377.63 499.63
L377.63 499.63 A23.24 23.24 0 0 0 354.39 522.87
L354.39 522.87
M377.63 517.06
L406.68 517.06
M383.44 493.82
L383.44 493.82 A5.81 5.81 0 0 1 377.63 499.63
L377.63 499.63
M406.68 499.63
L406.68 499.63 A5.81 5.81 0 0 1 400.87 493.82
L400.87 493.82
M412.49 522.87
L412.49 493.82
M429.91 522.87
L429.91 493.82
M406.68 499.63
L412.49 499.63
M406.68 517.06
L412.49 517.06
M435.72 499.63
L429.91 499.63
M435.72 517.06
L429.91 517.06
M435.72 517.06
L464.77 517.06
M441.53 493.82
L441.53 493.82 A5.81 5.81 0 0 1 435.72 499.63
L435.72 499.63
M464.77 499.63
L464.77 499.63 A5.81 5.81 0 0 1 458.96 493.82
L458.96 493.82
M464.77 517.06
L493.82 517.06
M464.77 499.63
L493.82 499.63
M470.58 499.63
L470.58 493.82
M470.58 517.06
L470.58 522.87
M488.01 499.63
L488.01 493.82
M488.01 517.06
L488.01 522.87
M499.63 493.82
L499.63 493.82 A5.81 5.81 0 0 1 493.82 499.63
L493.82 499.63
M493.82 517.06
L493.82 517.06 A5.81 5.81 0 0 1 499.63 522.87
L499.63 522.87
M522.87 499.63
L522.87 499.63 A5.81 5.81 0 0 1 517.06 493.82
L517.06 493.82
M522.87 517.06
L522.87 517.06 A5.81 5.81 0 0 0 517.06 522.87
L517.06 522.87
M522.87 517.06
L551.92 517.06
M522.87 499.63
L551.92 499.63
M528.68 499.63
L528.68 493.82
M528.68 517.06
L528.68 522.87
M546.11 499.63
L546.11 493.82
M546.11 517.06
L546.11 522.87
M551.92 499.63
L580.97 499.63
M551.92 517.06
L551.92 517.06 A5.81 5.81 0 0 1 557.73 522.87
L557.73 522.87
M580.97 517.06
L580.97 517.06 A5.81 5.81 0 0 0 575.16 522.87
L575.16 522.87
M586.78 522.87
L586.78 493.82
M604.2 522.87
L604.2 493.82
M580.97 499.63
L586.78 499.63
M580.97 517.06
L586.78 517.06
M610.01 499.63
L604.2 499.63
M610.01 517.06
L604.2 517.06
M610.01 517.06
L610.01 517.06 A5.81 5.81 0 0 1 615.82 522.87
L615.82 522.87
M610.01 499.63
L615.82 499.63 A17.43 17.43 0 0 1 633.25 517.06
L633.25 522.87
M644.87 522.87
L644.87 493.82
M668.11 499.63
L668.11 499.63 A5.81 5.81 0 0 1 662.3 493.82
L662.3 493.82
M668.11 517.06
L668.11 517.06 A5.81 5.81 0 0 0 662.3 522.87
L662.3 522.87
M668.11 517.06
L697.16 517.06
M668.11 499.63
L697.16 499.63
M673.92 499.63
L673.92 493.82
M673.92 517.06
L673.92 522.87
M691.35 499.63
L691.35 493.82
M691.35 517.06
L691.35 522.87
M720.4 522.87
L720.4 493.82
M702.97 493.82
L702.97 493.82 A5.81 5.81 0 0 1 697.16 499.63
L697.16 499.63
M697.16 517.06
L697.16 517.06 A5.81 5.81 0 0 1 702.97 522.87
L702.97 522.87
M755.26 517.06
L755.26 517.06 A5.81 5.81 0 0 0 749.45 522.87
L749.45 522.87
M755.26 499.63
L755.26 499.63 A23.24 23.24 0 0 0 732.02 522.87
L732.02 522.87
M761.06 493.82
L761.06 493.82 A5.81 5.81 0 0 1 755.26 499.63
L755.26 499.63
M778.49 493.82
L778.49 499.63 A17.43 17.43 0 0 1 761.06 517.06
L755.26 517.06
M790.11 522.87
L790.11 493.82
M807.54 522.87
L807.54 493.82
M29.05 546.11
L29.05 546.11 A5.81 5.81 0 0 0 23.24 551.92
L23.24 551.92
M29.05 528.68
L29.05 528.68 A23.24 23.24 0 0 0 5.81 551.92
L5.81 551.92
M34.86 551.92
L34.86 522.87
M52.29 551.92
L52.29 522.87
M29.05 528.68
L34.86 528.68
M29.05 546.11
L34.86 546.11
M58.1 528.68
L52.29 528.68
M58.1 546.11
L52.29 546.11
M58.1 546.11
L58.1 546.11 A5.81 5.81 0 0 1 63.91 551.92
L63.91 551.92
M58.1 528.68
L63.91 528.68 A17.43 17.43 0 0 1 81.34 546.11
L81.34 551.92
M92.95 551.92
L92.95 522.87
M110.38 551.92
L110.38 522.87
M122 551.92
L122 522.87
M139.43 551.92
L139.43 522.87
M151.05 551.92
L151.05 522.87
M174.29 528.68
L174.29 528.68 A5.81 5.81 0 0 1 168.48 522.87
L168.48 522.87
M174.29 546.11
L174.29 546.11 A5.81 5.81 0 0 0 168.48 551.92
L168.48 551.92
M174.29 546.11
L203.34 546.11
M174.29 528.68
L203.34 528.68
M180.1 528.68
L180.1 522.87
M180.1 546.11
L180.1 551.92
M197.53 528.68
L197.53 522.87
M197.53 546.11
L197.53 551.92
M203.34 546.11
L232.39 546.11
M209.15 522.87
L209.15 522.87 A5.81 5.81 0 0 1 203.34 528.68
L203.34 528.68
M232.39 528.68
L232.39 528.68 A5.81 5.81 0 0 1 226.58 522.87
L226.58 522.87
M238.2 551.92
L238.2 522.87
M255.62 551.92
L255.62 522.87
M232.39 528.68
L238.2 528.68
M232.39 546.11
L238.2 546.11
M261.43 528.68
L255.62 528.68
M261.43 546.11
L255.62 546.11
M261.43 546.11
L290.48 546.11
M261.43 528.68
L290.48 528.68
M290.48 546.11
L293.76 546.11 A11.62 11.62 0 0 1 299.38 547.56
L299.38 547.56 A11.62 11.62 0 1 0 299.38 527.23
L299.38 527.23 A11.62 11.62 0 0 1 293.76 528.68
L290.48 528.68
M348.58 546.11
L345.31 546.11 A11.62 11.62 0 0 0 339.68 547.56
L339.68 547.56 A11.62 11.62 0 1 1 339.68 527.23
L339.68 527.23 A11.62 11.62 0 0 0 345.31 528.68
L348.58 528.68
M354.39 551.92
L354.39 522.87
M371.82 551.92
L371.82 522.87
M348.58 528.68
L354.39 528.68
M348.58 546.11
L354.39 546.11
M377.63 528.68
L371.82 528.68
M377.63 546.11
L371.82 546.11
M377.63 528.68
L406.68 528.68
M377.63 546.11
L377.63 546.11 A5.81 5.81 0 0 1 383.44 551.92
L383.44 551.92
M406.68 546.11
L406.68 546.11 A5.81 5.81 0 0 0 400.87 551.92
L400.87 551.92
M406.68 546.11
L435.72 546.11
M412.49 522.87
L412.49 522.87 A5.81 5.81 0 0 1 406.68 528.68
L406.68 528.68
M435.72 528.68
L435.72 528.68 A5.81 5.81 0 0 1 429.91 522.87
L429.91 522.87
M435.72 546.11
L439 546.11 A11.62 11.62 0 0 1 444.62 547.56
L444.62 547.56 A11.62 11.62 0 1 0 444.62 527.23
L444.62 527.23 A11.62 11.62 0 0 1 439 528.68
L435.72 528.68
M488.01 522.87
L488.01 526.14
L488.01 526.14 A11.62 11.62 0 0 0 489.46 531.77
L489.46 531.77 A11.62 11.62 0 1 1 469.13 531.77
L469.13 531.77 A11.62 11.62 0 0 0 470.58 526.14
L470.58 522.87
M499.63 551.92
L499.63 522.87
M517.06 551.92
L517.06 522.87
M551.92 528.68
L551.92 528.68 A5.81 5.81 0 0 1 546.11 522.87
L546.11 522.87
M551.92 546.11
L546.11 546.11 A17.43 17.43 0 0 1 528.68 528.68
L528.68 522.87
M557.73 551.92
L557.73 522.87
M575.16 551.92
L575.16 522.87
M551.92 528.68
L557.73 528.68
M551.92 546.11
L557.73 546.11
M580.97 528.68
L575.16 528.68
M580.97 546.11
L575.16 546.11
M604.2 551.92
L604.2 522.87
M586.78 522.87
L586.78 522.87 A5.81 5.81 0 0 1 580.97 528.68
L580.97 528.68
M580.97 546.11
L580.97 546.11 A5.81 5.81 0 0 1 586.78 551.92
L586.78 551.92
M615.82 551.92
L615.82 522.87
M633.25 551.92
L633.25 522.87
M644.87 551.92
L644.87 522.87
M662.3 551.92
L662.3 522.87
M691.35 522.87
L691.35 526.14
L691.35 526.14 A11.62 11.62 0 0 0 692.8 531.77
L692.8 531.77 A11.62 11.62 0 1 1 672.47 531.77
L672.47 531.77 A11.62 11.62 0 0 0 673.92 526.14
L673.92 522.87
M702.97 551.92
L702.97 522.87
M726.21 528.68
L726.21 528.68 A5.81 5.81 0 0 1 720.4 522.87
L720.4 522.87
M726.21 546.11
L726.21 546.11 A5.81 5.81 0 0 0 720.4 551.92
L720.4 551.92
M726.21 546.11
L755.26 546.11
M726.21 528.68
L755.26 528.68
M732.02 528.68
L732.02 522.87
M732.02 546.11
L732.02 551.92
M749.45 528.68
L749.45 522.87
M749.45 546.11
L749.45 551.92
M755.26 546.11
L755.26 546.11 A5.81 5.81 0 0 1 761.06 551.92
L761.06 551.92
M755.26 528.68
L761.06 528.68 A17.43 17.43 0 0 1 778.49 546.11
L778.49 551.92
M807.54 522.87
L807.54 526.14
L807.54 526.14 A11.62 11.62 0 0 0 808.99 531.77
L808.99 531.77 A11.62 11.62 0 1 1 788.66 531.77
L788.66 531.77 A11.62 11.62 0 0 0 790.11 526.14
L790.11 522.87
M52.29 551.92
L52.29 555.19
L52.29 555.19 A11.62 11.62 0 0 0 53.74 560.82
L53.74 560.82 A11.62 11.62 0 1 1 33.41 560.82
L33.41 560.82 A11.62 11.62 0 0 0 34.86 555.19
L34.86 551.92
M87.14 557.73
L87.14 557.73 A5.81 5.81 0 0 1 81.34 551.92
L81.34 551.92
M87.14 575.16
L81.34 575.16 A17.43 17.43 0 0 1 63.91 557.73
L63.91 551.92
M92.95 551.92
L92.95 551.92 A5.81 5.81 0 0 1 87.14 557.73
L87.14 557.73
M110.38 551.92
L110.38 557.73 A17.43 17.43 0 0 1 92.95 575.16
L87.14 575.16
M139.43 551.92
L139.43 555.19
L139.43 555.19 A11.62 11.62 0 0 0 140.88 560.82
L140.88 560.82 A11.62 11.62 0 1 1 120.55 560.82
L120.55 560.82 A11.62 11.62 0 0 0 122 555.19
L122 551.92
M168.48 551.92
L168.48 555.19
L168.48 555.19 A11.62 11.62 0 0 0 169.93 560.82
L169.93 560.82 A11.62 11.62 0 1 1 149.6 560.82
L149.6 560.82 A11.62 11.62 0 0 0 151.05 555.19
L151.05 551.92
M203.34 557.73
L203.34 557.73 A5.81 5.81 0 0 1 197.53 551.92
L197.53 551.92
M203.34 575.16
L197.53 575.16 A17.43 17.43 0 0 1 180.1 557.73
L180.1 551.92
M203.34 575.16
L206.61 575.16 A11.62 11.62 0 0 1 212.24 576.61
L212.24 576.61 A11.62 11.62 0 1 0 212.24 556.27
L212.24 556.27 A11.62 11.62 0 0 1 206.61 557.73
L203.34 557.73
M261.43 557.73
L261.43 557.73 A5.81 5.81 0 0 1 255.62 551.92
L255.62 551.92
M261.43 575.16
L255.62 575.16 A17.43 17.43 0 0 1 238.2 557.73
L238.2 551.92
M261.43 575.16
L290.48 575.16
M261.43 557.73
L290.48 557.73
M290.48 575.16
L293.76 575.16 A11.62 11.62 0 0 1 299.38 576.61
L299.38 576.61 A11.62 11.62 0 1 0 299.38 556.27
L299.38 556.27 A11.62 11.62 0 0 1 293.76 557.73
L290.48 557.73
M348.58 575.16
L345.31 575.16 A11.62 11.62 0 0 0 339.68 576.61
L339.68 576.61 A11.62 11.62 0 1 1 339.68 556.27
L339.68 556.27 A11.62 11.62 0 0 0 345.31 557.73
L348.58 557.73
M354.39 551.92
L354.39 551.92 A5.81 5.81 0 0 1 348.58 557.73
L348.58 557.73
M371.82 551.92
L371.82 557.73 A17.43 17.43 0 0 1 354.39 575.16
L348.58 575.16
M406.68 557.73
L406.68 557.73 A5.81 5.81 0 0 1 400.87 551.92
L400.87 551.92
M406.68 575.16
L400.87 575.16 A17.43 17.43 0 0 1 383.44 557.73
L383.44 551.92
M406.68 575.16
L435.72 575.16
M406.68 557.73
L435.72 557.73
M435.72 575.16
L439 575.16 A11.62 11.62 0 0 1 444.62 576.61
L444.62 576.61 A11.62 11.62 0 1 0 444.62 556.27
L444.62 556.27 A11.62 11.62 0 0 1 439 557.73
L435.72 557.73
M493.82 575.16
L490.55 575.16 A11.62 11.62 0 0 0 484.92 576.61
L484.92 576.61 A11.62 11.62 0 1 1 484.92 556.27
L484.92 556.27 A11.62 11.62 0 0 0 490.55 557.73
L493.82 557.73
M499.63 551.92
L499.63 551.92 A5.81 5.81 0 0 1 493.82 557.73
L493.82 557.73
M517.06 551.92
L517.06 557.73 A17.43 17.43 0 0 1 499.63 575.16
L493.82 575.16
M551.92 575.16
L548.64 575.16 A11.62 11.62 0 0 0 543.02 576.61
L543.02 576.61 A11.62 11.62 0 1 1 543.02 556.27
L543.02 556.27 A11.62 11.62 0 0 0 548.64 557.73
L551.92 557.73
M557.73 551.92
L557.73 551.92 A5.81 5.81 0 0 1 551.92 557.73
L551.92 557.73
M575.16 551.92
L575.16 557.73 A17.43 17.43 0 0 1 557.73 575.16
L551.92 575.16
M604.2 551.92
L604.2 555.19
L604.2 555.19 A11.62 11.62 0 0 0 605.66 560.82
L605.66 560.82 A11.62 11.62 0 1 1 585.32 560.82
L585.32 560.82 A11.62 11.62 0 0 0 586.78 555.19
L586.78 551.92
M633.25 551.92
L633.25 555.19
L633.25 555.19 A11.62 11.62 0 0 0 634.7 560.82
L634.7 560.82 A11.62 11.62 0 1 1 614.37 560.82
L614.37 560.82 A11.62 11.62 0 0 0 615.82 555.19
L615.82 551.92
M668.11 557.73
L668.11 557.73 A5.81 5.81 0 0 1 662.3 551.92
L662.3 551.92
M668.11 575.16
L662.3 575.16 A17.43 17.43 0 0 1 644.87 557.73
L644.87 551.92
M668.11 575.16
L671.38 575.16 A11.62 11.62 0 0 1 677.01 576.61
L677.01 576.61 A11.62 11.62 0 1 0 677.01 556.27
L677.01 556.27 A11.62 11.62 0 0 1 671.38 557.73
L668.11 557.73
M720.4 551.92
L720.4 555.19
L720.4 555.19 A11.62 11.62 0 0 0 721.85 560.82
L721.85 560.82 A11.62 11.62 0 1 1 701.52 560.82
L701.52 560.82 A11.62 11.62 0 0 0 702.97 555.19
L702.97 551.92
M749.45 551.92
L749.45 555.19
L749.45 555.19 A11.62 11.62 0 0 0 750.9 560.82
L750.9 560.82 A11.62 11.62 0 1 1 730.56 560.82
L730.56 560.82 A11.62 11.62 0 0 0 732.02 555.19
L732.02 551.92
M784.3 557.73
L784.3 557.73 A5.81 5.81 0 0 1 778.49 551.92
L778.49 551.92
M784.3 575.16
L778.49 575.16 A17.43 17.43 0 0 1 761.06 557.73
L761.06 551.92
M784.3 575.16
L787.58 575.16 A11.62 11.62 0 0 1 793.2 576.61
L793.2 576.61 A11.62 11.62 0 1 0 793.2 556.27
L793.2 556.27 A11.62 11.62 0 0 1 787.58 557.73
L784.3 557.73
"></path>
            <circle cx="798.83" cy="14.52" r="9.68" fill-opacity="1.0" stroke-opacity="0" fill="#E51919" /><circle cx="14.52" cy="566.44" r="9.68" fill-opacity="1.0" stroke-opacity="0" fill="#E51919" />
         </svg>